<svg width="1363" height="163" viewBox="0 0 1363 163" fill="none" xmlns="http://www.w3.org/2000/svg">
<path d="M0 15C0 6.71573 6.71573 0 15 0H37V163H15C6.71573 163 0 156.284 0 148V15Z" fill="#424242"/>
<rect width="1097" height="163" transform="translate(37)" fill="#F0F0F0"/>
<path d="M101.203 53.5117H96.8203L96.7969 51.0977H100.477C101.125 51.0977 101.656 51.0156 102.07 50.8516C102.484 50.6797 102.793 50.4336 102.996 50.1133C103.207 49.7852 103.312 49.3867 103.312 48.918C103.312 48.3867 103.211 47.957 103.008 47.6289C102.812 47.3008 102.504 47.0625 102.082 46.9141C101.668 46.7656 101.133 46.6914 100.477 46.6914H98.0391V61H94.5234V43.9375H100.477C101.469 43.9375 102.355 44.0312 103.137 44.2188C103.926 44.4062 104.594 44.6914 105.141 45.0742C105.688 45.457 106.105 45.9414 106.395 46.5273C106.684 47.1055 106.828 47.793 106.828 48.5898C106.828 49.293 106.668 49.9414 106.348 50.5352C106.035 51.1289 105.539 51.6133 104.859 51.9883C104.188 52.3633 103.309 52.5703 102.223 52.6094L101.203 53.5117ZM101.051 61H95.8594L97.2305 58.2578H101.051C101.668 58.2578 102.172 58.1602 102.562 57.9648C102.953 57.7617 103.242 57.4883 103.43 57.1445C103.617 56.8008 103.711 56.4062 103.711 55.9609C103.711 55.4609 103.625 55.0273 103.453 54.6602C103.289 54.293 103.023 54.0117 102.656 53.8164C102.289 53.6133 101.805 53.5117 101.203 53.5117H97.8164L97.8398 51.0977H102.059L102.867 52.0469C103.906 52.0312 104.742 52.2148 105.375 52.5977C106.016 52.9727 106.48 53.4609 106.77 54.0625C107.066 54.6641 107.215 55.3086 107.215 55.9961C107.215 57.0898 106.977 58.0117 106.5 58.7617C106.023 59.5039 105.324 60.0625 104.402 60.4375C103.488 60.8125 102.371 61 101.051 61ZM116.484 58.1406V52.4922C116.484 52.0859 116.418 51.7383 116.285 51.4492C116.152 51.1523 115.945 50.9219 115.664 50.7578C115.391 50.5938 115.035 50.5117 114.598 50.5117C114.223 50.5117 113.898 50.5781 113.625 50.7109C113.352 50.8359 113.141 51.0195 112.992 51.2617C112.844 51.4961 112.77 51.7734 112.77 52.0938H109.395C109.395 51.5547 109.52 51.043 109.77 50.5586C110.02 50.0742 110.383 49.6484 110.859 49.2812C111.336 48.9062 111.902 48.6133 112.559 48.4023C113.223 48.1914 113.965 48.0859 114.785 48.0859C115.77 48.0859 116.645 48.25 117.41 48.5781C118.176 48.9062 118.777 49.3984 119.215 50.0547C119.66 50.7109 119.883 51.5312 119.883 52.5156V57.9414C119.883 58.6367 119.926 59.207 120.012 59.6523C120.098 60.0898 120.223 60.4727 120.387 60.8008V61H116.977C116.812 60.6562 116.688 60.2266 116.602 59.7109C116.523 59.1875 116.484 58.6641 116.484 58.1406ZM116.93 53.2773L116.953 55.1875H115.066C114.621 55.1875 114.234 55.2383 113.906 55.3398C113.578 55.4414 113.309 55.5859 113.098 55.7734C112.887 55.9531 112.73 56.1641 112.629 56.4062C112.535 56.6484 112.488 56.9141 112.488 57.2031C112.488 57.4922 112.555 57.7539 112.688 57.9883C112.82 58.2148 113.012 58.3945 113.262 58.5273C113.512 58.6523 113.805 58.7148 114.141 58.7148C114.648 58.7148 115.09 58.6133 115.465 58.4102C115.84 58.207 116.129 57.957 116.332 57.6602C116.543 57.3633 116.652 57.082 116.66 56.8164L117.551 58.2461C117.426 58.5664 117.254 58.8984 117.035 59.2422C116.824 59.5859 116.555 59.9102 116.227 60.2148C115.898 60.5117 115.504 60.7578 115.043 60.9531C114.582 61.1406 114.035 61.2344 113.402 61.2344C112.598 61.2344 111.867 61.0742 111.211 60.7539C110.562 60.4258 110.047 59.9766 109.664 59.4062C109.289 58.8281 109.102 58.1719 109.102 57.4375C109.102 56.7734 109.227 56.1836 109.477 55.668C109.727 55.1523 110.094 54.7188 110.578 54.3672C111.07 54.0078 111.684 53.7383 112.418 53.5586C113.152 53.3711 114.004 53.2773 114.973 53.2773H116.93ZM126.047 43V61H122.66V43H126.047ZM135.68 58.1406V52.4922C135.68 52.0859 135.613 51.7383 135.48 51.4492C135.348 51.1523 135.141 50.9219 134.859 50.7578C134.586 50.5938 134.23 50.5117 133.793 50.5117C133.418 50.5117 133.094 50.5781 132.82 50.7109C132.547 50.8359 132.336 51.0195 132.188 51.2617C132.039 51.4961 131.965 51.7734 131.965 52.0938H128.59C128.59 51.5547 128.715 51.043 128.965 50.5586C129.215 50.0742 129.578 49.6484 130.055 49.2812C130.531 48.9062 131.098 48.6133 131.754 48.4023C132.418 48.1914 133.16 48.0859 133.98 48.0859C134.965 48.0859 135.84 48.25 136.605 48.5781C137.371 48.9062 137.973 49.3984 138.41 50.0547C138.855 50.7109 139.078 51.5312 139.078 52.5156V57.9414C139.078 58.6367 139.121 59.207 139.207 59.6523C139.293 60.0898 139.418 60.4727 139.582 60.8008V61H136.172C136.008 60.6562 135.883 60.2266 135.797 59.7109C135.719 59.1875 135.68 58.6641 135.68 58.1406ZM136.125 53.2773L136.148 55.1875H134.262C133.816 55.1875 133.43 55.2383 133.102 55.3398C132.773 55.4414 132.504 55.5859 132.293 55.7734C132.082 55.9531 131.926 56.1641 131.824 56.4062C131.73 56.6484 131.684 56.9141 131.684 57.2031C131.684 57.4922 131.75 57.7539 131.883 57.9883C132.016 58.2148 132.207 58.3945 132.457 58.5273C132.707 58.6523 133 58.7148 133.336 58.7148C133.844 58.7148 134.285 58.6133 134.66 58.4102C135.035 58.207 135.324 57.957 135.527 57.6602C135.738 57.3633 135.848 57.082 135.855 56.8164L136.746 58.2461C136.621 58.5664 136.449 58.8984 136.23 59.2422C136.02 59.5859 135.75 59.9102 135.422 60.2148C135.094 60.5117 134.699 60.7578 134.238 60.9531C133.777 61.1406 133.23 61.2344 132.598 61.2344C131.793 61.2344 131.062 61.0742 130.406 60.7539C129.758 60.4258 129.242 59.9766 128.859 59.4062C128.484 58.8281 128.297 58.1719 128.297 57.4375C128.297 56.7734 128.422 56.1836 128.672 55.668C128.922 55.1523 129.289 54.7188 129.773 54.3672C130.266 54.0078 130.879 53.7383 131.613 53.5586C132.348 53.3711 133.199 53.2773 134.168 53.2773H136.125ZM144.984 51.0273V61H141.609V48.3203H144.773L144.984 51.0273ZM144.492 54.2148H143.578C143.578 53.2773 143.699 52.4336 143.941 51.6836C144.184 50.9258 144.523 50.2812 144.961 49.75C145.398 49.2109 145.918 48.8008 146.52 48.5195C147.129 48.2305 147.809 48.0859 148.559 48.0859C149.152 48.0859 149.695 48.1719 150.188 48.3438C150.68 48.5156 151.102 48.7891 151.453 49.1641C151.812 49.5391 152.086 50.0352 152.273 50.6523C152.469 51.2695 152.566 52.0234 152.566 52.9141V61H149.168V52.9023C149.168 52.3398 149.09 51.9023 148.934 51.5898C148.777 51.2773 148.547 51.0586 148.242 50.9336C147.945 50.8008 147.578 50.7344 147.141 50.7344C146.688 50.7344 146.293 50.8242 145.957 51.0039C145.629 51.1836 145.355 51.4336 145.137 51.7539C144.926 52.0664 144.766 52.4336 144.656 52.8555C144.547 53.2773 144.492 53.7305 144.492 54.2148ZM160.371 58.5977C160.785 58.5977 161.152 58.5195 161.473 58.3633C161.793 58.1992 162.043 57.9727 162.223 57.6836C162.41 57.3867 162.508 57.0391 162.516 56.6406H165.691C165.684 57.5312 165.445 58.3242 164.977 59.0195C164.508 59.707 163.879 60.25 163.09 60.6484C162.301 61.0391 161.418 61.2344 160.441 61.2344C159.457 61.2344 158.598 61.0703 157.863 60.7422C157.137 60.4141 156.531 59.9609 156.047 59.3828C155.562 58.7969 155.199 58.1172 154.957 57.3438C154.715 56.5625 154.594 55.7266 154.594 54.8359V54.4961C154.594 53.5977 154.715 52.7617 154.957 51.9883C155.199 51.207 155.562 50.5273 156.047 49.9492C156.531 49.3633 157.137 48.9062 157.863 48.5781C158.59 48.25 159.441 48.0859 160.418 48.0859C161.457 48.0859 162.367 48.2852 163.148 48.6836C163.938 49.082 164.555 49.6523 165 50.3945C165.453 51.1289 165.684 52 165.691 53.0078H162.516C162.508 52.5859 162.418 52.2031 162.246 51.8594C162.082 51.5156 161.84 51.2422 161.52 51.0391C161.207 50.8281 160.82 50.7227 160.359 50.7227C159.867 50.7227 159.465 50.8281 159.152 51.0391C158.84 51.2422 158.598 51.5234 158.426 51.8828C158.254 52.2344 158.133 52.6367 158.062 53.0898C158 53.5352 157.969 54.0039 157.969 54.4961V54.8359C157.969 55.3281 158 55.8008 158.062 56.2539C158.125 56.707 158.242 57.1094 158.414 57.4609C158.594 57.8125 158.84 58.0898 159.152 58.293C159.465 58.4961 159.871 58.5977 160.371 58.5977ZM173.484 61.2344C172.5 61.2344 171.617 61.0781 170.836 60.7656C170.055 60.4453 169.391 60.0039 168.844 59.4414C168.305 58.8789 167.891 58.2266 167.602 57.4844C167.312 56.7344 167.168 55.9375 167.168 55.0938V54.625C167.168 53.6641 167.305 52.7852 167.578 51.9883C167.852 51.1914 168.242 50.5 168.75 49.9141C169.266 49.3281 169.891 48.8789 170.625 48.5664C171.359 48.2461 172.188 48.0859 173.109 48.0859C174.008 48.0859 174.805 48.2344 175.5 48.5312C176.195 48.8281 176.777 49.25 177.246 49.7969C177.723 50.3438 178.082 51 178.324 51.7656C178.566 52.5234 178.688 53.3672 178.688 54.2969V55.7031H168.609V53.4531H175.371V53.1953C175.371 52.7266 175.285 52.3086 175.113 51.9414C174.949 51.5664 174.699 51.2695 174.363 51.0508C174.027 50.832 173.598 50.7227 173.074 50.7227C172.629 50.7227 172.246 50.8203 171.926 51.0156C171.605 51.2109 171.344 51.4844 171.141 51.8359C170.945 52.1875 170.797 52.6016 170.695 53.0781C170.602 53.5469 170.555 54.0625 170.555 54.625V55.0938C170.555 55.6016 170.625 56.0703 170.766 56.5C170.914 56.9297 171.121 57.3008 171.387 57.6133C171.66 57.9258 171.988 58.168 172.371 58.3398C172.762 58.5117 173.203 58.5977 173.695 58.5977C174.305 58.5977 174.871 58.4805 175.395 58.2461C175.926 58.0039 176.383 57.6406 176.766 57.1562L178.406 58.9375C178.141 59.3203 177.777 59.6875 177.316 60.0391C176.863 60.3906 176.316 60.6797 175.676 60.9062C175.035 61.125 174.305 61.2344 173.484 61.2344ZM187.5 53.5117H183.117L183.094 51.0977H186.773C187.422 51.0977 187.953 51.0156 188.367 50.8516C188.781 50.6797 189.09 50.4336 189.293 50.1133C189.504 49.7852 189.609 49.3867 189.609 48.918C189.609 48.3867 189.508 47.957 189.305 47.6289C189.109 47.3008 188.801 47.0625 188.379 46.9141C187.965 46.7656 187.43 46.6914 186.773 46.6914H184.336V61H180.82V43.9375H186.773C187.766 43.9375 188.652 44.0312 189.434 44.2188C190.223 44.4062 190.891 44.6914 191.438 45.0742C191.984 45.457 192.402 45.9414 192.691 46.5273C192.98 47.1055 193.125 47.793 193.125 48.5898C193.125 49.293 192.965 49.9414 192.645 50.5352C192.332 51.1289 191.836 51.6133 191.156 51.9883C190.484 52.3633 189.605 52.5703 188.52 52.6094L187.5 53.5117ZM187.348 61H182.156L183.527 58.2578H187.348C187.965 58.2578 188.469 58.1602 188.859 57.9648C189.25 57.7617 189.539 57.4883 189.727 57.1445C189.914 56.8008 190.008 56.4062 190.008 55.9609C190.008 55.4609 189.922 55.0273 189.75 54.6602C189.586 54.293 189.32 54.0117 188.953 53.8164C188.586 53.6133 188.102 53.5117 187.5 53.5117H184.113L184.137 51.0977H188.355L189.164 52.0469C190.203 52.0312 191.039 52.2148 191.672 52.5977C192.312 52.9727 192.777 53.4609 193.066 54.0625C193.363 54.6641 193.512 55.3086 193.512 55.9961C193.512 57.0898 193.273 58.0117 192.797 58.7617C192.32 59.5039 191.621 60.0625 190.699 60.4375C189.785 60.8125 188.668 61 187.348 61ZM201.773 61.2344C200.789 61.2344 199.906 61.0781 199.125 60.7656C198.344 60.4453 197.68 60.0039 197.133 59.4414C196.594 58.8789 196.18 58.2266 195.891 57.4844C195.602 56.7344 195.457 55.9375 195.457 55.0938V54.625C195.457 53.6641 195.594 52.7852 195.867 51.9883C196.141 51.1914 196.531 50.5 197.039 49.9141C197.555 49.3281 198.18 48.8789 198.914 48.5664C199.648 48.2461 200.477 48.0859 201.398 48.0859C202.297 48.0859 203.094 48.2344 203.789 48.5312C204.484 48.8281 205.066 49.25 205.535 49.7969C206.012 50.3438 206.371 51 206.613 51.7656C206.855 52.5234 206.977 53.3672 206.977 54.2969V55.7031H196.898V53.4531H203.66V53.1953C203.66 52.7266 203.574 52.3086 203.402 51.9414C203.238 51.5664 202.988 51.2695 202.652 51.0508C202.316 50.832 201.887 50.7227 201.363 50.7227C200.918 50.7227 200.535 50.8203 200.215 51.0156C199.895 51.2109 199.633 51.4844 199.43 51.8359C199.234 52.1875 199.086 52.6016 198.984 53.0781C198.891 53.5469 198.844 54.0625 198.844 54.625V55.0938C198.844 55.6016 198.914 56.0703 199.055 56.5C199.203 56.9297 199.41 57.3008 199.676 57.6133C199.949 57.9258 200.277 58.168 200.66 58.3398C201.051 58.5117 201.492 58.5977 201.984 58.5977C202.594 58.5977 203.16 58.4805 203.684 58.2461C204.215 58.0039 204.672 57.6406 205.055 57.1562L206.695 58.9375C206.43 59.3203 206.066 59.6875 205.605 60.0391C205.152 60.3906 204.605 60.6797 203.965 60.9062C203.324 61.125 202.594 61.2344 201.773 61.2344ZM215.742 58.1406V52.4922C215.742 52.0859 215.676 51.7383 215.543 51.4492C215.41 51.1523 215.203 50.9219 214.922 50.7578C214.648 50.5938 214.293 50.5117 213.855 50.5117C213.48 50.5117 213.156 50.5781 212.883 50.7109C212.609 50.8359 212.398 51.0195 212.25 51.2617C212.102 51.4961 212.027 51.7734 212.027 52.0938H208.652C208.652 51.5547 208.777 51.043 209.027 50.5586C209.277 50.0742 209.641 49.6484 210.117 49.2812C210.594 48.9062 211.16 48.6133 211.816 48.4023C212.48 48.1914 213.223 48.0859 214.043 48.0859C215.027 48.0859 215.902 48.25 216.668 48.5781C217.434 48.9062 218.035 49.3984 218.473 50.0547C218.918 50.7109 219.141 51.5312 219.141 52.5156V57.9414C219.141 58.6367 219.184 59.207 219.27 59.6523C219.355 60.0898 219.48 60.4727 219.645 60.8008V61H216.234C216.07 60.6562 215.945 60.2266 215.859 59.7109C215.781 59.1875 215.742 58.6641 215.742 58.1406ZM216.188 53.2773L216.211 55.1875H214.324C213.879 55.1875 213.492 55.2383 213.164 55.3398C212.836 55.4414 212.566 55.5859 212.355 55.7734C212.145 55.9531 211.988 56.1641 211.887 56.4062C211.793 56.6484 211.746 56.9141 211.746 57.2031C211.746 57.4922 211.812 57.7539 211.945 57.9883C212.078 58.2148 212.27 58.3945 212.52 58.5273C212.77 58.6523 213.062 58.7148 213.398 58.7148C213.906 58.7148 214.348 58.6133 214.723 58.4102C215.098 58.207 215.387 57.957 215.59 57.6602C215.801 57.3633 215.91 57.082 215.918 56.8164L216.809 58.2461C216.684 58.5664 216.512 58.8984 216.293 59.2422C216.082 59.5859 215.812 59.9102 215.484 60.2148C215.156 60.5117 214.762 60.7578 214.301 60.9531C213.84 61.1406 213.293 61.2344 212.66 61.2344C211.855 61.2344 211.125 61.0742 210.469 60.7539C209.82 60.4258 209.305 59.9766 208.922 59.4062C208.547 58.8281 208.359 58.1719 208.359 57.4375C208.359 56.7734 208.484 56.1836 208.734 55.668C208.984 55.1523 209.352 54.7188 209.836 54.3672C210.328 54.0078 210.941 53.7383 211.676 53.5586C212.41 53.3711 213.262 53.2773 214.23 53.2773H216.188ZM225.117 50.9453V61H221.73V48.3203H224.906L225.117 50.9453ZM224.648 54.2148H223.711C223.711 53.332 223.816 52.5195 224.027 51.7773C224.246 51.0273 224.562 50.3789 224.977 49.832C225.398 49.2773 225.918 48.8477 226.535 48.543C227.152 48.2383 227.867 48.0859 228.68 48.0859C229.242 48.0859 229.758 48.1719 230.227 48.3438C230.695 48.5078 231.098 48.7695 231.434 49.1289C231.777 49.4805 232.043 49.9414 232.23 50.5117C232.418 51.0742 232.512 51.75 232.512 52.5391V61H229.137V52.9141C229.137 52.3359 229.059 51.8906 228.902 51.5781C228.746 51.2656 228.523 51.0469 228.234 50.9219C227.953 50.7969 227.613 50.7344 227.215 50.7344C226.777 50.7344 226.395 50.8242 226.066 51.0039C225.746 51.1836 225.48 51.4336 225.27 51.7539C225.059 52.0664 224.902 52.4336 224.801 52.8555C224.699 53.2773 224.648 53.7305 224.648 54.2148ZM232.195 53.8281L230.988 53.9805C230.988 53.1523 231.09 52.3828 231.293 51.6719C231.504 50.9609 231.812 50.3359 232.219 49.7969C232.633 49.2578 233.145 48.8398 233.754 48.543C234.363 48.2383 235.066 48.0859 235.863 48.0859C236.473 48.0859 237.027 48.1758 237.527 48.3555C238.027 48.5273 238.453 48.8047 238.805 49.1875C239.164 49.5625 239.438 50.0547 239.625 50.6641C239.82 51.2734 239.918 52.0195 239.918 52.9023V61H236.531V52.9023C236.531 52.3164 236.453 51.8711 236.297 51.5664C236.148 51.2539 235.93 51.0391 235.641 50.9219C235.359 50.7969 235.023 50.7344 234.633 50.7344C234.227 50.7344 233.871 50.8164 233.566 50.9805C233.262 51.1367 233.008 51.3555 232.805 51.6367C232.602 51.918 232.449 52.2461 232.348 52.6211C232.246 52.9883 232.195 53.3906 232.195 53.8281Z" fill="#888888"/>
<path d="M106.688 119H99.1172L99.1641 112.672H106.688C108.25 112.672 109.57 112.297 110.648 111.547C111.742 110.797 112.57 109.68 113.133 108.195C113.711 106.695 114 104.852 114 102.664V101.188C114 99.5469 113.836 98.1094 113.508 96.875C113.195 95.625 112.727 94.5859 112.102 93.7578C111.477 92.9141 110.695 92.2812 109.758 91.8594C108.836 91.4375 107.773 91.2266 106.57 91.2266H98.9766V84.875H106.57C108.883 84.875 111 85.2734 112.922 86.0703C114.859 86.8516 116.531 87.9766 117.938 89.4453C119.359 90.8984 120.453 92.625 121.219 94.625C122 96.6094 122.391 98.8125 122.391 101.234V102.664C122.391 105.07 122 107.273 121.219 109.273C120.453 111.273 119.367 113 117.961 114.453C116.555 115.906 114.891 117.031 112.969 117.828C111.062 118.609 108.969 119 106.688 119ZM103.828 84.875V119H95.6016V84.875H103.828ZM139.477 112.625V102.172C139.477 101.453 139.375 100.836 139.172 100.32C138.969 99.8047 138.648 99.4062 138.211 99.125C137.773 98.8281 137.188 98.6797 136.453 98.6797C135.859 98.6797 135.352 98.7812 134.93 98.9844C134.508 99.1875 134.188 99.4922 133.969 99.8984C133.75 100.305 133.641 100.82 133.641 101.445H125.742C125.742 100.273 126 99.1875 126.516 98.1875C127.047 97.1719 127.797 96.2891 128.766 95.5391C129.75 94.7891 130.922 94.2109 132.281 93.8047C133.656 93.3828 135.188 93.1719 136.875 93.1719C138.891 93.1719 140.688 93.5078 142.266 94.1797C143.859 94.8516 145.117 95.8594 146.039 97.2031C146.961 98.5312 147.422 100.203 147.422 102.219V112.602C147.422 114.258 147.516 115.516 147.703 116.375C147.891 117.219 148.156 117.961 148.5 118.602V119H140.578C140.203 118.219 139.922 117.266 139.734 116.141C139.562 115 139.477 113.828 139.477 112.625ZM140.438 103.508L140.484 107.727H136.992C136.258 107.727 135.633 107.828 135.117 108.031C134.617 108.234 134.211 108.516 133.898 108.875C133.602 109.219 133.383 109.609 133.242 110.047C133.117 110.484 133.055 110.945 133.055 111.43C133.055 111.898 133.164 112.32 133.383 112.695C133.617 113.055 133.93 113.336 134.32 113.539C134.711 113.742 135.148 113.844 135.633 113.844C136.508 113.844 137.25 113.68 137.859 113.352C138.484 113.008 138.961 112.594 139.289 112.109C139.617 111.625 139.781 111.172 139.781 110.75L141.516 113.984C141.203 114.609 140.844 115.242 140.438 115.883C140.047 116.523 139.555 117.117 138.961 117.664C138.383 118.195 137.672 118.633 136.828 118.977C135.984 119.305 134.961 119.469 133.758 119.469C132.195 119.469 130.758 119.148 129.445 118.508C128.148 117.867 127.109 116.977 126.328 115.836C125.547 114.68 125.156 113.352 125.156 111.852C125.156 110.539 125.391 109.367 125.859 108.336C126.344 107.305 127.07 106.43 128.039 105.711C129.008 104.992 130.242 104.445 131.742 104.07C133.242 103.695 135.008 103.508 137.039 103.508H140.438ZM165.164 93.6406V99.125H149.883V93.6406H165.164ZM153.094 87.3359H160.992V110.727C160.992 111.398 161.07 111.922 161.227 112.297C161.383 112.656 161.648 112.914 162.023 113.07C162.414 113.211 162.93 113.281 163.57 113.281C164.023 113.281 164.398 113.273 164.695 113.258C164.992 113.227 165.273 113.188 165.539 113.141V118.789C164.867 119.008 164.164 119.172 163.43 119.281C162.695 119.406 161.914 119.469 161.086 119.469C159.398 119.469 157.953 119.203 156.75 118.672C155.562 118.141 154.656 117.305 154.031 116.164C153.406 115.023 153.094 113.539 153.094 111.711V87.3359ZM181.477 112.625V102.172C181.477 101.453 181.375 100.836 181.172 100.32C180.969 99.8047 180.648 99.4062 180.211 99.125C179.773 98.8281 179.188 98.6797 178.453 98.6797C177.859 98.6797 177.352 98.7812 176.93 98.9844C176.508 99.1875 176.188 99.4922 175.969 99.8984C175.75 100.305 175.641 100.82 175.641 101.445H167.742C167.742 100.273 168 99.1875 168.516 98.1875C169.047 97.1719 169.797 96.2891 170.766 95.5391C171.75 94.7891 172.922 94.2109 174.281 93.8047C175.656 93.3828 177.188 93.1719 178.875 93.1719C180.891 93.1719 182.688 93.5078 184.266 94.1797C185.859 94.8516 187.117 95.8594 188.039 97.2031C188.961 98.5312 189.422 100.203 189.422 102.219V112.602C189.422 114.258 189.516 115.516 189.703 116.375C189.891 117.219 190.156 117.961 190.5 118.602V119H182.578C182.203 118.219 181.922 117.266 181.734 116.141C181.562 115 181.477 113.828 181.477 112.625ZM182.438 103.508L182.484 107.727H178.992C178.258 107.727 177.633 107.828 177.117 108.031C176.617 108.234 176.211 108.516 175.898 108.875C175.602 109.219 175.383 109.609 175.242 110.047C175.117 110.484 175.055 110.945 175.055 111.43C175.055 111.898 175.164 112.32 175.383 112.695C175.617 113.055 175.93 113.336 176.32 113.539C176.711 113.742 177.148 113.844 177.633 113.844C178.508 113.844 179.25 113.68 179.859 113.352C180.484 113.008 180.961 112.594 181.289 112.109C181.617 111.625 181.781 111.172 181.781 110.75L183.516 113.984C183.203 114.609 182.844 115.242 182.438 115.883C182.047 116.523 181.555 117.117 180.961 117.664C180.383 118.195 179.672 118.633 178.828 118.977C177.984 119.305 176.961 119.469 175.758 119.469C174.195 119.469 172.758 119.148 171.445 118.508C170.148 117.867 169.109 116.977 168.328 115.836C167.547 114.68 167.156 113.352 167.156 111.852C167.156 110.539 167.391 109.367 167.859 108.336C168.344 107.305 169.07 106.43 170.039 105.711C171.008 104.992 172.242 104.445 173.742 104.07C175.242 103.695 177.008 103.508 179.039 103.508H182.438ZM193.875 83H201.773V112.766L200.953 119H193.875V83ZM217.336 106.039V106.531C217.336 108.453 217.141 110.203 216.75 111.781C216.359 113.359 215.758 114.727 214.945 115.883C214.133 117.023 213.109 117.906 211.875 118.531C210.641 119.156 209.18 119.469 207.492 119.469C205.961 119.469 204.648 119.141 203.555 118.484C202.461 117.812 201.547 116.891 200.812 115.719C200.078 114.531 199.484 113.164 199.031 111.617C198.578 110.055 198.219 108.383 197.953 106.602V106.016C198.219 104.25 198.578 102.594 199.031 101.047C199.484 99.4844 200.078 98.1172 200.812 96.9453C201.547 95.7578 202.453 94.8359 203.531 94.1797C204.625 93.5078 205.93 93.1719 207.445 93.1719C209.148 93.1719 210.617 93.4922 211.852 94.1328C213.102 94.7734 214.133 95.6719 214.945 96.8281C215.758 97.9844 216.359 99.3438 216.75 100.906C217.141 102.469 217.336 104.18 217.336 106.039ZM209.438 106.531V106.039C209.438 105.117 209.383 104.25 209.273 103.438C209.164 102.625 208.969 101.906 208.688 101.281C208.406 100.656 208.008 100.164 207.492 99.8047C206.977 99.4453 206.305 99.2656 205.477 99.2656C204.633 99.2656 203.922 99.4062 203.344 99.6875C202.781 99.9688 202.328 100.375 201.984 100.906C201.656 101.422 201.422 102.062 201.281 102.828C201.141 103.578 201.078 104.43 201.094 105.383V107.234C201.062 108.531 201.18 109.641 201.445 110.562C201.711 111.484 202.172 112.188 202.828 112.672C203.484 113.156 204.383 113.398 205.523 113.398C206.367 113.398 207.047 113.234 207.562 112.906C208.094 112.578 208.492 112.109 208.758 111.5C209.023 110.891 209.203 110.164 209.297 109.32C209.391 108.477 209.438 107.547 209.438 106.531ZM234.023 112.625V102.172C234.023 101.453 233.922 100.836 233.719 100.32C233.516 99.8047 233.195 99.4062 232.758 99.125C232.32 98.8281 231.734 98.6797 231 98.6797C230.406 98.6797 229.898 98.7812 229.477 98.9844C229.055 99.1875 228.734 99.4922 228.516 99.8984C228.297 100.305 228.188 100.82 228.188 101.445H220.289C220.289 100.273 220.547 99.1875 221.062 98.1875C221.594 97.1719 222.344 96.2891 223.312 95.5391C224.297 94.7891 225.469 94.2109 226.828 93.8047C228.203 93.3828 229.734 93.1719 231.422 93.1719C233.438 93.1719 235.234 93.5078 236.812 94.1797C238.406 94.8516 239.664 95.8594 240.586 97.2031C241.508 98.5312 241.969 100.203 241.969 102.219V112.602C241.969 114.258 242.062 115.516 242.25 116.375C242.438 117.219 242.703 117.961 243.047 118.602V119H235.125C234.75 118.219 234.469 117.266 234.281 116.141C234.109 115 234.023 113.828 234.023 112.625ZM234.984 103.508L235.031 107.727H231.539C230.805 107.727 230.18 107.828 229.664 108.031C229.164 108.234 228.758 108.516 228.445 108.875C228.148 109.219 227.93 109.609 227.789 110.047C227.664 110.484 227.602 110.945 227.602 111.43C227.602 111.898 227.711 112.32 227.93 112.695C228.164 113.055 228.477 113.336 228.867 113.539C229.258 113.742 229.695 113.844 230.18 113.844C231.055 113.844 231.797 113.68 232.406 113.352C233.031 113.008 233.508 112.594 233.836 112.109C234.164 111.625 234.328 111.172 234.328 110.75L236.062 113.984C235.75 114.609 235.391 115.242 234.984 115.883C234.594 116.523 234.102 117.117 233.508 117.664C232.93 118.195 232.219 118.633 231.375 118.977C230.531 119.305 229.508 119.469 228.305 119.469C226.742 119.469 225.305 119.148 223.992 118.508C222.695 117.867 221.656 116.977 220.875 115.836C220.094 114.68 219.703 113.352 219.703 111.852C219.703 110.539 219.938 109.367 220.406 108.336C220.891 107.305 221.617 106.43 222.586 105.711C223.555 104.992 224.789 104.445 226.289 104.07C227.789 103.695 229.555 103.508 231.586 103.508H234.984ZM259.641 111.875C259.641 111.438 259.492 111.062 259.195 110.75C258.914 110.422 258.414 110.125 257.695 109.859C256.977 109.578 255.969 109.297 254.672 109.016C253.438 108.75 252.273 108.398 251.18 107.961C250.102 107.523 249.156 106.992 248.344 106.367C247.531 105.742 246.891 105 246.422 104.141C245.969 103.281 245.742 102.297 245.742 101.188C245.742 100.109 245.969 99.0938 246.422 98.1406C246.891 97.1719 247.57 96.3203 248.461 95.5859C249.367 94.8359 250.469 94.25 251.766 93.8281C253.062 93.3906 254.539 93.1719 256.195 93.1719C258.477 93.1719 260.445 93.5234 262.102 94.2266C263.758 94.9141 265.031 95.8828 265.922 97.1328C266.828 98.3672 267.281 99.7969 267.281 101.422H259.383C259.383 100.781 259.273 100.234 259.055 99.7812C258.852 99.3281 258.516 98.9844 258.047 98.75C257.578 98.5 256.953 98.375 256.172 98.375C255.625 98.375 255.125 98.4766 254.672 98.6797C254.234 98.8828 253.883 99.1641 253.617 99.5234C253.352 99.8828 253.219 100.305 253.219 100.789C253.219 101.133 253.297 101.445 253.453 101.727C253.625 101.992 253.883 102.242 254.227 102.477C254.57 102.695 255.008 102.898 255.539 103.086C256.07 103.258 256.711 103.414 257.461 103.555C259.164 103.867 260.758 104.312 262.242 104.891C263.727 105.469 264.93 106.289 265.852 107.352C266.789 108.414 267.258 109.844 267.258 111.641C267.258 112.766 267 113.805 266.484 114.758C265.969 115.695 265.227 116.523 264.258 117.242C263.289 117.945 262.125 118.492 260.766 118.883C259.406 119.273 257.875 119.469 256.172 119.469C253.75 119.469 251.703 119.039 250.031 118.18C248.359 117.305 247.094 116.211 246.234 114.898C245.391 113.57 244.969 112.227 244.969 110.867H252.328C252.359 111.648 252.547 112.289 252.891 112.789C253.25 113.289 253.727 113.656 254.32 113.891C254.914 114.125 255.602 114.242 256.383 114.242C257.102 114.242 257.695 114.141 258.164 113.938C258.648 113.734 259.016 113.461 259.266 113.117C259.516 112.758 259.641 112.344 259.641 111.875ZM283.242 119.469C281.18 119.469 279.336 119.148 277.711 118.508C276.086 117.852 274.711 116.953 273.586 115.812C272.477 114.672 271.625 113.359 271.031 111.875C270.453 110.391 270.164 108.82 270.164 107.164V106.273C270.164 104.414 270.422 102.695 270.938 101.117C271.453 99.5234 272.219 98.1328 273.234 96.9453C274.25 95.7578 275.523 94.8359 277.055 94.1797C278.586 93.5078 280.367 93.1719 282.398 93.1719C284.195 93.1719 285.805 93.4609 287.227 94.0391C288.648 94.6172 289.852 95.4453 290.836 96.5234C291.836 97.6016 292.594 98.9062 293.109 100.438C293.641 101.969 293.906 103.688 293.906 105.594V108.805H273.188V103.859H286.195V103.25C286.211 102.406 286.062 101.688 285.75 101.094C285.453 100.5 285.016 100.047 284.438 99.7344C283.859 99.4219 283.156 99.2656 282.328 99.2656C281.469 99.2656 280.758 99.4531 280.195 99.8281C279.648 100.203 279.219 100.719 278.906 101.375C278.609 102.016 278.398 102.758 278.273 103.602C278.148 104.445 278.086 105.336 278.086 106.273V107.164C278.086 108.102 278.211 108.953 278.461 109.719C278.727 110.484 279.102 111.141 279.586 111.688C280.086 112.219 280.68 112.633 281.367 112.93C282.07 113.227 282.867 113.375 283.758 113.375C284.836 113.375 285.898 113.172 286.945 112.766C287.992 112.359 288.891 111.688 289.641 110.75L293.227 115.016C292.711 115.75 291.977 116.461 291.023 117.148C290.086 117.836 288.961 118.398 287.648 118.836C286.336 119.258 284.867 119.469 283.242 119.469ZM320.531 119H312.961L313.008 112.672H320.531C322.094 112.672 323.414 112.297 324.492 111.547C325.586 110.797 326.414 109.68 326.977 108.195C327.555 106.695 327.844 104.852 327.844 102.664V101.188C327.844 99.5469 327.68 98.1094 327.352 96.875C327.039 95.625 326.57 94.5859 325.945 93.7578C325.32 92.9141 324.539 92.2812 323.602 91.8594C322.68 91.4375 321.617 91.2266 320.414 91.2266H312.82V84.875H320.414C322.727 84.875 324.844 85.2734 326.766 86.0703C328.703 86.8516 330.375 87.9766 331.781 89.4453C333.203 90.8984 334.297 92.625 335.062 94.625C335.844 96.6094 336.234 98.8125 336.234 101.234V102.664C336.234 105.07 335.844 107.273 335.062 109.273C334.297 111.273 333.211 113 331.805 114.453C330.398 115.906 328.734 117.031 326.812 117.828C324.906 118.609 322.812 119 320.531 119ZM317.672 84.875V119H309.445V84.875H317.672ZM352.43 119.469C350.367 119.469 348.523 119.148 346.898 118.508C345.273 117.852 343.898 116.953 342.773 115.812C341.664 114.672 340.812 113.359 340.219 111.875C339.641 110.391 339.352 108.82 339.352 107.164V106.273C339.352 104.414 339.609 102.695 340.125 101.117C340.641 99.5234 341.406 98.1328 342.422 96.9453C343.438 95.7578 344.711 94.8359 346.242 94.1797C347.773 93.5078 349.555 93.1719 351.586 93.1719C353.383 93.1719 354.992 93.4609 356.414 94.0391C357.836 94.6172 359.039 95.4453 360.023 96.5234C361.023 97.6016 361.781 98.9062 362.297 100.438C362.828 101.969 363.094 103.688 363.094 105.594V108.805H342.375V103.859H355.383V103.25C355.398 102.406 355.25 101.688 354.938 101.094C354.641 100.5 354.203 100.047 353.625 99.7344C353.047 99.4219 352.344 99.2656 351.516 99.2656C350.656 99.2656 349.945 99.4531 349.383 99.8281C348.836 100.203 348.406 100.719 348.094 101.375C347.797 102.016 347.586 102.758 347.461 103.602C347.336 104.445 347.273 105.336 347.273 106.273V107.164C347.273 108.102 347.398 108.953 347.648 109.719C347.914 110.484 348.289 111.141 348.773 111.688C349.273 112.219 349.867 112.633 350.555 112.93C351.258 113.227 352.055 113.375 352.945 113.375C354.023 113.375 355.086 113.172 356.133 112.766C357.18 112.359 358.078 111.688 358.828 110.75L362.414 115.016C361.898 115.75 361.164 116.461 360.211 117.148C359.273 117.836 358.148 118.398 356.836 118.836C355.523 119.258 354.055 119.469 352.43 119.469ZM379.594 111.875C379.594 111.438 379.445 111.062 379.148 110.75C378.867 110.422 378.367 110.125 377.648 109.859C376.93 109.578 375.922 109.297 374.625 109.016C373.391 108.75 372.227 108.398 371.133 107.961C370.055 107.523 369.109 106.992 368.297 106.367C367.484 105.742 366.844 105 366.375 104.141C365.922 103.281 365.695 102.297 365.695 101.188C365.695 100.109 365.922 99.0938 366.375 98.1406C366.844 97.1719 367.523 96.3203 368.414 95.5859C369.32 94.8359 370.422 94.25 371.719 93.8281C373.016 93.3906 374.492 93.1719 376.148 93.1719C378.43 93.1719 380.398 93.5234 382.055 94.2266C383.711 94.9141 384.984 95.8828 385.875 97.1328C386.781 98.3672 387.234 99.7969 387.234 101.422H379.336C379.336 100.781 379.227 100.234 379.008 99.7812C378.805 99.3281 378.469 98.9844 378 98.75C377.531 98.5 376.906 98.375 376.125 98.375C375.578 98.375 375.078 98.4766 374.625 98.6797C374.188 98.8828 373.836 99.1641 373.57 99.5234C373.305 99.8828 373.172 100.305 373.172 100.789C373.172 101.133 373.25 101.445 373.406 101.727C373.578 101.992 373.836 102.242 374.18 102.477C374.523 102.695 374.961 102.898 375.492 103.086C376.023 103.258 376.664 103.414 377.414 103.555C379.117 103.867 380.711 104.312 382.195 104.891C383.68 105.469 384.883 106.289 385.805 107.352C386.742 108.414 387.211 109.844 387.211 111.641C387.211 112.766 386.953 113.805 386.438 114.758C385.922 115.695 385.18 116.523 384.211 117.242C383.242 117.945 382.078 118.492 380.719 118.883C379.359 119.273 377.828 119.469 376.125 119.469C373.703 119.469 371.656 119.039 369.984 118.18C368.312 117.305 367.047 116.211 366.188 114.898C365.344 113.57 364.922 112.227 364.922 110.867H372.281C372.312 111.648 372.5 112.289 372.844 112.789C373.203 113.289 373.68 113.656 374.273 113.891C374.867 114.125 375.555 114.242 376.336 114.242C377.055 114.242 377.648 114.141 378.117 113.938C378.602 113.734 378.969 113.461 379.219 113.117C379.469 112.758 379.594 112.344 379.594 111.875ZM399.258 93.6406V119H391.336V93.6406H399.258ZM390.867 87.1016C390.867 85.9766 391.273 85.0547 392.086 84.3359C392.898 83.6172 393.953 83.2578 395.25 83.2578C396.547 83.2578 397.602 83.6172 398.414 84.3359C399.227 85.0547 399.633 85.9766 399.633 87.1016C399.633 88.2266 399.227 89.1484 398.414 89.8672C397.602 90.5859 396.547 90.9453 395.25 90.9453C393.953 90.9453 392.898 90.5859 392.086 89.8672C391.273 89.1484 390.867 88.2266 390.867 87.1016ZM420.07 93.6406H427.242V118.016C427.242 120.359 426.703 122.344 425.625 123.969C424.547 125.609 423.039 126.852 421.102 127.695C419.18 128.555 416.93 128.984 414.352 128.984C413.211 128.984 412.047 128.836 410.859 128.539C409.672 128.258 408.562 127.836 407.531 127.273C406.5 126.711 405.633 126.016 404.93 125.188L408.234 120.547C408.875 121.266 409.68 121.875 410.648 122.375C411.617 122.891 412.758 123.148 414.07 123.148C415.211 123.148 416.164 122.945 416.93 122.539C417.711 122.133 418.305 121.539 418.711 120.758C419.117 119.992 419.32 119.062 419.32 117.969V99.6406L420.07 93.6406ZM403.219 106.625V106.133C403.219 104.211 403.453 102.461 403.922 100.883C404.406 99.2891 405.094 97.9219 405.984 96.7812C406.891 95.625 407.984 94.7344 409.266 94.1094C410.547 93.4844 411.992 93.1719 413.602 93.1719C415.336 93.1719 416.758 93.5078 417.867 94.1797C418.992 94.8359 419.891 95.7578 420.562 96.9453C421.25 98.1328 421.781 99.5234 422.156 101.117C422.547 102.695 422.875 104.398 423.141 106.227V106.812C422.875 108.531 422.508 110.156 422.039 111.688C421.586 113.203 420.992 114.547 420.258 115.719C419.523 116.891 418.602 117.812 417.492 118.484C416.398 119.141 415.086 119.469 413.555 119.469C411.961 119.469 410.523 119.148 409.242 118.508C407.977 117.867 406.891 116.969 405.984 115.812C405.094 114.656 404.406 113.297 403.922 111.734C403.453 110.172 403.219 108.469 403.219 106.625ZM411.117 106.133V106.625C411.117 107.578 411.203 108.461 411.375 109.273C411.562 110.086 411.844 110.805 412.219 111.43C412.594 112.039 413.055 112.516 413.602 112.859C414.164 113.203 414.82 113.375 415.57 113.375C416.711 113.375 417.633 113.133 418.336 112.648C419.039 112.164 419.547 111.477 419.859 110.586C420.172 109.695 420.305 108.648 420.258 107.445V105.594C420.289 104.562 420.219 103.656 420.047 102.875C419.875 102.078 419.602 101.414 419.227 100.883C418.867 100.352 418.383 99.9531 417.773 99.6875C417.18 99.4062 416.461 99.2656 415.617 99.2656C414.883 99.2656 414.234 99.4375 413.672 99.7812C413.109 100.125 412.641 100.609 412.266 101.234C411.891 101.844 411.602 102.57 411.398 103.414C411.211 104.242 411.117 105.148 411.117 106.133ZM439.547 99.0547V119H431.648V93.6406H439.055L439.547 99.0547ZM438.609 105.453L436.758 105.5C436.758 103.562 436.992 101.836 437.461 100.32C437.93 98.7891 438.594 97.4922 439.453 96.4297C440.312 95.3672 441.336 94.5625 442.523 94.0156C443.727 93.4531 445.062 93.1719 446.531 93.1719C447.703 93.1719 448.773 93.3438 449.742 93.6875C450.727 94.0312 451.57 94.5859 452.273 95.3516C452.992 96.1172 453.539 97.1328 453.914 98.3984C454.305 99.6484 454.5 101.195 454.5 103.039V119H446.555V103.016C446.555 102 446.414 101.227 446.133 100.695C445.852 100.148 445.445 99.7734 444.914 99.5703C444.383 99.3672 443.734 99.2656 442.969 99.2656C442.156 99.2656 441.469 99.4219 440.906 99.7344C440.344 100.047 439.891 100.484 439.547 101.047C439.219 101.594 438.977 102.242 438.82 102.992C438.68 103.742 438.609 104.562 438.609 105.453Z" fill="black"/>
<path d="M1134 0H1348C1356.28 0 1363 6.71573 1363 15V148C1363 156.284 1356.28 163 1348 163H1134V0Z" fill="#FF6F61"/>
<path d="M1217.58 64.1667C1217.58 66.0281 1218.51 67.7419 1220.09 69.2434C1221.67 70.7429 1223.94 72.0619 1226.71 73.1553C1232.26 75.343 1239.93 76.6667 1248.5 76.6667C1257.07 76.6667 1264.74 75.343 1270.29 73.1553C1273.06 72.0619 1275.33 70.7429 1276.91 69.2434C1278.49 67.7419 1279.42 66.0281 1279.42 64.1667C1279.42 62.3052 1278.49 60.5914 1276.91 59.0899C1275.33 57.5904 1273.06 56.2714 1270.29 55.178C1264.74 52.9903 1257.07 51.6667 1248.5 51.6667C1239.93 51.6667 1232.26 52.9903 1226.71 55.178C1223.94 56.2714 1221.67 57.5904 1220.09 59.0899C1218.51 60.5914 1217.58 62.3052 1217.58 64.1667ZM1221.62 64.1667C1221.62 63.0283 1222.37 61.8878 1223.88 60.7921C1225.37 59.7041 1227.52 58.7293 1230.11 57.9144C1235.28 56.2864 1242.07 55.3333 1248.5 55.3333C1254.93 55.3333 1261.72 56.2864 1266.89 57.9144C1269.48 58.7293 1271.63 59.7041 1273.12 60.7921C1274.63 61.8878 1275.37 63.0283 1275.37 64.1667C1275.37 65.305 1274.63 66.4455 1273.12 67.5412C1271.63 68.6292 1269.48 69.604 1266.89 70.4189C1261.72 72.0469 1254.93 73 1248.5 73C1242.07 73 1235.28 72.0469 1230.11 70.4189C1227.52 69.604 1225.37 68.6292 1223.88 67.5412C1222.37 66.4455 1221.62 65.305 1221.62 64.1667Z" fill="white" stroke="white"/>
<path d="M1217.58 74.8333C1217.58 76.6948 1218.51 78.4086 1220.09 79.9101C1221.67 81.4096 1223.94 82.7286 1226.71 83.822C1232.26 86.0097 1239.93 87.3333 1248.5 87.3333C1257.07 87.3333 1264.74 86.0097 1270.29 83.822C1273.06 82.7286 1275.33 81.4096 1276.91 79.9101C1278.49 78.4086 1279.42 76.6948 1279.42 74.8333V64.1667C1279.42 63.6576 1279.19 63.1851 1278.8 62.8479C1278.42 62.5126 1277.91 62.3333 1277.4 62.3333C1276.88 62.3333 1276.37 62.5126 1275.99 62.8479C1275.61 63.1851 1275.37 63.6576 1275.37 64.1667V74.8333C1275.37 75.9717 1274.63 77.1122 1273.12 78.2079C1271.63 79.2959 1269.48 80.2707 1266.89 81.0856C1261.72 82.7136 1254.93 83.6667 1248.5 83.6667C1242.07 83.6667 1235.28 82.7136 1230.11 81.0856C1227.52 80.2707 1225.37 79.2959 1223.88 78.2079C1222.37 77.1122 1221.62 75.9717 1221.62 74.8333V64.1667C1221.62 63.6576 1221.39 63.1851 1221.01 62.8479C1220.63 62.5126 1220.12 62.3333 1219.6 62.3333C1219.09 62.3333 1218.58 62.5126 1218.2 62.8479C1217.81 63.1851 1217.58 63.6576 1217.58 64.1667V74.8333Z" fill="white" stroke="white"/>
<path d="M1217.58 86.8333C1217.58 88.6948 1218.51 90.4086 1220.09 91.9101C1221.67 93.4095 1223.94 94.7286 1226.71 95.8219C1232.26 98.0097 1239.93 99.3333 1248.5 99.3333C1257.07 99.3333 1264.74 98.0097 1270.29 95.8219C1273.06 94.7286 1275.33 93.4095 1276.91 91.9101C1278.49 90.4086 1279.42 88.6948 1279.42 86.8333V74.8333C1279.42 74.3243 1279.19 73.8517 1278.8 73.5146C1278.42 73.1792 1277.91 73 1277.4 73C1276.88 73 1276.37 73.1792 1275.99 73.5146C1275.61 73.8517 1275.37 74.3243 1275.37 74.8333V86.8333C1275.37 87.9717 1274.63 89.1122 1273.12 90.2079C1271.63 91.2958 1269.48 92.2707 1266.89 93.0856C1261.72 94.7136 1254.93 95.6667 1248.5 95.6667C1242.07 95.6667 1235.28 94.7136 1230.11 93.0856C1227.52 92.2707 1225.37 91.2958 1223.88 90.2079C1222.37 89.1122 1221.62 87.9717 1221.62 86.8333V74.8333C1221.62 74.3243 1221.39 73.8517 1221.01 73.5146C1220.63 73.1792 1220.12 73 1219.6 73C1219.09 73 1218.58 73.1792 1218.2 73.5146C1217.81 73.8517 1217.58 74.3243 1217.58 74.8333V86.8333Z" fill="white" stroke="white"/>
<path d="M1217.58 98.8333C1217.58 100.695 1218.51 102.409 1220.09 103.91C1221.67 105.41 1223.94 106.729 1226.71 107.822C1232.26 110.01 1239.93 111.333 1248.5 111.333C1257.07 111.333 1264.74 110.01 1270.29 107.822C1273.06 106.729 1275.33 105.41 1276.91 103.91C1278.49 102.409 1279.42 100.695 1279.42 98.8333V86.8333C1279.42 86.3243 1279.19 85.8517 1278.8 85.5146C1278.42 85.1792 1277.91 85 1277.4 85C1276.88 85 1276.37 85.1792 1275.99 85.5146C1275.61 85.8517 1275.37 86.3243 1275.37 86.8333V98.8333C1275.37 99.9717 1274.63 101.112 1273.12 102.208C1271.63 103.296 1269.48 104.271 1266.89 105.086C1261.72 106.714 1254.93 107.667 1248.5 107.667C1242.07 107.667 1235.28 106.714 1230.11 105.086C1227.52 104.271 1225.37 103.296 1223.88 102.208C1222.37 101.112 1221.62 99.9717 1221.62 98.8333V86.8333C1221.62 86.3243 1221.39 85.8517 1221.01 85.5146C1220.63 85.1792 1220.12 85 1219.6 85C1219.09 85 1218.58 85.1792 1218.2 85.5146C1217.81 85.8517 1217.58 86.3243 1217.58 86.8333V98.8333Z" fill="white" stroke="white"/>
</svg>
