<svg width="1363" height="163" viewBox="0 0 1363 163" fill="none" xmlns="http://www.w3.org/2000/svg">
<path d="M0 15C0 6.71573 6.71573 0 15 0H37V163H15C6.71573 163 0 156.284 0 148V15Z" fill="#424242"/>
<rect width="1097" height="163" transform="translate(37)" fill="#F0F0F0"/>
<path d="M101.906 53.9219L94.3945 51.2383V48.0859L104.602 52.375V54.6367L101.906 53.9219ZM94.3945 56.1719L101.918 53.4297L104.602 52.7852V55.0352L94.3945 59.3242V56.1719ZM119.578 53.5117H115.195L115.172 51.0977H118.852C119.5 51.0977 120.031 51.0156 120.445 50.8516C120.859 50.6797 121.168 50.4336 121.371 50.1133C121.582 49.7852 121.688 49.3867 121.688 48.918C121.688 48.3867 121.586 47.957 121.383 47.6289C121.188 47.3008 120.879 47.0625 120.457 46.9141C120.043 46.7656 119.508 46.6914 118.852 46.6914H116.414V61H112.898V43.9375H118.852C119.844 43.9375 120.73 44.0312 121.512 44.2188C122.301 44.4062 122.969 44.6914 123.516 45.0742C124.062 45.457 124.48 45.9414 124.77 46.5273C125.059 47.1055 125.203 47.793 125.203 48.5898C125.203 49.293 125.043 49.9414 124.723 50.5352C124.41 51.1289 123.914 51.6133 123.234 51.9883C122.562 52.3633 121.684 52.5703 120.598 52.6094L119.578 53.5117ZM119.426 61H114.234L115.605 58.2578H119.426C120.043 58.2578 120.547 58.1602 120.938 57.9648C121.328 57.7617 121.617 57.4883 121.805 57.1445C121.992 56.8008 122.086 56.4062 122.086 55.9609C122.086 55.4609 122 55.0273 121.828 54.6602C121.664 54.293 121.398 54.0117 121.031 53.8164C120.664 53.6133 120.18 53.5117 119.578 53.5117H116.191L116.215 51.0977H120.434L121.242 52.0469C122.281 52.0312 123.117 52.2148 123.75 52.5977C124.391 52.9727 124.855 53.4609 125.145 54.0625C125.441 54.6641 125.59 55.3086 125.59 55.9961C125.59 57.0898 125.352 58.0117 124.875 58.7617C124.398 59.5039 123.699 60.0625 122.777 60.4375C121.863 60.8125 120.746 61 119.426 61ZM134.859 58.1406V52.4922C134.859 52.0859 134.793 51.7383 134.66 51.4492C134.527 51.1523 134.32 50.9219 134.039 50.7578C133.766 50.5938 133.41 50.5117 132.973 50.5117C132.598 50.5117 132.273 50.5781 132 50.7109C131.727 50.8359 131.516 51.0195 131.367 51.2617C131.219 51.4961 131.145 51.7734 131.145 52.0938H127.77C127.77 51.5547 127.895 51.043 128.145 50.5586C128.395 50.0742 128.758 49.6484 129.234 49.2812C129.711 48.9062 130.277 48.6133 130.934 48.4023C131.598 48.1914 132.34 48.0859 133.16 48.0859C134.145 48.0859 135.02 48.25 135.785 48.5781C136.551 48.9062 137.152 49.3984 137.59 50.0547C138.035 50.7109 138.258 51.5312 138.258 52.5156V57.9414C138.258 58.6367 138.301 59.207 138.387 59.6523C138.473 60.0898 138.598 60.4727 138.762 60.8008V61H135.352C135.188 60.6562 135.062 60.2266 134.977 59.7109C134.898 59.1875 134.859 58.6641 134.859 58.1406ZM135.305 53.2773L135.328 55.1875H133.441C132.996 55.1875 132.609 55.2383 132.281 55.3398C131.953 55.4414 131.684 55.5859 131.473 55.7734C131.262 55.9531 131.105 56.1641 131.004 56.4062C130.91 56.6484 130.863 56.9141 130.863 57.2031C130.863 57.4922 130.93 57.7539 131.062 57.9883C131.195 58.2148 131.387 58.3945 131.637 58.5273C131.887 58.6523 132.18 58.7148 132.516 58.7148C133.023 58.7148 133.465 58.6133 133.84 58.4102C134.215 58.207 134.504 57.957 134.707 57.6602C134.918 57.3633 135.027 57.082 135.035 56.8164L135.926 58.2461C135.801 58.5664 135.629 58.8984 135.41 59.2422C135.199 59.5859 134.93 59.9102 134.602 60.2148C134.273 60.5117 133.879 60.7578 133.418 60.9531C132.957 61.1406 132.41 61.2344 131.777 61.2344C130.973 61.2344 130.242 61.0742 129.586 60.7539C128.938 60.4258 128.422 59.9766 128.039 59.4062C127.664 58.8281 127.477 58.1719 127.477 57.4375C127.477 56.7734 127.602 56.1836 127.852 55.668C128.102 55.1523 128.469 54.7188 128.953 54.3672C129.445 54.0078 130.059 53.7383 130.793 53.5586C131.527 53.3711 132.379 53.2773 133.348 53.2773H135.305ZM144.422 43V61H141.035V43H144.422ZM154.055 58.1406V52.4922C154.055 52.0859 153.988 51.7383 153.855 51.4492C153.723 51.1523 153.516 50.9219 153.234 50.7578C152.961 50.5938 152.605 50.5117 152.168 50.5117C151.793 50.5117 151.469 50.5781 151.195 50.7109C150.922 50.8359 150.711 51.0195 150.562 51.2617C150.414 51.4961 150.34 51.7734 150.34 52.0938H146.965C146.965 51.5547 147.09 51.043 147.34 50.5586C147.59 50.0742 147.953 49.6484 148.43 49.2812C148.906 48.9062 149.473 48.6133 150.129 48.4023C150.793 48.1914 151.535 48.0859 152.355 48.0859C153.34 48.0859 154.215 48.25 154.98 48.5781C155.746 48.9062 156.348 49.3984 156.785 50.0547C157.23 50.7109 157.453 51.5312 157.453 52.5156V57.9414C157.453 58.6367 157.496 59.207 157.582 59.6523C157.668 60.0898 157.793 60.4727 157.957 60.8008V61H154.547C154.383 60.6562 154.258 60.2266 154.172 59.7109C154.094 59.1875 154.055 58.6641 154.055 58.1406ZM154.5 53.2773L154.523 55.1875H152.637C152.191 55.1875 151.805 55.2383 151.477 55.3398C151.148 55.4414 150.879 55.5859 150.668 55.7734C150.457 55.9531 150.301 56.1641 150.199 56.4062C150.105 56.6484 150.059 56.9141 150.059 57.2031C150.059 57.4922 150.125 57.7539 150.258 57.9883C150.391 58.2148 150.582 58.3945 150.832 58.5273C151.082 58.6523 151.375 58.7148 151.711 58.7148C152.219 58.7148 152.66 58.6133 153.035 58.4102C153.41 58.207 153.699 57.957 153.902 57.6602C154.113 57.3633 154.223 57.082 154.23 56.8164L155.121 58.2461C154.996 58.5664 154.824 58.8984 154.605 59.2422C154.395 59.5859 154.125 59.9102 153.797 60.2148C153.469 60.5117 153.074 60.7578 152.613 60.9531C152.152 61.1406 151.605 61.2344 150.973 61.2344C150.168 61.2344 149.438 61.0742 148.781 60.7539C148.133 60.4258 147.617 59.9766 147.234 59.4062C146.859 58.8281 146.672 58.1719 146.672 57.4375C146.672 56.7734 146.797 56.1836 147.047 55.668C147.297 55.1523 147.664 54.7188 148.148 54.3672C148.641 54.0078 149.254 53.7383 149.988 53.5586C150.723 53.3711 151.574 53.2773 152.543 53.2773H154.5ZM163.359 51.0273V61H159.984V48.3203H163.148L163.359 51.0273ZM162.867 54.2148H161.953C161.953 53.2773 162.074 52.4336 162.316 51.6836C162.559 50.9258 162.898 50.2812 163.336 49.75C163.773 49.2109 164.293 48.8008 164.895 48.5195C165.504 48.2305 166.184 48.0859 166.934 48.0859C167.527 48.0859 168.07 48.1719 168.562 48.3438C169.055 48.5156 169.477 48.7891 169.828 49.1641C170.188 49.5391 170.461 50.0352 170.648 50.6523C170.844 51.2695 170.941 52.0234 170.941 52.9141V61H167.543V52.9023C167.543 52.3398 167.465 51.9023 167.309 51.5898C167.152 51.2773 166.922 51.0586 166.617 50.9336C166.32 50.8008 165.953 50.7344 165.516 50.7344C165.062 50.7344 164.668 50.8242 164.332 51.0039C164.004 51.1836 163.73 51.4336 163.512 51.7539C163.301 52.0664 163.141 52.4336 163.031 52.8555C162.922 53.2773 162.867 53.7305 162.867 54.2148ZM178.746 58.5977C179.16 58.5977 179.527 58.5195 179.848 58.3633C180.168 58.1992 180.418 57.9727 180.598 57.6836C180.785 57.3867 180.883 57.0391 180.891 56.6406H184.066C184.059 57.5312 183.82 58.3242 183.352 59.0195C182.883 59.707 182.254 60.25 181.465 60.6484C180.676 61.0391 179.793 61.2344 178.816 61.2344C177.832 61.2344 176.973 61.0703 176.238 60.7422C175.512 60.4141 174.906 59.9609 174.422 59.3828C173.938 58.7969 173.574 58.1172 173.332 57.3438C173.09 56.5625 172.969 55.7266 172.969 54.8359V54.4961C172.969 53.5977 173.09 52.7617 173.332 51.9883C173.574 51.207 173.938 50.5273 174.422 49.9492C174.906 49.3633 175.512 48.9062 176.238 48.5781C176.965 48.25 177.816 48.0859 178.793 48.0859C179.832 48.0859 180.742 48.2852 181.523 48.6836C182.312 49.082 182.93 49.6523 183.375 50.3945C183.828 51.1289 184.059 52 184.066 53.0078H180.891C180.883 52.5859 180.793 52.2031 180.621 51.8594C180.457 51.5156 180.215 51.2422 179.895 51.0391C179.582 50.8281 179.195 50.7227 178.734 50.7227C178.242 50.7227 177.84 50.8281 177.527 51.0391C177.215 51.2422 176.973 51.5234 176.801 51.8828C176.629 52.2344 176.508 52.6367 176.438 53.0898C176.375 53.5352 176.344 54.0039 176.344 54.4961V54.8359C176.344 55.3281 176.375 55.8008 176.438 56.2539C176.5 56.707 176.617 57.1094 176.789 57.4609C176.969 57.8125 177.215 58.0898 177.527 58.293C177.84 58.4961 178.246 58.5977 178.746 58.5977ZM191.859 61.2344C190.875 61.2344 189.992 61.0781 189.211 60.7656C188.43 60.4453 187.766 60.0039 187.219 59.4414C186.68 58.8789 186.266 58.2266 185.977 57.4844C185.688 56.7344 185.543 55.9375 185.543 55.0938V54.625C185.543 53.6641 185.68 52.7852 185.953 51.9883C186.227 51.1914 186.617 50.5 187.125 49.9141C187.641 49.3281 188.266 48.8789 189 48.5664C189.734 48.2461 190.562 48.0859 191.484 48.0859C192.383 48.0859 193.18 48.2344 193.875 48.5312C194.57 48.8281 195.152 49.25 195.621 49.7969C196.098 50.3438 196.457 51 196.699 51.7656C196.941 52.5234 197.062 53.3672 197.062 54.2969V55.7031H186.984V53.4531H193.746V53.1953C193.746 52.7266 193.66 52.3086 193.488 51.9414C193.324 51.5664 193.074 51.2695 192.738 51.0508C192.402 50.832 191.973 50.7227 191.449 50.7227C191.004 50.7227 190.621 50.8203 190.301 51.0156C189.98 51.2109 189.719 51.4844 189.516 51.8359C189.32 52.1875 189.172 52.6016 189.07 53.0781C188.977 53.5469 188.93 54.0625 188.93 54.625V55.0938C188.93 55.6016 189 56.0703 189.141 56.5C189.289 56.9297 189.496 57.3008 189.762 57.6133C190.035 57.9258 190.363 58.168 190.746 58.3398C191.137 58.5117 191.578 58.5977 192.07 58.5977C192.68 58.5977 193.246 58.4805 193.77 58.2461C194.301 58.0039 194.758 57.6406 195.141 57.1562L196.781 58.9375C196.516 59.3203 196.152 59.6875 195.691 60.0391C195.238 60.3906 194.691 60.6797 194.051 60.9062C193.41 61.125 192.68 61.2344 191.859 61.2344ZM205.875 53.5117H201.492L201.469 51.0977H205.148C205.797 51.0977 206.328 51.0156 206.742 50.8516C207.156 50.6797 207.465 50.4336 207.668 50.1133C207.879 49.7852 207.984 49.3867 207.984 48.918C207.984 48.3867 207.883 47.957 207.68 47.6289C207.484 47.3008 207.176 47.0625 206.754 46.9141C206.34 46.7656 205.805 46.6914 205.148 46.6914H202.711V61H199.195V43.9375H205.148C206.141 43.9375 207.027 44.0312 207.809 44.2188C208.598 44.4062 209.266 44.6914 209.812 45.0742C210.359 45.457 210.777 45.9414 211.066 46.5273C211.355 47.1055 211.5 47.793 211.5 48.5898C211.5 49.293 211.34 49.9414 211.02 50.5352C210.707 51.1289 210.211 51.6133 209.531 51.9883C208.859 52.3633 207.98 52.5703 206.895 52.6094L205.875 53.5117ZM205.723 61H200.531L201.902 58.2578H205.723C206.34 58.2578 206.844 58.1602 207.234 57.9648C207.625 57.7617 207.914 57.4883 208.102 57.1445C208.289 56.8008 208.383 56.4062 208.383 55.9609C208.383 55.4609 208.297 55.0273 208.125 54.6602C207.961 54.293 207.695 54.0117 207.328 53.8164C206.961 53.6133 206.477 53.5117 205.875 53.5117H202.488L202.512 51.0977H206.73L207.539 52.0469C208.578 52.0312 209.414 52.2148 210.047 52.5977C210.688 52.9727 211.152 53.4609 211.441 54.0625C211.738 54.6641 211.887 55.3086 211.887 55.9961C211.887 57.0898 211.648 58.0117 211.172 58.7617C210.695 59.5039 209.996 60.0625 209.074 60.4375C208.16 60.8125 207.043 61 205.723 61ZM220.148 61.2344C219.164 61.2344 218.281 61.0781 217.5 60.7656C216.719 60.4453 216.055 60.0039 215.508 59.4414C214.969 58.8789 214.555 58.2266 214.266 57.4844C213.977 56.7344 213.832 55.9375 213.832 55.0938V54.625C213.832 53.6641 213.969 52.7852 214.242 51.9883C214.516 51.1914 214.906 50.5 215.414 49.9141C215.93 49.3281 216.555 48.8789 217.289 48.5664C218.023 48.2461 218.852 48.0859 219.773 48.0859C220.672 48.0859 221.469 48.2344 222.164 48.5312C222.859 48.8281 223.441 49.25 223.91 49.7969C224.387 50.3438 224.746 51 224.988 51.7656C225.23 52.5234 225.352 53.3672 225.352 54.2969V55.7031H215.273V53.4531H222.035V53.1953C222.035 52.7266 221.949 52.3086 221.777 51.9414C221.613 51.5664 221.363 51.2695 221.027 51.0508C220.691 50.832 220.262 50.7227 219.738 50.7227C219.293 50.7227 218.91 50.8203 218.59 51.0156C218.27 51.2109 218.008 51.4844 217.805 51.8359C217.609 52.1875 217.461 52.6016 217.359 53.0781C217.266 53.5469 217.219 54.0625 217.219 54.625V55.0938C217.219 55.6016 217.289 56.0703 217.43 56.5C217.578 56.9297 217.785 57.3008 218.051 57.6133C218.324 57.9258 218.652 58.168 219.035 58.3398C219.426 58.5117 219.867 58.5977 220.359 58.5977C220.969 58.5977 221.535 58.4805 222.059 58.2461C222.59 58.0039 223.047 57.6406 223.43 57.1562L225.07 58.9375C224.805 59.3203 224.441 59.6875 223.98 60.0391C223.527 60.3906 222.98 60.6797 222.34 60.9062C221.699 61.125 220.969 61.2344 220.148 61.2344ZM234.117 58.1406V52.4922C234.117 52.0859 234.051 51.7383 233.918 51.4492C233.785 51.1523 233.578 50.9219 233.297 50.7578C233.023 50.5938 232.668 50.5117 232.23 50.5117C231.855 50.5117 231.531 50.5781 231.258 50.7109C230.984 50.8359 230.773 51.0195 230.625 51.2617C230.477 51.4961 230.402 51.7734 230.402 52.0938H227.027C227.027 51.5547 227.152 51.043 227.402 50.5586C227.652 50.0742 228.016 49.6484 228.492 49.2812C228.969 48.9062 229.535 48.6133 230.191 48.4023C230.855 48.1914 231.598 48.0859 232.418 48.0859C233.402 48.0859 234.277 48.25 235.043 48.5781C235.809 48.9062 236.41 49.3984 236.848 50.0547C237.293 50.7109 237.516 51.5312 237.516 52.5156V57.9414C237.516 58.6367 237.559 59.207 237.645 59.6523C237.73 60.0898 237.855 60.4727 238.02 60.8008V61H234.609C234.445 60.6562 234.32 60.2266 234.234 59.7109C234.156 59.1875 234.117 58.6641 234.117 58.1406ZM234.562 53.2773L234.586 55.1875H232.699C232.254 55.1875 231.867 55.2383 231.539 55.3398C231.211 55.4414 230.941 55.5859 230.73 55.7734C230.52 55.9531 230.363 56.1641 230.262 56.4062C230.168 56.6484 230.121 56.9141 230.121 57.2031C230.121 57.4922 230.188 57.7539 230.32 57.9883C230.453 58.2148 230.645 58.3945 230.895 58.5273C231.145 58.6523 231.438 58.7148 231.773 58.7148C232.281 58.7148 232.723 58.6133 233.098 58.4102C233.473 58.207 233.762 57.957 233.965 57.6602C234.176 57.3633 234.285 57.082 234.293 56.8164L235.184 58.2461C235.059 58.5664 234.887 58.8984 234.668 59.2422C234.457 59.5859 234.188 59.9102 233.859 60.2148C233.531 60.5117 233.137 60.7578 232.676 60.9531C232.215 61.1406 231.668 61.2344 231.035 61.2344C230.23 61.2344 229.5 61.0742 228.844 60.7539C228.195 60.4258 227.68 59.9766 227.297 59.4062C226.922 58.8281 226.734 58.1719 226.734 57.4375C226.734 56.7734 226.859 56.1836 227.109 55.668C227.359 55.1523 227.727 54.7188 228.211 54.3672C228.703 54.0078 229.316 53.7383 230.051 53.5586C230.785 53.3711 231.637 53.2773 232.605 53.2773H234.562ZM243.492 50.9453V61H240.105V48.3203H243.281L243.492 50.9453ZM243.023 54.2148H242.086C242.086 53.332 242.191 52.5195 242.402 51.7773C242.621 51.0273 242.938 50.3789 243.352 49.832C243.773 49.2773 244.293 48.8477 244.91 48.543C245.527 48.2383 246.242 48.0859 247.055 48.0859C247.617 48.0859 248.133 48.1719 248.602 48.3438C249.07 48.5078 249.473 48.7695 249.809 49.1289C250.152 49.4805 250.418 49.9414 250.605 50.5117C250.793 51.0742 250.887 51.75 250.887 52.5391V61H247.512V52.9141C247.512 52.3359 247.434 51.8906 247.277 51.5781C247.121 51.2656 246.898 51.0469 246.609 50.9219C246.328 50.7969 245.988 50.7344 245.59 50.7344C245.152 50.7344 244.77 50.8242 244.441 51.0039C244.121 51.1836 243.855 51.4336 243.645 51.7539C243.434 52.0664 243.277 52.4336 243.176 52.8555C243.074 53.2773 243.023 53.7305 243.023 54.2148ZM250.57 53.8281L249.363 53.9805C249.363 53.1523 249.465 52.3828 249.668 51.6719C249.879 50.9609 250.188 50.3359 250.594 49.7969C251.008 49.2578 251.52 48.8398 252.129 48.543C252.738 48.2383 253.441 48.0859 254.238 48.0859C254.848 48.0859 255.402 48.1758 255.902 48.3555C256.402 48.5273 256.828 48.8047 257.18 49.1875C257.539 49.5625 257.812 50.0547 258 50.6641C258.195 51.2734 258.293 52.0195 258.293 52.9023V61H254.906V52.9023C254.906 52.3164 254.828 51.8711 254.672 51.5664C254.523 51.2539 254.305 51.0391 254.016 50.9219C253.734 50.7969 253.398 50.7344 253.008 50.7344C252.602 50.7344 252.246 50.8164 251.941 50.9805C251.637 51.1367 251.383 51.3555 251.18 51.6367C250.977 51.918 250.824 52.2461 250.723 52.6211C250.621 52.9883 250.57 53.3906 250.57 53.8281Z" fill="#888888"/>
<path d="M118.594 98.4219V104.75H101.086V98.4219H118.594ZM103.828 84.875V119H95.6016V84.875H103.828ZM124.125 84.875V119H115.922V84.875H124.125ZM127.992 106.578V106.086C127.992 104.227 128.258 102.516 128.789 100.953C129.32 99.375 130.102 98.0078 131.133 96.8516C132.164 95.6953 133.438 94.7969 134.953 94.1562C136.469 93.5 138.219 93.1719 140.203 93.1719C142.203 93.1719 143.961 93.5 145.477 94.1562C147.008 94.7969 148.289 95.6953 149.32 96.8516C150.352 98.0078 151.133 99.375 151.664 100.953C152.195 102.516 152.461 104.227 152.461 106.086V106.578C152.461 108.422 152.195 110.133 151.664 111.711C151.133 113.273 150.352 114.641 149.32 115.812C148.289 116.969 147.016 117.867 145.5 118.508C143.984 119.148 142.234 119.469 140.25 119.469C138.266 119.469 136.508 119.148 134.977 118.508C133.445 117.867 132.164 116.969 131.133 115.812C130.102 114.641 129.32 113.273 128.789 111.711C128.258 110.133 127.992 108.422 127.992 106.578ZM135.891 106.086V106.578C135.891 107.531 135.961 108.422 136.102 109.25C136.242 110.078 136.477 110.805 136.805 111.43C137.133 112.039 137.578 112.516 138.141 112.859C138.703 113.203 139.406 113.375 140.25 113.375C141.078 113.375 141.766 113.203 142.312 112.859C142.875 112.516 143.32 112.039 143.648 111.43C143.977 110.805 144.211 110.078 144.352 109.25C144.492 108.422 144.562 107.531 144.562 106.578V106.086C144.562 105.164 144.492 104.297 144.352 103.484C144.211 102.656 143.977 101.93 143.648 101.305C143.32 100.664 142.875 100.164 142.312 99.8047C141.75 99.4453 141.047 99.2656 140.203 99.2656C139.375 99.2656 138.68 99.4453 138.117 99.8047C137.57 100.164 137.133 100.664 136.805 101.305C136.477 101.93 136.242 102.656 136.102 103.484C135.961 104.297 135.891 105.164 135.891 106.086ZM163.688 111.453L168.375 93.6406H173.32L171.562 102.57L166.922 119H162.961L163.688 111.453ZM161.836 93.6406L164.742 111.312L165.07 119H160.266L154.266 93.6406H161.836ZM177.492 110.938L180.422 93.6406H187.992L182.039 119H177.234L177.492 110.938ZM173.883 93.6406L178.617 111.406L179.344 119H175.336L170.789 102.617L169.102 93.6406H173.883ZM218.297 84.875V119H210.07V84.875H218.297ZM228.562 84.875V91.2266H200.039V84.875H228.562ZM225.773 106.578V106.086C225.773 104.227 226.039 102.516 226.57 100.953C227.102 99.375 227.883 98.0078 228.914 96.8516C229.945 95.6953 231.219 94.7969 232.734 94.1562C234.25 93.5 236 93.1719 237.984 93.1719C239.984 93.1719 241.742 93.5 243.258 94.1562C244.789 94.7969 246.07 95.6953 247.102 96.8516C248.133 98.0078 248.914 99.375 249.445 100.953C249.977 102.516 250.242 104.227 250.242 106.086V106.578C250.242 108.422 249.977 110.133 249.445 111.711C248.914 113.273 248.133 114.641 247.102 115.812C246.07 116.969 244.797 117.867 243.281 118.508C241.766 119.148 240.016 119.469 238.031 119.469C236.047 119.469 234.289 119.148 232.758 118.508C231.227 117.867 229.945 116.969 228.914 115.812C227.883 114.641 227.102 113.273 226.57 111.711C226.039 110.133 225.773 108.422 225.773 106.578ZM233.672 106.086V106.578C233.672 107.531 233.742 108.422 233.883 109.25C234.023 110.078 234.258 110.805 234.586 111.43C234.914 112.039 235.359 112.516 235.922 112.859C236.484 113.203 237.188 113.375 238.031 113.375C238.859 113.375 239.547 113.203 240.094 112.859C240.656 112.516 241.102 112.039 241.43 111.43C241.758 110.805 241.992 110.078 242.133 109.25C242.273 108.422 242.344 107.531 242.344 106.578V106.086C242.344 105.164 242.273 104.297 242.133 103.484C241.992 102.656 241.758 101.93 241.43 101.305C241.102 100.664 240.656 100.164 240.094 99.8047C239.531 99.4453 238.828 99.2656 237.984 99.2656C237.156 99.2656 236.461 99.4453 235.898 99.8047C235.352 100.164 234.914 100.664 234.586 101.305C234.258 101.93 234.023 102.656 233.883 103.484C233.742 104.297 233.672 105.164 233.672 106.086ZM266.086 84.875H279.516C282.141 84.875 284.422 85.2656 286.359 86.0469C288.297 86.8281 289.789 87.9844 290.836 89.5156C291.898 91.0469 292.43 92.9375 292.43 95.1875C292.43 97.1406 292.125 98.7734 291.516 100.086C290.906 101.398 290.055 102.484 288.961 103.344C287.883 104.188 286.625 104.883 285.188 105.43L282.492 106.953H271.219L271.172 100.602H279.516C280.562 100.602 281.43 100.414 282.117 100.039C282.805 99.6641 283.32 99.1328 283.664 98.4453C284.023 97.7422 284.203 96.9062 284.203 95.9375C284.203 94.9531 284.023 94.1094 283.664 93.4062C283.305 92.7031 282.773 92.1641 282.07 91.7891C281.383 91.4141 280.531 91.2266 279.516 91.2266H274.312V119H266.086V84.875ZM284.766 119L277.219 103.906L285.938 103.859L293.578 118.648V119H284.766ZM311.836 112.836V93.6406H319.758V119H312.352L311.836 112.836ZM312.586 107.68L314.648 107.633C314.648 109.336 314.445 110.914 314.039 112.367C313.633 113.805 313.031 115.055 312.234 116.117C311.453 117.18 310.484 118.008 309.328 118.602C308.188 119.18 306.867 119.469 305.367 119.469C304.117 119.469 302.969 119.297 301.922 118.953C300.891 118.594 300 118.039 299.25 117.289C298.5 116.523 297.914 115.547 297.492 114.359C297.086 113.156 296.883 111.719 296.883 110.047V93.6406H304.781V110.094C304.781 110.656 304.852 111.141 304.992 111.547C305.133 111.953 305.336 112.297 305.602 112.578C305.867 112.844 306.195 113.047 306.586 113.188C306.992 113.312 307.453 113.375 307.969 113.375C309.156 113.375 310.086 113.125 310.758 112.625C311.43 112.125 311.898 111.445 312.164 110.586C312.445 109.727 312.586 108.758 312.586 107.68ZM331.875 99.0547V119H323.977V93.6406H331.383L331.875 99.0547ZM330.938 105.453L329.086 105.5C329.086 103.562 329.32 101.836 329.789 100.32C330.258 98.7891 330.922 97.4922 331.781 96.4297C332.641 95.3672 333.664 94.5625 334.852 94.0156C336.055 93.4531 337.391 93.1719 338.859 93.1719C340.031 93.1719 341.102 93.3438 342.07 93.6875C343.055 94.0312 343.898 94.5859 344.602 95.3516C345.32 96.1172 345.867 97.1328 346.242 98.3984C346.633 99.6484 346.828 101.195 346.828 103.039V119H338.883V103.016C338.883 102 338.742 101.227 338.461 100.695C338.18 100.148 337.773 99.7734 337.242 99.5703C336.711 99.3672 336.062 99.2656 335.297 99.2656C334.484 99.2656 333.797 99.4219 333.234 99.7344C332.672 100.047 332.219 100.484 331.875 101.047C331.547 101.594 331.305 102.242 331.148 102.992C331.008 103.742 330.938 104.562 330.938 105.453ZM363.773 108.195H357.047C357.047 106.82 357.141 105.609 357.328 104.562C357.531 103.5 357.875 102.547 358.359 101.703C358.844 100.859 359.5 100.078 360.328 99.3594C361.062 98.75 361.695 98.1641 362.227 97.6016C362.758 97.0391 363.164 96.4688 363.445 95.8906C363.727 95.3125 363.867 94.6953 363.867 94.0391C363.867 93.2266 363.75 92.5625 363.516 92.0469C363.297 91.5312 362.961 91.1484 362.508 90.8984C362.07 90.6328 361.516 90.5 360.844 90.5C360.297 90.5 359.781 90.6328 359.297 90.8984C358.828 91.1641 358.445 91.5781 358.148 92.1406C357.852 92.6875 357.688 93.4141 357.656 94.3203H349.711C349.758 91.9922 350.273 90.1016 351.258 88.6484C352.258 87.1797 353.586 86.1094 355.242 85.4375C356.914 84.75 358.781 84.4062 360.844 84.4062C363.125 84.4062 365.086 84.7578 366.727 85.4609C368.367 86.1641 369.625 87.2109 370.5 88.6016C371.375 89.9766 371.812 91.6719 371.812 93.6875C371.812 95.0312 371.555 96.2031 371.039 97.2031C370.539 98.1875 369.859 99.1094 369 99.9688C368.156 100.812 367.211 101.719 366.164 102.688C365.258 103.484 364.641 104.297 364.312 105.125C363.984 105.938 363.805 106.961 363.773 108.195ZM356.086 115.32C356.086 114.195 356.492 113.258 357.305 112.508C358.117 111.742 359.172 111.359 360.469 111.359C361.766 111.359 362.82 111.742 363.633 112.508C364.445 113.258 364.852 114.195 364.852 115.32C364.852 116.445 364.445 117.391 363.633 118.156C362.82 118.906 361.766 119.281 360.469 119.281C359.172 119.281 358.117 118.906 357.305 118.156C356.492 117.391 356.086 116.445 356.086 115.32Z" fill="black"/>
<path d="M1134 0H1348C1356.28 0 1363 6.71573 1363 15V148C1363 156.284 1356.28 163 1348 163H1134V0Z" fill="#FF6F61"/>
<path d="M1260.62 78.8847C1263.81 78.8847 1266.93 79.805 1269.59 81.5293C1272.25 83.2536 1274.32 85.7044 1275.54 88.5718C1276.76 91.4391 1277.08 94.5943 1276.46 97.6383C1275.84 100.682 1274.3 103.478 1272.04 105.673C1269.78 107.868 1266.9 109.362 1263.77 109.968C1260.63 110.573 1257.39 110.262 1254.43 109.075C1251.48 107.887 1248.96 105.876 1247.18 103.295C1245.41 100.714 1244.46 97.6806 1244.46 94.5769C1244.46 90.4151 1246.16 86.4237 1249.19 83.4808C1252.22 80.538 1256.33 78.8847 1260.62 78.8847ZM1260.62 73.6539C1256.36 73.6539 1252.19 74.881 1248.65 77.1801C1245.11 79.4791 1242.35 82.7469 1240.72 86.57C1239.09 90.3932 1238.66 94.6001 1239.49 98.6588C1240.32 102.717 1242.37 106.446 1245.39 109.372C1248.4 112.298 1252.24 114.291 1256.41 115.098C1260.59 115.905 1264.92 115.491 1268.86 113.907C1272.79 112.324 1276.16 109.642 1278.52 106.201C1280.89 102.76 1282.15 98.7151 1282.15 94.5769C1282.15 89.0278 1279.88 83.706 1275.85 79.7821C1271.81 75.8583 1266.33 73.6539 1260.62 73.6539Z" fill="white"/>
<path d="M1274.08 47.5H1220.23C1218.8 47.5 1217.43 48.0511 1216.42 49.0321C1215.41 50.013 1214.85 51.3435 1214.85 52.7307V105.038C1214.85 106.426 1215.41 107.756 1216.42 108.737C1217.43 109.718 1218.8 110.269 1220.23 110.269H1231V105.038H1220.23V68.423H1279.46V52.7307C1279.46 51.3435 1278.89 50.013 1277.88 49.0321C1276.87 48.0511 1275.5 47.5 1274.08 47.5ZM1220.23 63.1922V52.7307H1274.08V63.1922H1220.23Z" fill="white"/>
<path d="M1255.23 86.731V102.423L1268.69 94.5771L1255.23 86.731Z" fill="white"/>
</svg>
