<svg width="1363" height="163" viewBox="0 0 1363 163" fill="none" xmlns="http://www.w3.org/2000/svg">
<path d="M0 15C0 6.71573 6.71573 0 15 0H37V163H15C6.71573 163 0 156.284 0 148V15Z" fill="#424242"/>
<rect width="1097" height="163" transform="translate(37)" fill="#F0F0F0"/>
<path d="M101.203 53.5117H96.8203L96.7969 51.0977H100.477C101.125 51.0977 101.656 51.0156 102.07 50.8516C102.484 50.6797 102.793 50.4336 102.996 50.1133C103.207 49.7852 103.312 49.3867 103.312 48.918C103.312 48.3867 103.211 47.957 103.008 47.6289C102.812 47.3008 102.504 47.0625 102.082 46.9141C101.668 46.7656 101.133 46.6914 100.477 46.6914H98.0391V61H94.5234V43.9375H100.477C101.469 43.9375 102.355 44.0312 103.137 44.2188C103.926 44.4062 104.594 44.6914 105.141 45.0742C105.688 45.457 106.105 45.9414 106.395 46.5273C106.684 47.1055 106.828 47.793 106.828 48.5898C106.828 49.293 106.668 49.9414 106.348 50.5352C106.035 51.1289 105.539 51.6133 104.859 51.9883C104.188 52.3633 103.309 52.5703 102.223 52.6094L101.203 53.5117ZM101.051 61H95.8594L97.2305 58.2578H101.051C101.668 58.2578 102.172 58.1602 102.562 57.9648C102.953 57.7617 103.242 57.4883 103.43 57.1445C103.617 56.8008 103.711 56.4062 103.711 55.9609C103.711 55.4609 103.625 55.0273 103.453 54.6602C103.289 54.293 103.023 54.0117 102.656 53.8164C102.289 53.6133 101.805 53.5117 101.203 53.5117H97.8164L97.8398 51.0977H102.059L102.867 52.0469C103.906 52.0312 104.742 52.2148 105.375 52.5977C106.016 52.9727 106.48 53.4609 106.77 54.0625C107.066 54.6641 107.215 55.3086 107.215 55.9961C107.215 57.0898 106.977 58.0117 106.5 58.7617C106.023 59.5039 105.324 60.0625 104.402 60.4375C103.488 60.8125 102.371 61 101.051 61ZM116.484 58.1406V52.4922C116.484 52.0859 116.418 51.7383 116.285 51.4492C116.152 51.1523 115.945 50.9219 115.664 50.7578C115.391 50.5938 115.035 50.5117 114.598 50.5117C114.223 50.5117 113.898 50.5781 113.625 50.7109C113.352 50.8359 113.141 51.0195 112.992 51.2617C112.844 51.4961 112.77 51.7734 112.77 52.0938H109.395C109.395 51.5547 109.52 51.043 109.77 50.5586C110.02 50.0742 110.383 49.6484 110.859 49.2812C111.336 48.9062 111.902 48.6133 112.559 48.4023C113.223 48.1914 113.965 48.0859 114.785 48.0859C115.77 48.0859 116.645 48.25 117.41 48.5781C118.176 48.9062 118.777 49.3984 119.215 50.0547C119.66 50.7109 119.883 51.5312 119.883 52.5156V57.9414C119.883 58.6367 119.926 59.207 120.012 59.6523C120.098 60.0898 120.223 60.4727 120.387 60.8008V61H116.977C116.812 60.6562 116.688 60.2266 116.602 59.7109C116.523 59.1875 116.484 58.6641 116.484 58.1406ZM116.93 53.2773L116.953 55.1875H115.066C114.621 55.1875 114.234 55.2383 113.906 55.3398C113.578 55.4414 113.309 55.5859 113.098 55.7734C112.887 55.9531 112.73 56.1641 112.629 56.4062C112.535 56.6484 112.488 56.9141 112.488 57.2031C112.488 57.4922 112.555 57.7539 112.688 57.9883C112.82 58.2148 113.012 58.3945 113.262 58.5273C113.512 58.6523 113.805 58.7148 114.141 58.7148C114.648 58.7148 115.09 58.6133 115.465 58.4102C115.84 58.207 116.129 57.957 116.332 57.6602C116.543 57.3633 116.652 57.082 116.66 56.8164L117.551 58.2461C117.426 58.5664 117.254 58.8984 117.035 59.2422C116.824 59.5859 116.555 59.9102 116.227 60.2148C115.898 60.5117 115.504 60.7578 115.043 60.9531C114.582 61.1406 114.035 61.2344 113.402 61.2344C112.598 61.2344 111.867 61.0742 111.211 60.7539C110.562 60.4258 110.047 59.9766 109.664 59.4062C109.289 58.8281 109.102 58.1719 109.102 57.4375C109.102 56.7734 109.227 56.1836 109.477 55.668C109.727 55.1523 110.094 54.7188 110.578 54.3672C111.07 54.0078 111.684 53.7383 112.418 53.5586C113.152 53.3711 114.004 53.2773 114.973 53.2773H116.93ZM126.047 43V61H122.66V43H126.047ZM135.68 58.1406V52.4922C135.68 52.0859 135.613 51.7383 135.48 51.4492C135.348 51.1523 135.141 50.9219 134.859 50.7578C134.586 50.5938 134.23 50.5117 133.793 50.5117C133.418 50.5117 133.094 50.5781 132.82 50.7109C132.547 50.8359 132.336 51.0195 132.188 51.2617C132.039 51.4961 131.965 51.7734 131.965 52.0938H128.59C128.59 51.5547 128.715 51.043 128.965 50.5586C129.215 50.0742 129.578 49.6484 130.055 49.2812C130.531 48.9062 131.098 48.6133 131.754 48.4023C132.418 48.1914 133.16 48.0859 133.98 48.0859C134.965 48.0859 135.84 48.25 136.605 48.5781C137.371 48.9062 137.973 49.3984 138.41 50.0547C138.855 50.7109 139.078 51.5312 139.078 52.5156V57.9414C139.078 58.6367 139.121 59.207 139.207 59.6523C139.293 60.0898 139.418 60.4727 139.582 60.8008V61H136.172C136.008 60.6562 135.883 60.2266 135.797 59.7109C135.719 59.1875 135.68 58.6641 135.68 58.1406ZM136.125 53.2773L136.148 55.1875H134.262C133.816 55.1875 133.43 55.2383 133.102 55.3398C132.773 55.4414 132.504 55.5859 132.293 55.7734C132.082 55.9531 131.926 56.1641 131.824 56.4062C131.73 56.6484 131.684 56.9141 131.684 57.2031C131.684 57.4922 131.75 57.7539 131.883 57.9883C132.016 58.2148 132.207 58.3945 132.457 58.5273C132.707 58.6523 133 58.7148 133.336 58.7148C133.844 58.7148 134.285 58.6133 134.66 58.4102C135.035 58.207 135.324 57.957 135.527 57.6602C135.738 57.3633 135.848 57.082 135.855 56.8164L136.746 58.2461C136.621 58.5664 136.449 58.8984 136.23 59.2422C136.02 59.5859 135.75 59.9102 135.422 60.2148C135.094 60.5117 134.699 60.7578 134.238 60.9531C133.777 61.1406 133.23 61.2344 132.598 61.2344C131.793 61.2344 131.062 61.0742 130.406 60.7539C129.758 60.4258 129.242 59.9766 128.859 59.4062C128.484 58.8281 128.297 58.1719 128.297 57.4375C128.297 56.7734 128.422 56.1836 128.672 55.668C128.922 55.1523 129.289 54.7188 129.773 54.3672C130.266 54.0078 130.879 53.7383 131.613 53.5586C132.348 53.3711 133.199 53.2773 134.168 53.2773H136.125ZM144.984 51.0273V61H141.609V48.3203H144.773L144.984 51.0273ZM144.492 54.2148H143.578C143.578 53.2773 143.699 52.4336 143.941 51.6836C144.184 50.9258 144.523 50.2812 144.961 49.75C145.398 49.2109 145.918 48.8008 146.52 48.5195C147.129 48.2305 147.809 48.0859 148.559 48.0859C149.152 48.0859 149.695 48.1719 150.188 48.3438C150.68 48.5156 151.102 48.7891 151.453 49.1641C151.812 49.5391 152.086 50.0352 152.273 50.6523C152.469 51.2695 152.566 52.0234 152.566 52.9141V61H149.168V52.9023C149.168 52.3398 149.09 51.9023 148.934 51.5898C148.777 51.2773 148.547 51.0586 148.242 50.9336C147.945 50.8008 147.578 50.7344 147.141 50.7344C146.688 50.7344 146.293 50.8242 145.957 51.0039C145.629 51.1836 145.355 51.4336 145.137 51.7539C144.926 52.0664 144.766 52.4336 144.656 52.8555C144.547 53.2773 144.492 53.7305 144.492 54.2148ZM160.371 58.5977C160.785 58.5977 161.152 58.5195 161.473 58.3633C161.793 58.1992 162.043 57.9727 162.223 57.6836C162.41 57.3867 162.508 57.0391 162.516 56.6406H165.691C165.684 57.5312 165.445 58.3242 164.977 59.0195C164.508 59.707 163.879 60.25 163.09 60.6484C162.301 61.0391 161.418 61.2344 160.441 61.2344C159.457 61.2344 158.598 61.0703 157.863 60.7422C157.137 60.4141 156.531 59.9609 156.047 59.3828C155.562 58.7969 155.199 58.1172 154.957 57.3438C154.715 56.5625 154.594 55.7266 154.594 54.8359V54.4961C154.594 53.5977 154.715 52.7617 154.957 51.9883C155.199 51.207 155.562 50.5273 156.047 49.9492C156.531 49.3633 157.137 48.9062 157.863 48.5781C158.59 48.25 159.441 48.0859 160.418 48.0859C161.457 48.0859 162.367 48.2852 163.148 48.6836C163.938 49.082 164.555 49.6523 165 50.3945C165.453 51.1289 165.684 52 165.691 53.0078H162.516C162.508 52.5859 162.418 52.2031 162.246 51.8594C162.082 51.5156 161.84 51.2422 161.52 51.0391C161.207 50.8281 160.82 50.7227 160.359 50.7227C159.867 50.7227 159.465 50.8281 159.152 51.0391C158.84 51.2422 158.598 51.5234 158.426 51.8828C158.254 52.2344 158.133 52.6367 158.062 53.0898C158 53.5352 157.969 54.0039 157.969 54.4961V54.8359C157.969 55.3281 158 55.8008 158.062 56.2539C158.125 56.707 158.242 57.1094 158.414 57.4609C158.594 57.8125 158.84 58.0898 159.152 58.293C159.465 58.4961 159.871 58.5977 160.371 58.5977ZM173.484 61.2344C172.5 61.2344 171.617 61.0781 170.836 60.7656C170.055 60.4453 169.391 60.0039 168.844 59.4414C168.305 58.8789 167.891 58.2266 167.602 57.4844C167.312 56.7344 167.168 55.9375 167.168 55.0938V54.625C167.168 53.6641 167.305 52.7852 167.578 51.9883C167.852 51.1914 168.242 50.5 168.75 49.9141C169.266 49.3281 169.891 48.8789 170.625 48.5664C171.359 48.2461 172.188 48.0859 173.109 48.0859C174.008 48.0859 174.805 48.2344 175.5 48.5312C176.195 48.8281 176.777 49.25 177.246 49.7969C177.723 50.3438 178.082 51 178.324 51.7656C178.566 52.5234 178.688 53.3672 178.688 54.2969V55.7031H168.609V53.4531H175.371V53.1953C175.371 52.7266 175.285 52.3086 175.113 51.9414C174.949 51.5664 174.699 51.2695 174.363 51.0508C174.027 50.832 173.598 50.7227 173.074 50.7227C172.629 50.7227 172.246 50.8203 171.926 51.0156C171.605 51.2109 171.344 51.4844 171.141 51.8359C170.945 52.1875 170.797 52.6016 170.695 53.0781C170.602 53.5469 170.555 54.0625 170.555 54.625V55.0938C170.555 55.6016 170.625 56.0703 170.766 56.5C170.914 56.9297 171.121 57.3008 171.387 57.6133C171.66 57.9258 171.988 58.168 172.371 58.3398C172.762 58.5117 173.203 58.5977 173.695 58.5977C174.305 58.5977 174.871 58.4805 175.395 58.2461C175.926 58.0039 176.383 57.6406 176.766 57.1562L178.406 58.9375C178.141 59.3203 177.777 59.6875 177.316 60.0391C176.863 60.3906 176.316 60.6797 175.676 60.9062C175.035 61.125 174.305 61.2344 173.484 61.2344ZM187.5 53.5117H183.117L183.094 51.0977H186.773C187.422 51.0977 187.953 51.0156 188.367 50.8516C188.781 50.6797 189.09 50.4336 189.293 50.1133C189.504 49.7852 189.609 49.3867 189.609 48.918C189.609 48.3867 189.508 47.957 189.305 47.6289C189.109 47.3008 188.801 47.0625 188.379 46.9141C187.965 46.7656 187.43 46.6914 186.773 46.6914H184.336V61H180.82V43.9375H186.773C187.766 43.9375 188.652 44.0312 189.434 44.2188C190.223 44.4062 190.891 44.6914 191.438 45.0742C191.984 45.457 192.402 45.9414 192.691 46.5273C192.98 47.1055 193.125 47.793 193.125 48.5898C193.125 49.293 192.965 49.9414 192.645 50.5352C192.332 51.1289 191.836 51.6133 191.156 51.9883C190.484 52.3633 189.605 52.5703 188.52 52.6094L187.5 53.5117ZM187.348 61H182.156L183.527 58.2578H187.348C187.965 58.2578 188.469 58.1602 188.859 57.9648C189.25 57.7617 189.539 57.4883 189.727 57.1445C189.914 56.8008 190.008 56.4062 190.008 55.9609C190.008 55.4609 189.922 55.0273 189.75 54.6602C189.586 54.293 189.32 54.0117 188.953 53.8164C188.586 53.6133 188.102 53.5117 187.5 53.5117H184.113L184.137 51.0977H188.355L189.164 52.0469C190.203 52.0312 191.039 52.2148 191.672 52.5977C192.312 52.9727 192.777 53.4609 193.066 54.0625C193.363 54.6641 193.512 55.3086 193.512 55.9961C193.512 57.0898 193.273 58.0117 192.797 58.7617C192.32 59.5039 191.621 60.0625 190.699 60.4375C189.785 60.8125 188.668 61 187.348 61ZM201.773 61.2344C200.789 61.2344 199.906 61.0781 199.125 60.7656C198.344 60.4453 197.68 60.0039 197.133 59.4414C196.594 58.8789 196.18 58.2266 195.891 57.4844C195.602 56.7344 195.457 55.9375 195.457 55.0938V54.625C195.457 53.6641 195.594 52.7852 195.867 51.9883C196.141 51.1914 196.531 50.5 197.039 49.9141C197.555 49.3281 198.18 48.8789 198.914 48.5664C199.648 48.2461 200.477 48.0859 201.398 48.0859C202.297 48.0859 203.094 48.2344 203.789 48.5312C204.484 48.8281 205.066 49.25 205.535 49.7969C206.012 50.3438 206.371 51 206.613 51.7656C206.855 52.5234 206.977 53.3672 206.977 54.2969V55.7031H196.898V53.4531H203.66V53.1953C203.66 52.7266 203.574 52.3086 203.402 51.9414C203.238 51.5664 202.988 51.2695 202.652 51.0508C202.316 50.832 201.887 50.7227 201.363 50.7227C200.918 50.7227 200.535 50.8203 200.215 51.0156C199.895 51.2109 199.633 51.4844 199.43 51.8359C199.234 52.1875 199.086 52.6016 198.984 53.0781C198.891 53.5469 198.844 54.0625 198.844 54.625V55.0938C198.844 55.6016 198.914 56.0703 199.055 56.5C199.203 56.9297 199.41 57.3008 199.676 57.6133C199.949 57.9258 200.277 58.168 200.66 58.3398C201.051 58.5117 201.492 58.5977 201.984 58.5977C202.594 58.5977 203.16 58.4805 203.684 58.2461C204.215 58.0039 204.672 57.6406 205.055 57.1562L206.695 58.9375C206.43 59.3203 206.066 59.6875 205.605 60.0391C205.152 60.3906 204.605 60.6797 203.965 60.9062C203.324 61.125 202.594 61.2344 201.773 61.2344ZM215.742 58.1406V52.4922C215.742 52.0859 215.676 51.7383 215.543 51.4492C215.41 51.1523 215.203 50.9219 214.922 50.7578C214.648 50.5938 214.293 50.5117 213.855 50.5117C213.48 50.5117 213.156 50.5781 212.883 50.7109C212.609 50.8359 212.398 51.0195 212.25 51.2617C212.102 51.4961 212.027 51.7734 212.027 52.0938H208.652C208.652 51.5547 208.777 51.043 209.027 50.5586C209.277 50.0742 209.641 49.6484 210.117 49.2812C210.594 48.9062 211.16 48.6133 211.816 48.4023C212.48 48.1914 213.223 48.0859 214.043 48.0859C215.027 48.0859 215.902 48.25 216.668 48.5781C217.434 48.9062 218.035 49.3984 218.473 50.0547C218.918 50.7109 219.141 51.5312 219.141 52.5156V57.9414C219.141 58.6367 219.184 59.207 219.27 59.6523C219.355 60.0898 219.48 60.4727 219.645 60.8008V61H216.234C216.07 60.6562 215.945 60.2266 215.859 59.7109C215.781 59.1875 215.742 58.6641 215.742 58.1406ZM216.188 53.2773L216.211 55.1875H214.324C213.879 55.1875 213.492 55.2383 213.164 55.3398C212.836 55.4414 212.566 55.5859 212.355 55.7734C212.145 55.9531 211.988 56.1641 211.887 56.4062C211.793 56.6484 211.746 56.9141 211.746 57.2031C211.746 57.4922 211.812 57.7539 211.945 57.9883C212.078 58.2148 212.27 58.3945 212.52 58.5273C212.77 58.6523 213.062 58.7148 213.398 58.7148C213.906 58.7148 214.348 58.6133 214.723 58.4102C215.098 58.207 215.387 57.957 215.59 57.6602C215.801 57.3633 215.91 57.082 215.918 56.8164L216.809 58.2461C216.684 58.5664 216.512 58.8984 216.293 59.2422C216.082 59.5859 215.812 59.9102 215.484 60.2148C215.156 60.5117 214.762 60.7578 214.301 60.9531C213.84 61.1406 213.293 61.2344 212.66 61.2344C211.855 61.2344 211.125 61.0742 210.469 60.7539C209.82 60.4258 209.305 59.9766 208.922 59.4062C208.547 58.8281 208.359 58.1719 208.359 57.4375C208.359 56.7734 208.484 56.1836 208.734 55.668C208.984 55.1523 209.352 54.7188 209.836 54.3672C210.328 54.0078 210.941 53.7383 211.676 53.5586C212.41 53.3711 213.262 53.2773 214.23 53.2773H216.188ZM225.117 50.9453V61H221.73V48.3203H224.906L225.117 50.9453ZM224.648 54.2148H223.711C223.711 53.332 223.816 52.5195 224.027 51.7773C224.246 51.0273 224.562 50.3789 224.977 49.832C225.398 49.2773 225.918 48.8477 226.535 48.543C227.152 48.2383 227.867 48.0859 228.68 48.0859C229.242 48.0859 229.758 48.1719 230.227 48.3438C230.695 48.5078 231.098 48.7695 231.434 49.1289C231.777 49.4805 232.043 49.9414 232.23 50.5117C232.418 51.0742 232.512 51.75 232.512 52.5391V61H229.137V52.9141C229.137 52.3359 229.059 51.8906 228.902 51.5781C228.746 51.2656 228.523 51.0469 228.234 50.9219C227.953 50.7969 227.613 50.7344 227.215 50.7344C226.777 50.7344 226.395 50.8242 226.066 51.0039C225.746 51.1836 225.48 51.4336 225.27 51.7539C225.059 52.0664 224.902 52.4336 224.801 52.8555C224.699 53.2773 224.648 53.7305 224.648 54.2148ZM232.195 53.8281L230.988 53.9805C230.988 53.1523 231.09 52.3828 231.293 51.6719C231.504 50.9609 231.812 50.3359 232.219 49.7969C232.633 49.2578 233.145 48.8398 233.754 48.543C234.363 48.2383 235.066 48.0859 235.863 48.0859C236.473 48.0859 237.027 48.1758 237.527 48.3555C238.027 48.5273 238.453 48.8047 238.805 49.1875C239.164 49.5625 239.438 50.0547 239.625 50.6641C239.82 51.2734 239.918 52.0195 239.918 52.9023V61H236.531V52.9023C236.531 52.3164 236.453 51.8711 236.297 51.5664C236.148 51.2539 235.93 51.0391 235.641 50.9219C235.359 50.7969 235.023 50.7344 234.633 50.7344C234.227 50.7344 233.871 50.8164 233.566 50.9805C233.262 51.1367 233.008 51.3555 232.805 51.6367C232.602 51.918 232.449 52.2461 232.348 52.6211C232.246 52.9883 232.195 53.3906 232.195 53.8281Z" fill="#888888"/>
<path d="M110.062 92.0469L101.742 119H92.9062L105.445 84.875H111.047L110.062 92.0469ZM116.953 119L108.609 92.0469L107.531 84.875H113.203L125.812 119H116.953ZM116.625 106.273V112.625H99.1172V106.273H116.625ZM135.258 115.906L142.055 84.875H146.109L148.312 87.5234L141.07 119H136.594L135.258 115.906ZM133.453 84.875L139.195 116.141L137.719 119H132.539L125.297 84.875H133.453ZM152.039 115.977L157.734 84.875H165.867L158.625 119H153.469L152.039 115.977ZM149.039 84.875L156 116.094L154.594 119H150.117L142.711 87.4766L145.008 84.875H149.039ZM186.68 109.93C186.68 109.398 186.602 108.922 186.445 108.5C186.289 108.062 186 107.656 185.578 107.281C185.156 106.906 184.547 106.531 183.75 106.156C182.969 105.766 181.938 105.359 180.656 104.938C179.156 104.438 177.711 103.875 176.32 103.25C174.93 102.609 173.688 101.867 172.594 101.023C171.5 100.164 170.633 99.1641 169.992 98.0234C169.352 96.8672 169.031 95.5234 169.031 93.9922C169.031 92.5234 169.359 91.2031 170.016 90.0312C170.672 88.8438 171.586 87.8359 172.758 87.0078C173.945 86.1641 175.336 85.5234 176.93 85.0859C178.523 84.6328 180.266 84.4062 182.156 84.4062C184.656 84.4062 186.859 84.8438 188.766 85.7188C190.688 86.5781 192.188 87.8047 193.266 89.3984C194.359 90.9766 194.906 92.8438 194.906 95H186.727C186.727 94.1406 186.547 93.3828 186.188 92.7266C185.844 92.0703 185.32 91.5547 184.617 91.1797C183.914 90.8047 183.031 90.6172 181.969 90.6172C180.938 90.6172 180.07 90.7734 179.367 91.0859C178.664 91.3984 178.133 91.8203 177.773 92.3516C177.414 92.8672 177.234 93.4375 177.234 94.0625C177.234 94.5781 177.375 95.0469 177.656 95.4688C177.953 95.875 178.367 96.2578 178.898 96.6172C179.445 96.9766 180.102 97.3203 180.867 97.6484C181.648 97.9766 182.523 98.2969 183.492 98.6094C185.305 99.1875 186.914 99.8359 188.32 100.555C189.742 101.258 190.938 102.062 191.906 102.969C192.891 103.859 193.633 104.875 194.133 106.016C194.648 107.156 194.906 108.445 194.906 109.883C194.906 111.414 194.609 112.773 194.016 113.961C193.422 115.148 192.57 116.156 191.461 116.984C190.352 117.797 189.023 118.414 187.477 118.836C185.93 119.258 184.203 119.469 182.297 119.469C180.547 119.469 178.82 119.25 177.117 118.812C175.43 118.359 173.898 117.672 172.523 116.75C171.148 115.812 170.047 114.617 169.219 113.164C168.406 111.695 168 109.953 168 107.938H176.25C176.25 108.938 176.383 109.781 176.648 110.469C176.914 111.156 177.305 111.711 177.82 112.133C178.336 112.539 178.969 112.836 179.719 113.023C180.469 113.195 181.328 113.281 182.297 113.281C183.344 113.281 184.188 113.133 184.828 112.836C185.469 112.523 185.938 112.117 186.234 111.617C186.531 111.102 186.68 110.539 186.68 109.93ZM222.188 119H214.617L214.664 112.672H222.188C223.75 112.672 225.07 112.297 226.148 111.547C227.242 110.797 228.07 109.68 228.633 108.195C229.211 106.695 229.5 104.852 229.5 102.664V101.188C229.5 99.5469 229.336 98.1094 229.008 96.875C228.695 95.625 228.227 94.5859 227.602 93.7578C226.977 92.9141 226.195 92.2812 225.258 91.8594C224.336 91.4375 223.273 91.2266 222.07 91.2266H214.477V84.875H222.07C224.383 84.875 226.5 85.2734 228.422 86.0703C230.359 86.8516 232.031 87.9766 233.438 89.4453C234.859 90.8984 235.953 92.625 236.719 94.625C237.5 96.6094 237.891 98.8125 237.891 101.234V102.664C237.891 105.07 237.5 107.273 236.719 109.273C235.953 111.273 234.867 113 233.461 114.453C232.055 115.906 230.391 117.031 228.469 117.828C226.562 118.609 224.469 119 222.188 119ZM219.328 84.875V119H211.102V84.875H219.328ZM254.086 119.469C252.023 119.469 250.18 119.148 248.555 118.508C246.93 117.852 245.555 116.953 244.43 115.812C243.32 114.672 242.469 113.359 241.875 111.875C241.297 110.391 241.008 108.82 241.008 107.164V106.273C241.008 104.414 241.266 102.695 241.781 101.117C242.297 99.5234 243.062 98.1328 244.078 96.9453C245.094 95.7578 246.367 94.8359 247.898 94.1797C249.43 93.5078 251.211 93.1719 253.242 93.1719C255.039 93.1719 256.648 93.4609 258.07 94.0391C259.492 94.6172 260.695 95.4453 261.68 96.5234C262.68 97.6016 263.438 98.9062 263.953 100.438C264.484 101.969 264.75 103.688 264.75 105.594V108.805H244.031V103.859H257.039V103.25C257.055 102.406 256.906 101.688 256.594 101.094C256.297 100.5 255.859 100.047 255.281 99.7344C254.703 99.4219 254 99.2656 253.172 99.2656C252.312 99.2656 251.602 99.4531 251.039 99.8281C250.492 100.203 250.062 100.719 249.75 101.375C249.453 102.016 249.242 102.758 249.117 103.602C248.992 104.445 248.93 105.336 248.93 106.273V107.164C248.93 108.102 249.055 108.953 249.305 109.719C249.57 110.484 249.945 111.141 250.43 111.688C250.93 112.219 251.523 112.633 252.211 112.93C252.914 113.227 253.711 113.375 254.602 113.375C255.68 113.375 256.742 113.172 257.789 112.766C258.836 112.359 259.734 111.688 260.484 110.75L264.07 115.016C263.555 115.75 262.82 116.461 261.867 117.148C260.93 117.836 259.805 118.398 258.492 118.836C257.18 119.258 255.711 119.469 254.086 119.469ZM275.93 98.5156V128.75H268.031V93.6406H275.391L275.93 98.5156ZM291.492 106.016V106.508C291.492 108.352 291.281 110.062 290.859 111.641C290.438 113.219 289.812 114.594 288.984 115.766C288.156 116.938 287.125 117.852 285.891 118.508C284.672 119.148 283.258 119.469 281.648 119.469C280.133 119.469 278.828 119.133 277.734 118.461C276.641 117.789 275.727 116.859 274.992 115.672C274.258 114.484 273.664 113.125 273.211 111.594C272.758 110.062 272.398 108.445 272.133 106.742V106.109C272.398 104.281 272.758 102.586 273.211 101.023C273.664 99.4453 274.258 98.0703 274.992 96.8984C275.727 95.7266 276.633 94.8125 277.711 94.1562C278.805 93.5 280.109 93.1719 281.625 93.1719C283.234 93.1719 284.648 93.4766 285.867 94.0859C287.102 94.6953 288.133 95.5703 288.961 96.7109C289.805 97.8359 290.438 99.1875 290.859 100.766C291.281 102.344 291.492 104.094 291.492 106.016ZM283.594 106.508V106.016C283.594 105.031 283.523 104.133 283.383 103.32C283.242 102.492 283.016 101.773 282.703 101.164C282.406 100.555 282.008 100.086 281.508 99.7578C281.008 99.4297 280.391 99.2656 279.656 99.2656C278.812 99.2656 278.102 99.3984 277.523 99.6641C276.961 99.9141 276.508 100.305 276.164 100.836C275.836 101.352 275.602 102 275.461 102.781C275.336 103.547 275.281 104.445 275.297 105.477V107.398C275.266 108.586 275.383 109.633 275.648 110.539C275.914 111.43 276.375 112.125 277.031 112.625C277.688 113.125 278.578 113.375 279.703 113.375C280.453 113.375 281.078 113.203 281.578 112.859C282.078 112.5 282.477 112.008 282.773 111.383C283.07 110.742 283.281 110.008 283.406 109.18C283.531 108.352 283.594 107.461 283.594 106.508ZM303.352 83V119H295.43V83H303.352ZM307.242 106.578V106.086C307.242 104.227 307.508 102.516 308.039 100.953C308.57 99.375 309.352 98.0078 310.383 96.8516C311.414 95.6953 312.688 94.7969 314.203 94.1562C315.719 93.5 317.469 93.1719 319.453 93.1719C321.453 93.1719 323.211 93.5 324.727 94.1562C326.258 94.7969 327.539 95.6953 328.57 96.8516C329.602 98.0078 330.383 99.375 330.914 100.953C331.445 102.516 331.711 104.227 331.711 106.086V106.578C331.711 108.422 331.445 110.133 330.914 111.711C330.383 113.273 329.602 114.641 328.57 115.812C327.539 116.969 326.266 117.867 324.75 118.508C323.234 119.148 321.484 119.469 319.5 119.469C317.516 119.469 315.758 119.148 314.227 118.508C312.695 117.867 311.414 116.969 310.383 115.812C309.352 114.641 308.57 113.273 308.039 111.711C307.508 110.133 307.242 108.422 307.242 106.578ZM315.141 106.086V106.578C315.141 107.531 315.211 108.422 315.352 109.25C315.492 110.078 315.727 110.805 316.055 111.43C316.383 112.039 316.828 112.516 317.391 112.859C317.953 113.203 318.656 113.375 319.5 113.375C320.328 113.375 321.016 113.203 321.562 112.859C322.125 112.516 322.57 112.039 322.898 111.43C323.227 110.805 323.461 110.078 323.602 109.25C323.742 108.422 323.812 107.531 323.812 106.578V106.086C323.812 105.164 323.742 104.297 323.602 103.484C323.461 102.656 323.227 101.93 322.898 101.305C322.57 100.664 322.125 100.164 321.562 99.8047C321 99.4453 320.297 99.2656 319.453 99.2656C318.625 99.2656 317.93 99.4453 317.367 99.8047C316.82 100.164 316.383 100.664 316.055 101.305C315.727 101.93 315.492 102.656 315.352 103.484C315.211 104.297 315.141 105.164 315.141 106.086ZM342.633 116.023L349.195 93.6406H357.68L347.484 122.773C347.266 123.414 346.977 124.102 346.617 124.836C346.258 125.586 345.766 126.297 345.141 126.969C344.516 127.641 343.711 128.188 342.727 128.609C341.758 129.031 340.555 129.242 339.117 129.242C338.352 129.242 337.789 129.203 337.43 129.125C337.086 129.062 336.555 128.945 335.836 128.773V123.125C336.039 123.125 336.211 123.125 336.352 123.125C336.508 123.125 336.68 123.125 336.867 123.125C337.711 123.125 338.383 123.039 338.883 122.867C339.398 122.695 339.789 122.445 340.055 122.117C340.336 121.789 340.555 121.391 340.711 120.922L342.633 116.023ZM340.969 93.6406L345.961 111.383L346.828 119.75H341.531L332.508 93.6406H340.969ZM367.711 99.0078V119H359.812V93.6406H367.219L367.711 99.0078ZM366.75 105.453L364.945 105.5C364.945 103.719 365.156 102.078 365.578 100.578C366 99.0781 366.625 97.7734 367.453 96.6641C368.281 95.5547 369.297 94.6953 370.5 94.0859C371.719 93.4766 373.125 93.1719 374.719 93.1719C375.828 93.1719 376.836 93.3438 377.742 93.6875C378.648 94.0156 379.43 94.5391 380.086 95.2578C380.742 95.9609 381.242 96.8828 381.586 98.0234C381.945 99.1484 382.125 100.5 382.125 102.078V119H374.227V103.086C374.227 102.008 374.102 101.195 373.852 100.648C373.617 100.102 373.273 99.7344 372.82 99.5469C372.367 99.3594 371.812 99.2656 371.156 99.2656C370.469 99.2656 369.852 99.4219 369.305 99.7344C368.758 100.047 368.289 100.484 367.898 101.047C367.523 101.594 367.234 102.242 367.031 102.992C366.844 103.742 366.75 104.562 366.75 105.453ZM381.234 105.453L379.031 105.5C379.031 103.719 379.227 102.078 379.617 100.578C380.023 99.0781 380.625 97.7734 381.422 96.6641C382.234 95.5547 383.242 94.6953 384.445 94.0859C385.648 93.4766 387.047 93.1719 388.641 93.1719C389.797 93.1719 390.859 93.3438 391.828 93.6875C392.797 94.0312 393.633 94.5859 394.336 95.3516C395.039 96.1172 395.586 97.1328 395.977 98.3984C396.367 99.6484 396.562 101.195 396.562 103.039V119H388.641V103.039C388.641 101.992 388.516 101.203 388.266 100.672C388.031 100.125 387.688 99.7578 387.234 99.5703C386.781 99.3672 386.242 99.2656 385.617 99.2656C384.867 99.2656 384.219 99.4219 383.672 99.7344C383.125 100.047 382.664 100.484 382.289 101.047C381.93 101.594 381.664 102.242 381.492 102.992C381.32 103.742 381.234 104.562 381.234 105.453ZM413.367 119.469C411.305 119.469 409.461 119.148 407.836 118.508C406.211 117.852 404.836 116.953 403.711 115.812C402.602 114.672 401.75 113.359 401.156 111.875C400.578 110.391 400.289 108.82 400.289 107.164V106.273C400.289 104.414 400.547 102.695 401.062 101.117C401.578 99.5234 402.344 98.1328 403.359 96.9453C404.375 95.7578 405.648 94.8359 407.18 94.1797C408.711 93.5078 410.492 93.1719 412.523 93.1719C414.32 93.1719 415.93 93.4609 417.352 94.0391C418.773 94.6172 419.977 95.4453 420.961 96.5234C421.961 97.6016 422.719 98.9062 423.234 100.438C423.766 101.969 424.031 103.688 424.031 105.594V108.805H403.312V103.859H416.32V103.25C416.336 102.406 416.188 101.688 415.875 101.094C415.578 100.5 415.141 100.047 414.562 99.7344C413.984 99.4219 413.281 99.2656 412.453 99.2656C411.594 99.2656 410.883 99.4531 410.32 99.8281C409.773 100.203 409.344 100.719 409.031 101.375C408.734 102.016 408.523 102.758 408.398 103.602C408.273 104.445 408.211 105.336 408.211 106.273V107.164C408.211 108.102 408.336 108.953 408.586 109.719C408.852 110.484 409.227 111.141 409.711 111.688C410.211 112.219 410.805 112.633 411.492 112.93C412.195 113.227 412.992 113.375 413.883 113.375C414.961 113.375 416.023 113.172 417.07 112.766C418.117 112.359 419.016 111.688 419.766 110.75L423.352 115.016C422.836 115.75 422.102 116.461 421.148 117.148C420.211 117.836 419.086 118.398 417.773 118.836C416.461 119.258 414.992 119.469 413.367 119.469ZM435 99.0547V119H427.102V93.6406H434.508L435 99.0547ZM434.062 105.453L432.211 105.5C432.211 103.562 432.445 101.836 432.914 100.32C433.383 98.7891 434.047 97.4922 434.906 96.4297C435.766 95.3672 436.789 94.5625 437.977 94.0156C439.18 93.4531 440.516 93.1719 441.984 93.1719C443.156 93.1719 444.227 93.3438 445.195 93.6875C446.18 94.0312 447.023 94.5859 447.727 95.3516C448.445 96.1172 448.992 97.1328 449.367 98.3984C449.758 99.6484 449.953 101.195 449.953 103.039V119H442.008V103.016C442.008 102 441.867 101.227 441.586 100.695C441.305 100.148 440.898 99.7734 440.367 99.5703C439.836 99.3672 439.188 99.2656 438.422 99.2656C437.609 99.2656 436.922 99.4219 436.359 99.7344C435.797 100.047 435.344 100.484 435 101.047C434.672 101.594 434.43 102.242 434.273 102.992C434.133 103.742 434.062 104.562 434.062 105.453ZM467.695 93.6406V99.125H452.414V93.6406H467.695ZM455.625 87.3359H463.523V110.727C463.523 111.398 463.602 111.922 463.758 112.297C463.914 112.656 464.18 112.914 464.555 113.07C464.945 113.211 465.461 113.281 466.102 113.281C466.555 113.281 466.93 113.273 467.227 113.258C467.523 113.227 467.805 113.188 468.07 113.141V118.789C467.398 119.008 466.695 119.172 465.961 119.281C465.227 119.406 464.445 119.469 463.617 119.469C461.93 119.469 460.484 119.203 459.281 118.672C458.094 118.141 457.188 117.305 456.562 116.164C455.938 115.023 455.625 113.539 455.625 111.711V87.3359Z" fill="black"/>
<path d="M1134 0H1348C1356.28 0 1363 6.71573 1363 15V148C1363 156.284 1356.28 163 1348 163H1134V0Z" fill="#FF6F61"/>
<path d="M1212.5 117.5L1212.5 45.5L1284.5 45.5L1284.5 117.5L1212.5 117.5Z" fill="white" fill-opacity="0.01"/>
<path d="M1221.5 81.5125L1221.5 108.5L1275.5 108.5L1275.5 81.5" stroke="white" stroke-width="7.24" stroke-linecap="round" stroke-linejoin="round"/>
<path d="M1262 68L1248.5 54.5L1235 68" stroke="white" stroke-width="7.24" stroke-linecap="round" stroke-linejoin="round"/>
<path d="M1248.49 93.5L1248.49 54.5" stroke="white" stroke-width="7.24" stroke-linecap="round" stroke-linejoin="round"/>
</svg>
