<svg width="1363" height="163" viewBox="0 0 1363 163" fill="none" xmlns="http://www.w3.org/2000/svg">
<path d="M0 15C0 6.71573 6.71573 0 15 0H37V163H15C6.71573 163 0 156.284 0 148V15Z" fill="#424242"/>
<rect width="1097" height="163" transform="translate(37)" fill="#F0F0F0"/>
<path d="M101.906 53.9219L94.3945 51.2383V48.0859L104.602 52.375V54.6367L101.906 53.9219ZM94.3945 56.1719L101.918 53.4297L104.602 52.7852V55.0352L94.3945 59.3242V56.1719ZM119.578 53.5117H115.195L115.172 51.0977H118.852C119.5 51.0977 120.031 51.0156 120.445 50.8516C120.859 50.6797 121.168 50.4336 121.371 50.1133C121.582 49.7852 121.688 49.3867 121.688 48.918C121.688 48.3867 121.586 47.957 121.383 47.6289C121.188 47.3008 120.879 47.0625 120.457 46.9141C120.043 46.7656 119.508 46.6914 118.852 46.6914H116.414V61H112.898V43.9375H118.852C119.844 43.9375 120.73 44.0312 121.512 44.2188C122.301 44.4062 122.969 44.6914 123.516 45.0742C124.062 45.457 124.48 45.9414 124.77 46.5273C125.059 47.1055 125.203 47.793 125.203 48.5898C125.203 49.293 125.043 49.9414 124.723 50.5352C124.41 51.1289 123.914 51.6133 123.234 51.9883C122.562 52.3633 121.684 52.5703 120.598 52.6094L119.578 53.5117ZM119.426 61H114.234L115.605 58.2578H119.426C120.043 58.2578 120.547 58.1602 120.938 57.9648C121.328 57.7617 121.617 57.4883 121.805 57.1445C121.992 56.8008 122.086 56.4062 122.086 55.9609C122.086 55.4609 122 55.0273 121.828 54.6602C121.664 54.293 121.398 54.0117 121.031 53.8164C120.664 53.6133 120.18 53.5117 119.578 53.5117H116.191L116.215 51.0977H120.434L121.242 52.0469C122.281 52.0312 123.117 52.2148 123.75 52.5977C124.391 52.9727 124.855 53.4609 125.145 54.0625C125.441 54.6641 125.59 55.3086 125.59 55.9961C125.59 57.0898 125.352 58.0117 124.875 58.7617C124.398 59.5039 123.699 60.0625 122.777 60.4375C121.863 60.8125 120.746 61 119.426 61ZM134.859 58.1406V52.4922C134.859 52.0859 134.793 51.7383 134.66 51.4492C134.527 51.1523 134.32 50.9219 134.039 50.7578C133.766 50.5938 133.41 50.5117 132.973 50.5117C132.598 50.5117 132.273 50.5781 132 50.7109C131.727 50.8359 131.516 51.0195 131.367 51.2617C131.219 51.4961 131.145 51.7734 131.145 52.0938H127.77C127.77 51.5547 127.895 51.043 128.145 50.5586C128.395 50.0742 128.758 49.6484 129.234 49.2812C129.711 48.9062 130.277 48.6133 130.934 48.4023C131.598 48.1914 132.34 48.0859 133.16 48.0859C134.145 48.0859 135.02 48.25 135.785 48.5781C136.551 48.9062 137.152 49.3984 137.59 50.0547C138.035 50.7109 138.258 51.5312 138.258 52.5156V57.9414C138.258 58.6367 138.301 59.207 138.387 59.6523C138.473 60.0898 138.598 60.4727 138.762 60.8008V61H135.352C135.188 60.6562 135.062 60.2266 134.977 59.7109C134.898 59.1875 134.859 58.6641 134.859 58.1406ZM135.305 53.2773L135.328 55.1875H133.441C132.996 55.1875 132.609 55.2383 132.281 55.3398C131.953 55.4414 131.684 55.5859 131.473 55.7734C131.262 55.9531 131.105 56.1641 131.004 56.4062C130.91 56.6484 130.863 56.9141 130.863 57.2031C130.863 57.4922 130.93 57.7539 131.062 57.9883C131.195 58.2148 131.387 58.3945 131.637 58.5273C131.887 58.6523 132.18 58.7148 132.516 58.7148C133.023 58.7148 133.465 58.6133 133.84 58.4102C134.215 58.207 134.504 57.957 134.707 57.6602C134.918 57.3633 135.027 57.082 135.035 56.8164L135.926 58.2461C135.801 58.5664 135.629 58.8984 135.41 59.2422C135.199 59.5859 134.93 59.9102 134.602 60.2148C134.273 60.5117 133.879 60.7578 133.418 60.9531C132.957 61.1406 132.41 61.2344 131.777 61.2344C130.973 61.2344 130.242 61.0742 129.586 60.7539C128.938 60.4258 128.422 59.9766 128.039 59.4062C127.664 58.8281 127.477 58.1719 127.477 57.4375C127.477 56.7734 127.602 56.1836 127.852 55.668C128.102 55.1523 128.469 54.7188 128.953 54.3672C129.445 54.0078 130.059 53.7383 130.793 53.5586C131.527 53.3711 132.379 53.2773 133.348 53.2773H135.305ZM144.422 43V61H141.035V43H144.422ZM154.055 58.1406V52.4922C154.055 52.0859 153.988 51.7383 153.855 51.4492C153.723 51.1523 153.516 50.9219 153.234 50.7578C152.961 50.5938 152.605 50.5117 152.168 50.5117C151.793 50.5117 151.469 50.5781 151.195 50.7109C150.922 50.8359 150.711 51.0195 150.562 51.2617C150.414 51.4961 150.34 51.7734 150.34 52.0938H146.965C146.965 51.5547 147.09 51.043 147.34 50.5586C147.59 50.0742 147.953 49.6484 148.43 49.2812C148.906 48.9062 149.473 48.6133 150.129 48.4023C150.793 48.1914 151.535 48.0859 152.355 48.0859C153.34 48.0859 154.215 48.25 154.98 48.5781C155.746 48.9062 156.348 49.3984 156.785 50.0547C157.23 50.7109 157.453 51.5312 157.453 52.5156V57.9414C157.453 58.6367 157.496 59.207 157.582 59.6523C157.668 60.0898 157.793 60.4727 157.957 60.8008V61H154.547C154.383 60.6562 154.258 60.2266 154.172 59.7109C154.094 59.1875 154.055 58.6641 154.055 58.1406ZM154.5 53.2773L154.523 55.1875H152.637C152.191 55.1875 151.805 55.2383 151.477 55.3398C151.148 55.4414 150.879 55.5859 150.668 55.7734C150.457 55.9531 150.301 56.1641 150.199 56.4062C150.105 56.6484 150.059 56.9141 150.059 57.2031C150.059 57.4922 150.125 57.7539 150.258 57.9883C150.391 58.2148 150.582 58.3945 150.832 58.5273C151.082 58.6523 151.375 58.7148 151.711 58.7148C152.219 58.7148 152.66 58.6133 153.035 58.4102C153.41 58.207 153.699 57.957 153.902 57.6602C154.113 57.3633 154.223 57.082 154.23 56.8164L155.121 58.2461C154.996 58.5664 154.824 58.8984 154.605 59.2422C154.395 59.5859 154.125 59.9102 153.797 60.2148C153.469 60.5117 153.074 60.7578 152.613 60.9531C152.152 61.1406 151.605 61.2344 150.973 61.2344C150.168 61.2344 149.438 61.0742 148.781 60.7539C148.133 60.4258 147.617 59.9766 147.234 59.4062C146.859 58.8281 146.672 58.1719 146.672 57.4375C146.672 56.7734 146.797 56.1836 147.047 55.668C147.297 55.1523 147.664 54.7188 148.148 54.3672C148.641 54.0078 149.254 53.7383 149.988 53.5586C150.723 53.3711 151.574 53.2773 152.543 53.2773H154.5ZM163.359 51.0273V61H159.984V48.3203H163.148L163.359 51.0273ZM162.867 54.2148H161.953C161.953 53.2773 162.074 52.4336 162.316 51.6836C162.559 50.9258 162.898 50.2812 163.336 49.75C163.773 49.2109 164.293 48.8008 164.895 48.5195C165.504 48.2305 166.184 48.0859 166.934 48.0859C167.527 48.0859 168.07 48.1719 168.562 48.3438C169.055 48.5156 169.477 48.7891 169.828 49.1641C170.188 49.5391 170.461 50.0352 170.648 50.6523C170.844 51.2695 170.941 52.0234 170.941 52.9141V61H167.543V52.9023C167.543 52.3398 167.465 51.9023 167.309 51.5898C167.152 51.2773 166.922 51.0586 166.617 50.9336C166.32 50.8008 165.953 50.7344 165.516 50.7344C165.062 50.7344 164.668 50.8242 164.332 51.0039C164.004 51.1836 163.73 51.4336 163.512 51.7539C163.301 52.0664 163.141 52.4336 163.031 52.8555C162.922 53.2773 162.867 53.7305 162.867 54.2148ZM178.746 58.5977C179.16 58.5977 179.527 58.5195 179.848 58.3633C180.168 58.1992 180.418 57.9727 180.598 57.6836C180.785 57.3867 180.883 57.0391 180.891 56.6406H184.066C184.059 57.5312 183.82 58.3242 183.352 59.0195C182.883 59.707 182.254 60.25 181.465 60.6484C180.676 61.0391 179.793 61.2344 178.816 61.2344C177.832 61.2344 176.973 61.0703 176.238 60.7422C175.512 60.4141 174.906 59.9609 174.422 59.3828C173.938 58.7969 173.574 58.1172 173.332 57.3438C173.09 56.5625 172.969 55.7266 172.969 54.8359V54.4961C172.969 53.5977 173.09 52.7617 173.332 51.9883C173.574 51.207 173.938 50.5273 174.422 49.9492C174.906 49.3633 175.512 48.9062 176.238 48.5781C176.965 48.25 177.816 48.0859 178.793 48.0859C179.832 48.0859 180.742 48.2852 181.523 48.6836C182.312 49.082 182.93 49.6523 183.375 50.3945C183.828 51.1289 184.059 52 184.066 53.0078H180.891C180.883 52.5859 180.793 52.2031 180.621 51.8594C180.457 51.5156 180.215 51.2422 179.895 51.0391C179.582 50.8281 179.195 50.7227 178.734 50.7227C178.242 50.7227 177.84 50.8281 177.527 51.0391C177.215 51.2422 176.973 51.5234 176.801 51.8828C176.629 52.2344 176.508 52.6367 176.438 53.0898C176.375 53.5352 176.344 54.0039 176.344 54.4961V54.8359C176.344 55.3281 176.375 55.8008 176.438 56.2539C176.5 56.707 176.617 57.1094 176.789 57.4609C176.969 57.8125 177.215 58.0898 177.527 58.293C177.84 58.4961 178.246 58.5977 178.746 58.5977ZM191.859 61.2344C190.875 61.2344 189.992 61.0781 189.211 60.7656C188.43 60.4453 187.766 60.0039 187.219 59.4414C186.68 58.8789 186.266 58.2266 185.977 57.4844C185.688 56.7344 185.543 55.9375 185.543 55.0938V54.625C185.543 53.6641 185.68 52.7852 185.953 51.9883C186.227 51.1914 186.617 50.5 187.125 49.9141C187.641 49.3281 188.266 48.8789 189 48.5664C189.734 48.2461 190.562 48.0859 191.484 48.0859C192.383 48.0859 193.18 48.2344 193.875 48.5312C194.57 48.8281 195.152 49.25 195.621 49.7969C196.098 50.3438 196.457 51 196.699 51.7656C196.941 52.5234 197.062 53.3672 197.062 54.2969V55.7031H186.984V53.4531H193.746V53.1953C193.746 52.7266 193.66 52.3086 193.488 51.9414C193.324 51.5664 193.074 51.2695 192.738 51.0508C192.402 50.832 191.973 50.7227 191.449 50.7227C191.004 50.7227 190.621 50.8203 190.301 51.0156C189.98 51.2109 189.719 51.4844 189.516 51.8359C189.32 52.1875 189.172 52.6016 189.07 53.0781C188.977 53.5469 188.93 54.0625 188.93 54.625V55.0938C188.93 55.6016 189 56.0703 189.141 56.5C189.289 56.9297 189.496 57.3008 189.762 57.6133C190.035 57.9258 190.363 58.168 190.746 58.3398C191.137 58.5117 191.578 58.5977 192.07 58.5977C192.68 58.5977 193.246 58.4805 193.77 58.2461C194.301 58.0039 194.758 57.6406 195.141 57.1562L196.781 58.9375C196.516 59.3203 196.152 59.6875 195.691 60.0391C195.238 60.3906 194.691 60.6797 194.051 60.9062C193.41 61.125 192.68 61.2344 191.859 61.2344ZM205.875 53.5117H201.492L201.469 51.0977H205.148C205.797 51.0977 206.328 51.0156 206.742 50.8516C207.156 50.6797 207.465 50.4336 207.668 50.1133C207.879 49.7852 207.984 49.3867 207.984 48.918C207.984 48.3867 207.883 47.957 207.68 47.6289C207.484 47.3008 207.176 47.0625 206.754 46.9141C206.34 46.7656 205.805 46.6914 205.148 46.6914H202.711V61H199.195V43.9375H205.148C206.141 43.9375 207.027 44.0312 207.809 44.2188C208.598 44.4062 209.266 44.6914 209.812 45.0742C210.359 45.457 210.777 45.9414 211.066 46.5273C211.355 47.1055 211.5 47.793 211.5 48.5898C211.5 49.293 211.34 49.9414 211.02 50.5352C210.707 51.1289 210.211 51.6133 209.531 51.9883C208.859 52.3633 207.98 52.5703 206.895 52.6094L205.875 53.5117ZM205.723 61H200.531L201.902 58.2578H205.723C206.34 58.2578 206.844 58.1602 207.234 57.9648C207.625 57.7617 207.914 57.4883 208.102 57.1445C208.289 56.8008 208.383 56.4062 208.383 55.9609C208.383 55.4609 208.297 55.0273 208.125 54.6602C207.961 54.293 207.695 54.0117 207.328 53.8164C206.961 53.6133 206.477 53.5117 205.875 53.5117H202.488L202.512 51.0977H206.73L207.539 52.0469C208.578 52.0312 209.414 52.2148 210.047 52.5977C210.688 52.9727 211.152 53.4609 211.441 54.0625C211.738 54.6641 211.887 55.3086 211.887 55.9961C211.887 57.0898 211.648 58.0117 211.172 58.7617C210.695 59.5039 209.996 60.0625 209.074 60.4375C208.16 60.8125 207.043 61 205.723 61ZM220.148 61.2344C219.164 61.2344 218.281 61.0781 217.5 60.7656C216.719 60.4453 216.055 60.0039 215.508 59.4414C214.969 58.8789 214.555 58.2266 214.266 57.4844C213.977 56.7344 213.832 55.9375 213.832 55.0938V54.625C213.832 53.6641 213.969 52.7852 214.242 51.9883C214.516 51.1914 214.906 50.5 215.414 49.9141C215.93 49.3281 216.555 48.8789 217.289 48.5664C218.023 48.2461 218.852 48.0859 219.773 48.0859C220.672 48.0859 221.469 48.2344 222.164 48.5312C222.859 48.8281 223.441 49.25 223.91 49.7969C224.387 50.3438 224.746 51 224.988 51.7656C225.23 52.5234 225.352 53.3672 225.352 54.2969V55.7031H215.273V53.4531H222.035V53.1953C222.035 52.7266 221.949 52.3086 221.777 51.9414C221.613 51.5664 221.363 51.2695 221.027 51.0508C220.691 50.832 220.262 50.7227 219.738 50.7227C219.293 50.7227 218.91 50.8203 218.59 51.0156C218.27 51.2109 218.008 51.4844 217.805 51.8359C217.609 52.1875 217.461 52.6016 217.359 53.0781C217.266 53.5469 217.219 54.0625 217.219 54.625V55.0938C217.219 55.6016 217.289 56.0703 217.43 56.5C217.578 56.9297 217.785 57.3008 218.051 57.6133C218.324 57.9258 218.652 58.168 219.035 58.3398C219.426 58.5117 219.867 58.5977 220.359 58.5977C220.969 58.5977 221.535 58.4805 222.059 58.2461C222.59 58.0039 223.047 57.6406 223.43 57.1562L225.07 58.9375C224.805 59.3203 224.441 59.6875 223.98 60.0391C223.527 60.3906 222.98 60.6797 222.34 60.9062C221.699 61.125 220.969 61.2344 220.148 61.2344ZM234.117 58.1406V52.4922C234.117 52.0859 234.051 51.7383 233.918 51.4492C233.785 51.1523 233.578 50.9219 233.297 50.7578C233.023 50.5938 232.668 50.5117 232.23 50.5117C231.855 50.5117 231.531 50.5781 231.258 50.7109C230.984 50.8359 230.773 51.0195 230.625 51.2617C230.477 51.4961 230.402 51.7734 230.402 52.0938H227.027C227.027 51.5547 227.152 51.043 227.402 50.5586C227.652 50.0742 228.016 49.6484 228.492 49.2812C228.969 48.9062 229.535 48.6133 230.191 48.4023C230.855 48.1914 231.598 48.0859 232.418 48.0859C233.402 48.0859 234.277 48.25 235.043 48.5781C235.809 48.9062 236.41 49.3984 236.848 50.0547C237.293 50.7109 237.516 51.5312 237.516 52.5156V57.9414C237.516 58.6367 237.559 59.207 237.645 59.6523C237.73 60.0898 237.855 60.4727 238.02 60.8008V61H234.609C234.445 60.6562 234.32 60.2266 234.234 59.7109C234.156 59.1875 234.117 58.6641 234.117 58.1406ZM234.562 53.2773L234.586 55.1875H232.699C232.254 55.1875 231.867 55.2383 231.539 55.3398C231.211 55.4414 230.941 55.5859 230.73 55.7734C230.52 55.9531 230.363 56.1641 230.262 56.4062C230.168 56.6484 230.121 56.9141 230.121 57.2031C230.121 57.4922 230.188 57.7539 230.32 57.9883C230.453 58.2148 230.645 58.3945 230.895 58.5273C231.145 58.6523 231.438 58.7148 231.773 58.7148C232.281 58.7148 232.723 58.6133 233.098 58.4102C233.473 58.207 233.762 57.957 233.965 57.6602C234.176 57.3633 234.285 57.082 234.293 56.8164L235.184 58.2461C235.059 58.5664 234.887 58.8984 234.668 59.2422C234.457 59.5859 234.188 59.9102 233.859 60.2148C233.531 60.5117 233.137 60.7578 232.676 60.9531C232.215 61.1406 231.668 61.2344 231.035 61.2344C230.23 61.2344 229.5 61.0742 228.844 60.7539C228.195 60.4258 227.68 59.9766 227.297 59.4062C226.922 58.8281 226.734 58.1719 226.734 57.4375C226.734 56.7734 226.859 56.1836 227.109 55.668C227.359 55.1523 227.727 54.7188 228.211 54.3672C228.703 54.0078 229.316 53.7383 230.051 53.5586C230.785 53.3711 231.637 53.2773 232.605 53.2773H234.562ZM243.492 50.9453V61H240.105V48.3203H243.281L243.492 50.9453ZM243.023 54.2148H242.086C242.086 53.332 242.191 52.5195 242.402 51.7773C242.621 51.0273 242.938 50.3789 243.352 49.832C243.773 49.2773 244.293 48.8477 244.91 48.543C245.527 48.2383 246.242 48.0859 247.055 48.0859C247.617 48.0859 248.133 48.1719 248.602 48.3438C249.07 48.5078 249.473 48.7695 249.809 49.1289C250.152 49.4805 250.418 49.9414 250.605 50.5117C250.793 51.0742 250.887 51.75 250.887 52.5391V61H247.512V52.9141C247.512 52.3359 247.434 51.8906 247.277 51.5781C247.121 51.2656 246.898 51.0469 246.609 50.9219C246.328 50.7969 245.988 50.7344 245.59 50.7344C245.152 50.7344 244.77 50.8242 244.441 51.0039C244.121 51.1836 243.855 51.4336 243.645 51.7539C243.434 52.0664 243.277 52.4336 243.176 52.8555C243.074 53.2773 243.023 53.7305 243.023 54.2148ZM250.57 53.8281L249.363 53.9805C249.363 53.1523 249.465 52.3828 249.668 51.6719C249.879 50.9609 250.188 50.3359 250.594 49.7969C251.008 49.2578 251.52 48.8398 252.129 48.543C252.738 48.2383 253.441 48.0859 254.238 48.0859C254.848 48.0859 255.402 48.1758 255.902 48.3555C256.402 48.5273 256.828 48.8047 257.18 49.1875C257.539 49.5625 257.812 50.0547 258 50.6641C258.195 51.2734 258.293 52.0195 258.293 52.9023V61H254.906V52.9023C254.906 52.3164 254.828 51.8711 254.672 51.5664C254.523 51.2539 254.305 51.0391 254.016 50.9219C253.734 50.7969 253.398 50.7344 253.008 50.7344C252.602 50.7344 252.246 50.8164 251.941 50.9805C251.637 51.1367 251.383 51.3555 251.18 51.6367C250.977 51.918 250.824 52.2461 250.723 52.6211C250.621 52.9883 250.57 53.3906 250.57 53.8281Z" fill="#888888"/>
<path d="M110.062 92.0469L101.742 119H92.9062L105.445 84.875H111.047L110.062 92.0469ZM116.953 119L108.609 92.0469L107.531 84.875H113.203L125.812 119H116.953ZM116.625 106.273V112.625H99.1172V106.273H116.625ZM135.258 115.906L142.055 84.875H146.109L148.312 87.5234L141.07 119H136.594L135.258 115.906ZM133.453 84.875L139.195 116.141L137.719 119H132.539L125.297 84.875H133.453ZM152.039 115.977L157.734 84.875H165.867L158.625 119H153.469L152.039 115.977ZM149.039 84.875L156 116.094L154.594 119H150.117L142.711 87.4766L145.008 84.875H149.039ZM186.68 109.93C186.68 109.398 186.602 108.922 186.445 108.5C186.289 108.062 186 107.656 185.578 107.281C185.156 106.906 184.547 106.531 183.75 106.156C182.969 105.766 181.938 105.359 180.656 104.938C179.156 104.438 177.711 103.875 176.32 103.25C174.93 102.609 173.688 101.867 172.594 101.023C171.5 100.164 170.633 99.1641 169.992 98.0234C169.352 96.8672 169.031 95.5234 169.031 93.9922C169.031 92.5234 169.359 91.2031 170.016 90.0312C170.672 88.8438 171.586 87.8359 172.758 87.0078C173.945 86.1641 175.336 85.5234 176.93 85.0859C178.523 84.6328 180.266 84.4062 182.156 84.4062C184.656 84.4062 186.859 84.8438 188.766 85.7188C190.688 86.5781 192.188 87.8047 193.266 89.3984C194.359 90.9766 194.906 92.8438 194.906 95H186.727C186.727 94.1406 186.547 93.3828 186.188 92.7266C185.844 92.0703 185.32 91.5547 184.617 91.1797C183.914 90.8047 183.031 90.6172 181.969 90.6172C180.938 90.6172 180.07 90.7734 179.367 91.0859C178.664 91.3984 178.133 91.8203 177.773 92.3516C177.414 92.8672 177.234 93.4375 177.234 94.0625C177.234 94.5781 177.375 95.0469 177.656 95.4688C177.953 95.875 178.367 96.2578 178.898 96.6172C179.445 96.9766 180.102 97.3203 180.867 97.6484C181.648 97.9766 182.523 98.2969 183.492 98.6094C185.305 99.1875 186.914 99.8359 188.32 100.555C189.742 101.258 190.938 102.062 191.906 102.969C192.891 103.859 193.633 104.875 194.133 106.016C194.648 107.156 194.906 108.445 194.906 109.883C194.906 111.414 194.609 112.773 194.016 113.961C193.422 115.148 192.57 116.156 191.461 116.984C190.352 117.797 189.023 118.414 187.477 118.836C185.93 119.258 184.203 119.469 182.297 119.469C180.547 119.469 178.82 119.25 177.117 118.812C175.43 118.359 173.898 117.672 172.523 116.75C171.148 115.812 170.047 114.617 169.219 113.164C168.406 111.695 168 109.953 168 107.938H176.25C176.25 108.938 176.383 109.781 176.648 110.469C176.914 111.156 177.305 111.711 177.82 112.133C178.336 112.539 178.969 112.836 179.719 113.023C180.469 113.195 181.328 113.281 182.297 113.281C183.344 113.281 184.188 113.133 184.828 112.836C185.469 112.523 185.938 112.117 186.234 111.617C186.531 111.102 186.68 110.539 186.68 109.93ZM222.188 119H214.617L214.664 112.672H222.188C223.75 112.672 225.07 112.297 226.148 111.547C227.242 110.797 228.07 109.68 228.633 108.195C229.211 106.695 229.5 104.852 229.5 102.664V101.188C229.5 99.5469 229.336 98.1094 229.008 96.875C228.695 95.625 228.227 94.5859 227.602 93.7578C226.977 92.9141 226.195 92.2812 225.258 91.8594C224.336 91.4375 223.273 91.2266 222.07 91.2266H214.477V84.875H222.07C224.383 84.875 226.5 85.2734 228.422 86.0703C230.359 86.8516 232.031 87.9766 233.438 89.4453C234.859 90.8984 235.953 92.625 236.719 94.625C237.5 96.6094 237.891 98.8125 237.891 101.234V102.664C237.891 105.07 237.5 107.273 236.719 109.273C235.953 111.273 234.867 113 233.461 114.453C232.055 115.906 230.391 117.031 228.469 117.828C226.562 118.609 224.469 119 222.188 119ZM219.328 84.875V119H211.102V84.875H219.328ZM254.086 119.469C252.023 119.469 250.18 119.148 248.555 118.508C246.93 117.852 245.555 116.953 244.43 115.812C243.32 114.672 242.469 113.359 241.875 111.875C241.297 110.391 241.008 108.82 241.008 107.164V106.273C241.008 104.414 241.266 102.695 241.781 101.117C242.297 99.5234 243.062 98.1328 244.078 96.9453C245.094 95.7578 246.367 94.8359 247.898 94.1797C249.43 93.5078 251.211 93.1719 253.242 93.1719C255.039 93.1719 256.648 93.4609 258.07 94.0391C259.492 94.6172 260.695 95.4453 261.68 96.5234C262.68 97.6016 263.438 98.9062 263.953 100.438C264.484 101.969 264.75 103.688 264.75 105.594V108.805H244.031V103.859H257.039V103.25C257.055 102.406 256.906 101.688 256.594 101.094C256.297 100.5 255.859 100.047 255.281 99.7344C254.703 99.4219 254 99.2656 253.172 99.2656C252.312 99.2656 251.602 99.4531 251.039 99.8281C250.492 100.203 250.062 100.719 249.75 101.375C249.453 102.016 249.242 102.758 249.117 103.602C248.992 104.445 248.93 105.336 248.93 106.273V107.164C248.93 108.102 249.055 108.953 249.305 109.719C249.57 110.484 249.945 111.141 250.43 111.688C250.93 112.219 251.523 112.633 252.211 112.93C252.914 113.227 253.711 113.375 254.602 113.375C255.68 113.375 256.742 113.172 257.789 112.766C258.836 112.359 259.734 111.688 260.484 110.75L264.07 115.016C263.555 115.75 262.82 116.461 261.867 117.148C260.93 117.836 259.805 118.398 258.492 118.836C257.18 119.258 255.711 119.469 254.086 119.469ZM275.93 98.5156V128.75H268.031V93.6406H275.391L275.93 98.5156ZM291.492 106.016V106.508C291.492 108.352 291.281 110.062 290.859 111.641C290.438 113.219 289.812 114.594 288.984 115.766C288.156 116.938 287.125 117.852 285.891 118.508C284.672 119.148 283.258 119.469 281.648 119.469C280.133 119.469 278.828 119.133 277.734 118.461C276.641 117.789 275.727 116.859 274.992 115.672C274.258 114.484 273.664 113.125 273.211 111.594C272.758 110.062 272.398 108.445 272.133 106.742V106.109C272.398 104.281 272.758 102.586 273.211 101.023C273.664 99.4453 274.258 98.0703 274.992 96.8984C275.727 95.7266 276.633 94.8125 277.711 94.1562C278.805 93.5 280.109 93.1719 281.625 93.1719C283.234 93.1719 284.648 93.4766 285.867 94.0859C287.102 94.6953 288.133 95.5703 288.961 96.7109C289.805 97.8359 290.438 99.1875 290.859 100.766C291.281 102.344 291.492 104.094 291.492 106.016ZM283.594 106.508V106.016C283.594 105.031 283.523 104.133 283.383 103.32C283.242 102.492 283.016 101.773 282.703 101.164C282.406 100.555 282.008 100.086 281.508 99.7578C281.008 99.4297 280.391 99.2656 279.656 99.2656C278.812 99.2656 278.102 99.3984 277.523 99.6641C276.961 99.9141 276.508 100.305 276.164 100.836C275.836 101.352 275.602 102 275.461 102.781C275.336 103.547 275.281 104.445 275.297 105.477V107.398C275.266 108.586 275.383 109.633 275.648 110.539C275.914 111.43 276.375 112.125 277.031 112.625C277.688 113.125 278.578 113.375 279.703 113.375C280.453 113.375 281.078 113.203 281.578 112.859C282.078 112.5 282.477 112.008 282.773 111.383C283.07 110.742 283.281 110.008 283.406 109.18C283.531 108.352 283.594 107.461 283.594 106.508ZM303.352 83V119H295.43V83H303.352ZM307.242 106.578V106.086C307.242 104.227 307.508 102.516 308.039 100.953C308.57 99.375 309.352 98.0078 310.383 96.8516C311.414 95.6953 312.688 94.7969 314.203 94.1562C315.719 93.5 317.469 93.1719 319.453 93.1719C321.453 93.1719 323.211 93.5 324.727 94.1562C326.258 94.7969 327.539 95.6953 328.57 96.8516C329.602 98.0078 330.383 99.375 330.914 100.953C331.445 102.516 331.711 104.227 331.711 106.086V106.578C331.711 108.422 331.445 110.133 330.914 111.711C330.383 113.273 329.602 114.641 328.57 115.812C327.539 116.969 326.266 117.867 324.75 118.508C323.234 119.148 321.484 119.469 319.5 119.469C317.516 119.469 315.758 119.148 314.227 118.508C312.695 117.867 311.414 116.969 310.383 115.812C309.352 114.641 308.57 113.273 308.039 111.711C307.508 110.133 307.242 108.422 307.242 106.578ZM315.141 106.086V106.578C315.141 107.531 315.211 108.422 315.352 109.25C315.492 110.078 315.727 110.805 316.055 111.43C316.383 112.039 316.828 112.516 317.391 112.859C317.953 113.203 318.656 113.375 319.5 113.375C320.328 113.375 321.016 113.203 321.562 112.859C322.125 112.516 322.57 112.039 322.898 111.43C323.227 110.805 323.461 110.078 323.602 109.25C323.742 108.422 323.812 107.531 323.812 106.578V106.086C323.812 105.164 323.742 104.297 323.602 103.484C323.461 102.656 323.227 101.93 322.898 101.305C322.57 100.664 322.125 100.164 321.562 99.8047C321 99.4453 320.297 99.2656 319.453 99.2656C318.625 99.2656 317.93 99.4453 317.367 99.8047C316.82 100.164 316.383 100.664 316.055 101.305C315.727 101.93 315.492 102.656 315.352 103.484C315.211 104.297 315.141 105.164 315.141 106.086ZM342.633 116.023L349.195 93.6406H357.68L347.484 122.773C347.266 123.414 346.977 124.102 346.617 124.836C346.258 125.586 345.766 126.297 345.141 126.969C344.516 127.641 343.711 128.188 342.727 128.609C341.758 129.031 340.555 129.242 339.117 129.242C338.352 129.242 337.789 129.203 337.43 129.125C337.086 129.062 336.555 128.945 335.836 128.773V123.125C336.039 123.125 336.211 123.125 336.352 123.125C336.508 123.125 336.68 123.125 336.867 123.125C337.711 123.125 338.383 123.039 338.883 122.867C339.398 122.695 339.789 122.445 340.055 122.117C340.336 121.789 340.555 121.391 340.711 120.922L342.633 116.023ZM340.969 93.6406L345.961 111.383L346.828 119.75H341.531L332.508 93.6406H340.969ZM367.711 99.0078V119H359.812V93.6406H367.219L367.711 99.0078ZM366.75 105.453L364.945 105.5C364.945 103.719 365.156 102.078 365.578 100.578C366 99.0781 366.625 97.7734 367.453 96.6641C368.281 95.5547 369.297 94.6953 370.5 94.0859C371.719 93.4766 373.125 93.1719 374.719 93.1719C375.828 93.1719 376.836 93.3438 377.742 93.6875C378.648 94.0156 379.43 94.5391 380.086 95.2578C380.742 95.9609 381.242 96.8828 381.586 98.0234C381.945 99.1484 382.125 100.5 382.125 102.078V119H374.227V103.086C374.227 102.008 374.102 101.195 373.852 100.648C373.617 100.102 373.273 99.7344 372.82 99.5469C372.367 99.3594 371.812 99.2656 371.156 99.2656C370.469 99.2656 369.852 99.4219 369.305 99.7344C368.758 100.047 368.289 100.484 367.898 101.047C367.523 101.594 367.234 102.242 367.031 102.992C366.844 103.742 366.75 104.562 366.75 105.453ZM381.234 105.453L379.031 105.5C379.031 103.719 379.227 102.078 379.617 100.578C380.023 99.0781 380.625 97.7734 381.422 96.6641C382.234 95.5547 383.242 94.6953 384.445 94.0859C385.648 93.4766 387.047 93.1719 388.641 93.1719C389.797 93.1719 390.859 93.3438 391.828 93.6875C392.797 94.0312 393.633 94.5859 394.336 95.3516C395.039 96.1172 395.586 97.1328 395.977 98.3984C396.367 99.6484 396.562 101.195 396.562 103.039V119H388.641V103.039C388.641 101.992 388.516 101.203 388.266 100.672C388.031 100.125 387.688 99.7578 387.234 99.5703C386.781 99.3672 386.242 99.2656 385.617 99.2656C384.867 99.2656 384.219 99.4219 383.672 99.7344C383.125 100.047 382.664 100.484 382.289 101.047C381.93 101.594 381.664 102.242 381.492 102.992C381.32 103.742 381.234 104.562 381.234 105.453ZM413.367 119.469C411.305 119.469 409.461 119.148 407.836 118.508C406.211 117.852 404.836 116.953 403.711 115.812C402.602 114.672 401.75 113.359 401.156 111.875C400.578 110.391 400.289 108.82 400.289 107.164V106.273C400.289 104.414 400.547 102.695 401.062 101.117C401.578 99.5234 402.344 98.1328 403.359 96.9453C404.375 95.7578 405.648 94.8359 407.18 94.1797C408.711 93.5078 410.492 93.1719 412.523 93.1719C414.32 93.1719 415.93 93.4609 417.352 94.0391C418.773 94.6172 419.977 95.4453 420.961 96.5234C421.961 97.6016 422.719 98.9062 423.234 100.438C423.766 101.969 424.031 103.688 424.031 105.594V108.805H403.312V103.859H416.32V103.25C416.336 102.406 416.188 101.688 415.875 101.094C415.578 100.5 415.141 100.047 414.562 99.7344C413.984 99.4219 413.281 99.2656 412.453 99.2656C411.594 99.2656 410.883 99.4531 410.32 99.8281C409.773 100.203 409.344 100.719 409.031 101.375C408.734 102.016 408.523 102.758 408.398 103.602C408.273 104.445 408.211 105.336 408.211 106.273V107.164C408.211 108.102 408.336 108.953 408.586 109.719C408.852 110.484 409.227 111.141 409.711 111.688C410.211 112.219 410.805 112.633 411.492 112.93C412.195 113.227 412.992 113.375 413.883 113.375C414.961 113.375 416.023 113.172 417.07 112.766C418.117 112.359 419.016 111.688 419.766 110.75L423.352 115.016C422.836 115.75 422.102 116.461 421.148 117.148C420.211 117.836 419.086 118.398 417.773 118.836C416.461 119.258 414.992 119.469 413.367 119.469ZM435 99.0547V119H427.102V93.6406H434.508L435 99.0547ZM434.062 105.453L432.211 105.5C432.211 103.562 432.445 101.836 432.914 100.32C433.383 98.7891 434.047 97.4922 434.906 96.4297C435.766 95.3672 436.789 94.5625 437.977 94.0156C439.18 93.4531 440.516 93.1719 441.984 93.1719C443.156 93.1719 444.227 93.3438 445.195 93.6875C446.18 94.0312 447.023 94.5859 447.727 95.3516C448.445 96.1172 448.992 97.1328 449.367 98.3984C449.758 99.6484 449.953 101.195 449.953 103.039V119H442.008V103.016C442.008 102 441.867 101.227 441.586 100.695C441.305 100.148 440.898 99.7734 440.367 99.5703C439.836 99.3672 439.188 99.2656 438.422 99.2656C437.609 99.2656 436.922 99.4219 436.359 99.7344C435.797 100.047 435.344 100.484 435 101.047C434.672 101.594 434.43 102.242 434.273 102.992C434.133 103.742 434.062 104.562 434.062 105.453ZM467.695 93.6406V99.125H452.414V93.6406H467.695ZM455.625 87.3359H463.523V110.727C463.523 111.398 463.602 111.922 463.758 112.297C463.914 112.656 464.18 112.914 464.555 113.07C464.945 113.211 465.461 113.281 466.102 113.281C466.555 113.281 466.93 113.273 467.227 113.258C467.523 113.227 467.805 113.188 468.07 113.141V118.789C467.398 119.008 466.695 119.172 465.961 119.281C465.227 119.406 464.445 119.469 463.617 119.469C461.93 119.469 460.484 119.203 459.281 118.672C458.094 118.141 457.188 117.305 456.562 116.164C455.938 115.023 455.625 113.539 455.625 111.711V87.3359Z" fill="black"/>
<path d="M1134 0H1348C1356.28 0 1363 6.71573 1363 15V148C1363 156.284 1356.28 163 1348 163H1134V0Z" fill="#FF6F61"/>
<path d="M1212.5 117.5L1212.5 45.5L1284.5 45.5L1284.5 117.5L1212.5 117.5Z" fill="white" fill-opacity="0.01"/>
<path d="M1221.5 81.5125L1221.5 108.5L1275.5 108.5L1275.5 81.5" stroke="white" stroke-width="7.24" stroke-linecap="round" stroke-linejoin="round"/>
<path d="M1262 68L1248.5 54.5L1235 68" stroke="white" stroke-width="7.24" stroke-linecap="round" stroke-linejoin="round"/>
<path d="M1248.49 93.5L1248.49 54.5" stroke="white" stroke-width="7.24" stroke-linecap="round" stroke-linejoin="round"/>
</svg>
