<svg width="1363" height="163" viewBox="0 0 1363 163" fill="none" xmlns="http://www.w3.org/2000/svg">
<path d="M0 15C0 6.71573 6.71573 0 15 0H37V163H15C6.71573 163 0 156.284 0 148V15Z" fill="#424242"/>
<rect width="1097" height="163" transform="translate(37)" fill="#F0F0F0"/>
<path d="M101.203 53.5117H96.8203L96.7969 51.0977H100.477C101.125 51.0977 101.656 51.0156 102.07 50.8516C102.484 50.6797 102.793 50.4336 102.996 50.1133C103.207 49.7852 103.312 49.3867 103.312 48.918C103.312 48.3867 103.211 47.957 103.008 47.6289C102.812 47.3008 102.504 47.0625 102.082 46.9141C101.668 46.7656 101.133 46.6914 100.477 46.6914H98.0391V61H94.5234V43.9375H100.477C101.469 43.9375 102.355 44.0312 103.137 44.2188C103.926 44.4062 104.594 44.6914 105.141 45.0742C105.688 45.457 106.105 45.9414 106.395 46.5273C106.684 47.1055 106.828 47.793 106.828 48.5898C106.828 49.293 106.668 49.9414 106.348 50.5352C106.035 51.1289 105.539 51.6133 104.859 51.9883C104.188 52.3633 103.309 52.5703 102.223 52.6094L101.203 53.5117ZM101.051 61H95.8594L97.2305 58.2578H101.051C101.668 58.2578 102.172 58.1602 102.562 57.9648C102.953 57.7617 103.242 57.4883 103.43 57.1445C103.617 56.8008 103.711 56.4062 103.711 55.9609C103.711 55.4609 103.625 55.0273 103.453 54.6602C103.289 54.293 103.023 54.0117 102.656 53.8164C102.289 53.6133 101.805 53.5117 101.203 53.5117H97.8164L97.8398 51.0977H102.059L102.867 52.0469C103.906 52.0312 104.742 52.2148 105.375 52.5977C106.016 52.9727 106.48 53.4609 106.77 54.0625C107.066 54.6641 107.215 55.3086 107.215 55.9961C107.215 57.0898 106.977 58.0117 106.5 58.7617C106.023 59.5039 105.324 60.0625 104.402 60.4375C103.488 60.8125 102.371 61 101.051 61ZM116.484 58.1406V52.4922C116.484 52.0859 116.418 51.7383 116.285 51.4492C116.152 51.1523 115.945 50.9219 115.664 50.7578C115.391 50.5938 115.035 50.5117 114.598 50.5117C114.223 50.5117 113.898 50.5781 113.625 50.7109C113.352 50.8359 113.141 51.0195 112.992 51.2617C112.844 51.4961 112.77 51.7734 112.77 52.0938H109.395C109.395 51.5547 109.52 51.043 109.77 50.5586C110.02 50.0742 110.383 49.6484 110.859 49.2812C111.336 48.9062 111.902 48.6133 112.559 48.4023C113.223 48.1914 113.965 48.0859 114.785 48.0859C115.77 48.0859 116.645 48.25 117.41 48.5781C118.176 48.9062 118.777 49.3984 119.215 50.0547C119.66 50.7109 119.883 51.5312 119.883 52.5156V57.9414C119.883 58.6367 119.926 59.207 120.012 59.6523C120.098 60.0898 120.223 60.4727 120.387 60.8008V61H116.977C116.812 60.6562 116.688 60.2266 116.602 59.7109C116.523 59.1875 116.484 58.6641 116.484 58.1406ZM116.93 53.2773L116.953 55.1875H115.066C114.621 55.1875 114.234 55.2383 113.906 55.3398C113.578 55.4414 113.309 55.5859 113.098 55.7734C112.887 55.9531 112.73 56.1641 112.629 56.4062C112.535 56.6484 112.488 56.9141 112.488 57.2031C112.488 57.4922 112.555 57.7539 112.688 57.9883C112.82 58.2148 113.012 58.3945 113.262 58.5273C113.512 58.6523 113.805 58.7148 114.141 58.7148C114.648 58.7148 115.09 58.6133 115.465 58.4102C115.84 58.207 116.129 57.957 116.332 57.6602C116.543 57.3633 116.652 57.082 116.66 56.8164L117.551 58.2461C117.426 58.5664 117.254 58.8984 117.035 59.2422C116.824 59.5859 116.555 59.9102 116.227 60.2148C115.898 60.5117 115.504 60.7578 115.043 60.9531C114.582 61.1406 114.035 61.2344 113.402 61.2344C112.598 61.2344 111.867 61.0742 111.211 60.7539C110.562 60.4258 110.047 59.9766 109.664 59.4062C109.289 58.8281 109.102 58.1719 109.102 57.4375C109.102 56.7734 109.227 56.1836 109.477 55.668C109.727 55.1523 110.094 54.7188 110.578 54.3672C111.07 54.0078 111.684 53.7383 112.418 53.5586C113.152 53.3711 114.004 53.2773 114.973 53.2773H116.93ZM126.047 43V61H122.66V43H126.047ZM135.68 58.1406V52.4922C135.68 52.0859 135.613 51.7383 135.48 51.4492C135.348 51.1523 135.141 50.9219 134.859 50.7578C134.586 50.5938 134.23 50.5117 133.793 50.5117C133.418 50.5117 133.094 50.5781 132.82 50.7109C132.547 50.8359 132.336 51.0195 132.188 51.2617C132.039 51.4961 131.965 51.7734 131.965 52.0938H128.59C128.59 51.5547 128.715 51.043 128.965 50.5586C129.215 50.0742 129.578 49.6484 130.055 49.2812C130.531 48.9062 131.098 48.6133 131.754 48.4023C132.418 48.1914 133.16 48.0859 133.98 48.0859C134.965 48.0859 135.84 48.25 136.605 48.5781C137.371 48.9062 137.973 49.3984 138.41 50.0547C138.855 50.7109 139.078 51.5312 139.078 52.5156V57.9414C139.078 58.6367 139.121 59.207 139.207 59.6523C139.293 60.0898 139.418 60.4727 139.582 60.8008V61H136.172C136.008 60.6562 135.883 60.2266 135.797 59.7109C135.719 59.1875 135.68 58.6641 135.68 58.1406ZM136.125 53.2773L136.148 55.1875H134.262C133.816 55.1875 133.43 55.2383 133.102 55.3398C132.773 55.4414 132.504 55.5859 132.293 55.7734C132.082 55.9531 131.926 56.1641 131.824 56.4062C131.73 56.6484 131.684 56.9141 131.684 57.2031C131.684 57.4922 131.75 57.7539 131.883 57.9883C132.016 58.2148 132.207 58.3945 132.457 58.5273C132.707 58.6523 133 58.7148 133.336 58.7148C133.844 58.7148 134.285 58.6133 134.66 58.4102C135.035 58.207 135.324 57.957 135.527 57.6602C135.738 57.3633 135.848 57.082 135.855 56.8164L136.746 58.2461C136.621 58.5664 136.449 58.8984 136.23 59.2422C136.02 59.5859 135.75 59.9102 135.422 60.2148C135.094 60.5117 134.699 60.7578 134.238 60.9531C133.777 61.1406 133.23 61.2344 132.598 61.2344C131.793 61.2344 131.062 61.0742 130.406 60.7539C129.758 60.4258 129.242 59.9766 128.859 59.4062C128.484 58.8281 128.297 58.1719 128.297 57.4375C128.297 56.7734 128.422 56.1836 128.672 55.668C128.922 55.1523 129.289 54.7188 129.773 54.3672C130.266 54.0078 130.879 53.7383 131.613 53.5586C132.348 53.3711 133.199 53.2773 134.168 53.2773H136.125ZM144.984 51.0273V61H141.609V48.3203H144.773L144.984 51.0273ZM144.492 54.2148H143.578C143.578 53.2773 143.699 52.4336 143.941 51.6836C144.184 50.9258 144.523 50.2812 144.961 49.75C145.398 49.2109 145.918 48.8008 146.52 48.5195C147.129 48.2305 147.809 48.0859 148.559 48.0859C149.152 48.0859 149.695 48.1719 150.188 48.3438C150.68 48.5156 151.102 48.7891 151.453 49.1641C151.812 49.5391 152.086 50.0352 152.273 50.6523C152.469 51.2695 152.566 52.0234 152.566 52.9141V61H149.168V52.9023C149.168 52.3398 149.09 51.9023 148.934 51.5898C148.777 51.2773 148.547 51.0586 148.242 50.9336C147.945 50.8008 147.578 50.7344 147.141 50.7344C146.688 50.7344 146.293 50.8242 145.957 51.0039C145.629 51.1836 145.355 51.4336 145.137 51.7539C144.926 52.0664 144.766 52.4336 144.656 52.8555C144.547 53.2773 144.492 53.7305 144.492 54.2148ZM160.371 58.5977C160.785 58.5977 161.152 58.5195 161.473 58.3633C161.793 58.1992 162.043 57.9727 162.223 57.6836C162.41 57.3867 162.508 57.0391 162.516 56.6406H165.691C165.684 57.5312 165.445 58.3242 164.977 59.0195C164.508 59.707 163.879 60.25 163.09 60.6484C162.301 61.0391 161.418 61.2344 160.441 61.2344C159.457 61.2344 158.598 61.0703 157.863 60.7422C157.137 60.4141 156.531 59.9609 156.047 59.3828C155.562 58.7969 155.199 58.1172 154.957 57.3438C154.715 56.5625 154.594 55.7266 154.594 54.8359V54.4961C154.594 53.5977 154.715 52.7617 154.957 51.9883C155.199 51.207 155.562 50.5273 156.047 49.9492C156.531 49.3633 157.137 48.9062 157.863 48.5781C158.59 48.25 159.441 48.0859 160.418 48.0859C161.457 48.0859 162.367 48.2852 163.148 48.6836C163.938 49.082 164.555 49.6523 165 50.3945C165.453 51.1289 165.684 52 165.691 53.0078H162.516C162.508 52.5859 162.418 52.2031 162.246 51.8594C162.082 51.5156 161.84 51.2422 161.52 51.0391C161.207 50.8281 160.82 50.7227 160.359 50.7227C159.867 50.7227 159.465 50.8281 159.152 51.0391C158.84 51.2422 158.598 51.5234 158.426 51.8828C158.254 52.2344 158.133 52.6367 158.062 53.0898C158 53.5352 157.969 54.0039 157.969 54.4961V54.8359C157.969 55.3281 158 55.8008 158.062 56.2539C158.125 56.707 158.242 57.1094 158.414 57.4609C158.594 57.8125 158.84 58.0898 159.152 58.293C159.465 58.4961 159.871 58.5977 160.371 58.5977ZM173.484 61.2344C172.5 61.2344 171.617 61.0781 170.836 60.7656C170.055 60.4453 169.391 60.0039 168.844 59.4414C168.305 58.8789 167.891 58.2266 167.602 57.4844C167.312 56.7344 167.168 55.9375 167.168 55.0938V54.625C167.168 53.6641 167.305 52.7852 167.578 51.9883C167.852 51.1914 168.242 50.5 168.75 49.9141C169.266 49.3281 169.891 48.8789 170.625 48.5664C171.359 48.2461 172.188 48.0859 173.109 48.0859C174.008 48.0859 174.805 48.2344 175.5 48.5312C176.195 48.8281 176.777 49.25 177.246 49.7969C177.723 50.3438 178.082 51 178.324 51.7656C178.566 52.5234 178.688 53.3672 178.688 54.2969V55.7031H168.609V53.4531H175.371V53.1953C175.371 52.7266 175.285 52.3086 175.113 51.9414C174.949 51.5664 174.699 51.2695 174.363 51.0508C174.027 50.832 173.598 50.7227 173.074 50.7227C172.629 50.7227 172.246 50.8203 171.926 51.0156C171.605 51.2109 171.344 51.4844 171.141 51.8359C170.945 52.1875 170.797 52.6016 170.695 53.0781C170.602 53.5469 170.555 54.0625 170.555 54.625V55.0938C170.555 55.6016 170.625 56.0703 170.766 56.5C170.914 56.9297 171.121 57.3008 171.387 57.6133C171.66 57.9258 171.988 58.168 172.371 58.3398C172.762 58.5117 173.203 58.5977 173.695 58.5977C174.305 58.5977 174.871 58.4805 175.395 58.2461C175.926 58.0039 176.383 57.6406 176.766 57.1562L178.406 58.9375C178.141 59.3203 177.777 59.6875 177.316 60.0391C176.863 60.3906 176.316 60.6797 175.676 60.9062C175.035 61.125 174.305 61.2344 173.484 61.2344ZM187.5 53.5117H183.117L183.094 51.0977H186.773C187.422 51.0977 187.953 51.0156 188.367 50.8516C188.781 50.6797 189.09 50.4336 189.293 50.1133C189.504 49.7852 189.609 49.3867 189.609 48.918C189.609 48.3867 189.508 47.957 189.305 47.6289C189.109 47.3008 188.801 47.0625 188.379 46.9141C187.965 46.7656 187.43 46.6914 186.773 46.6914H184.336V61H180.82V43.9375H186.773C187.766 43.9375 188.652 44.0312 189.434 44.2188C190.223 44.4062 190.891 44.6914 191.438 45.0742C191.984 45.457 192.402 45.9414 192.691 46.5273C192.98 47.1055 193.125 47.793 193.125 48.5898C193.125 49.293 192.965 49.9414 192.645 50.5352C192.332 51.1289 191.836 51.6133 191.156 51.9883C190.484 52.3633 189.605 52.5703 188.52 52.6094L187.5 53.5117ZM187.348 61H182.156L183.527 58.2578H187.348C187.965 58.2578 188.469 58.1602 188.859 57.9648C189.25 57.7617 189.539 57.4883 189.727 57.1445C189.914 56.8008 190.008 56.4062 190.008 55.9609C190.008 55.4609 189.922 55.0273 189.75 54.6602C189.586 54.293 189.32 54.0117 188.953 53.8164C188.586 53.6133 188.102 53.5117 187.5 53.5117H184.113L184.137 51.0977H188.355L189.164 52.0469C190.203 52.0312 191.039 52.2148 191.672 52.5977C192.312 52.9727 192.777 53.4609 193.066 54.0625C193.363 54.6641 193.512 55.3086 193.512 55.9961C193.512 57.0898 193.273 58.0117 192.797 58.7617C192.32 59.5039 191.621 60.0625 190.699 60.4375C189.785 60.8125 188.668 61 187.348 61ZM201.773 61.2344C200.789 61.2344 199.906 61.0781 199.125 60.7656C198.344 60.4453 197.68 60.0039 197.133 59.4414C196.594 58.8789 196.18 58.2266 195.891 57.4844C195.602 56.7344 195.457 55.9375 195.457 55.0938V54.625C195.457 53.6641 195.594 52.7852 195.867 51.9883C196.141 51.1914 196.531 50.5 197.039 49.9141C197.555 49.3281 198.18 48.8789 198.914 48.5664C199.648 48.2461 200.477 48.0859 201.398 48.0859C202.297 48.0859 203.094 48.2344 203.789 48.5312C204.484 48.8281 205.066 49.25 205.535 49.7969C206.012 50.3438 206.371 51 206.613 51.7656C206.855 52.5234 206.977 53.3672 206.977 54.2969V55.7031H196.898V53.4531H203.66V53.1953C203.66 52.7266 203.574 52.3086 203.402 51.9414C203.238 51.5664 202.988 51.2695 202.652 51.0508C202.316 50.832 201.887 50.7227 201.363 50.7227C200.918 50.7227 200.535 50.8203 200.215 51.0156C199.895 51.2109 199.633 51.4844 199.43 51.8359C199.234 52.1875 199.086 52.6016 198.984 53.0781C198.891 53.5469 198.844 54.0625 198.844 54.625V55.0938C198.844 55.6016 198.914 56.0703 199.055 56.5C199.203 56.9297 199.41 57.3008 199.676 57.6133C199.949 57.9258 200.277 58.168 200.66 58.3398C201.051 58.5117 201.492 58.5977 201.984 58.5977C202.594 58.5977 203.16 58.4805 203.684 58.2461C204.215 58.0039 204.672 57.6406 205.055 57.1562L206.695 58.9375C206.43 59.3203 206.066 59.6875 205.605 60.0391C205.152 60.3906 204.605 60.6797 203.965 60.9062C203.324 61.125 202.594 61.2344 201.773 61.2344ZM215.742 58.1406V52.4922C215.742 52.0859 215.676 51.7383 215.543 51.4492C215.41 51.1523 215.203 50.9219 214.922 50.7578C214.648 50.5938 214.293 50.5117 213.855 50.5117C213.48 50.5117 213.156 50.5781 212.883 50.7109C212.609 50.8359 212.398 51.0195 212.25 51.2617C212.102 51.4961 212.027 51.7734 212.027 52.0938H208.652C208.652 51.5547 208.777 51.043 209.027 50.5586C209.277 50.0742 209.641 49.6484 210.117 49.2812C210.594 48.9062 211.16 48.6133 211.816 48.4023C212.48 48.1914 213.223 48.0859 214.043 48.0859C215.027 48.0859 215.902 48.25 216.668 48.5781C217.434 48.9062 218.035 49.3984 218.473 50.0547C218.918 50.7109 219.141 51.5312 219.141 52.5156V57.9414C219.141 58.6367 219.184 59.207 219.27 59.6523C219.355 60.0898 219.48 60.4727 219.645 60.8008V61H216.234C216.07 60.6562 215.945 60.2266 215.859 59.7109C215.781 59.1875 215.742 58.6641 215.742 58.1406ZM216.188 53.2773L216.211 55.1875H214.324C213.879 55.1875 213.492 55.2383 213.164 55.3398C212.836 55.4414 212.566 55.5859 212.355 55.7734C212.145 55.9531 211.988 56.1641 211.887 56.4062C211.793 56.6484 211.746 56.9141 211.746 57.2031C211.746 57.4922 211.812 57.7539 211.945 57.9883C212.078 58.2148 212.27 58.3945 212.52 58.5273C212.77 58.6523 213.062 58.7148 213.398 58.7148C213.906 58.7148 214.348 58.6133 214.723 58.4102C215.098 58.207 215.387 57.957 215.59 57.6602C215.801 57.3633 215.91 57.082 215.918 56.8164L216.809 58.2461C216.684 58.5664 216.512 58.8984 216.293 59.2422C216.082 59.5859 215.812 59.9102 215.484 60.2148C215.156 60.5117 214.762 60.7578 214.301 60.9531C213.84 61.1406 213.293 61.2344 212.66 61.2344C211.855 61.2344 211.125 61.0742 210.469 60.7539C209.82 60.4258 209.305 59.9766 208.922 59.4062C208.547 58.8281 208.359 58.1719 208.359 57.4375C208.359 56.7734 208.484 56.1836 208.734 55.668C208.984 55.1523 209.352 54.7188 209.836 54.3672C210.328 54.0078 210.941 53.7383 211.676 53.5586C212.41 53.3711 213.262 53.2773 214.23 53.2773H216.188ZM225.117 50.9453V61H221.73V48.3203H224.906L225.117 50.9453ZM224.648 54.2148H223.711C223.711 53.332 223.816 52.5195 224.027 51.7773C224.246 51.0273 224.562 50.3789 224.977 49.832C225.398 49.2773 225.918 48.8477 226.535 48.543C227.152 48.2383 227.867 48.0859 228.68 48.0859C229.242 48.0859 229.758 48.1719 230.227 48.3438C230.695 48.5078 231.098 48.7695 231.434 49.1289C231.777 49.4805 232.043 49.9414 232.23 50.5117C232.418 51.0742 232.512 51.75 232.512 52.5391V61H229.137V52.9141C229.137 52.3359 229.059 51.8906 228.902 51.5781C228.746 51.2656 228.523 51.0469 228.234 50.9219C227.953 50.7969 227.613 50.7344 227.215 50.7344C226.777 50.7344 226.395 50.8242 226.066 51.0039C225.746 51.1836 225.48 51.4336 225.27 51.7539C225.059 52.0664 224.902 52.4336 224.801 52.8555C224.699 53.2773 224.648 53.7305 224.648 54.2148ZM232.195 53.8281L230.988 53.9805C230.988 53.1523 231.09 52.3828 231.293 51.6719C231.504 50.9609 231.812 50.3359 232.219 49.7969C232.633 49.2578 233.145 48.8398 233.754 48.543C234.363 48.2383 235.066 48.0859 235.863 48.0859C236.473 48.0859 237.027 48.1758 237.527 48.3555C238.027 48.5273 238.453 48.8047 238.805 49.1875C239.164 49.5625 239.438 50.0547 239.625 50.6641C239.82 51.2734 239.918 52.0195 239.918 52.9023V61H236.531V52.9023C236.531 52.3164 236.453 51.8711 236.297 51.5664C236.148 51.2539 235.93 51.0391 235.641 50.9219C235.359 50.7969 235.023 50.7344 234.633 50.7344C234.227 50.7344 233.871 50.8164 233.566 50.9805C233.262 51.1367 233.008 51.3555 232.805 51.6367C232.602 51.918 232.449 52.2461 232.348 52.6211C232.246 52.9883 232.195 53.3906 232.195 53.8281Z" fill="#888888"/>
<path d="M114.117 84.875H122.344V107.164C122.344 109.82 121.789 112.07 120.68 113.914C119.57 115.742 118.016 117.125 116.016 118.062C114.016 119 111.664 119.469 108.961 119.469C106.289 119.469 103.938 119 101.906 118.062C99.8906 117.125 98.3125 115.742 97.1719 113.914C96.0469 112.07 95.4844 109.82 95.4844 107.164V84.875H103.734V107.164C103.734 108.57 103.938 109.719 104.344 110.609C104.75 111.484 105.344 112.125 106.125 112.531C106.906 112.938 107.852 113.141 108.961 113.141C110.086 113.141 111.031 112.938 111.797 112.531C112.562 112.125 113.141 111.484 113.531 110.609C113.922 109.719 114.117 108.57 114.117 107.164V84.875ZM134.906 99.0547V119H127.008V93.6406H134.414L134.906 99.0547ZM133.969 105.453L132.117 105.5C132.117 103.562 132.352 101.836 132.82 100.32C133.289 98.7891 133.953 97.4922 134.812 96.4297C135.672 95.3672 136.695 94.5625 137.883 94.0156C139.086 93.4531 140.422 93.1719 141.891 93.1719C143.062 93.1719 144.133 93.3438 145.102 93.6875C146.086 94.0312 146.93 94.5859 147.633 95.3516C148.352 96.1172 148.898 97.1328 149.273 98.3984C149.664 99.6484 149.859 101.195 149.859 103.039V119H141.914V103.016C141.914 102 141.773 101.227 141.492 100.695C141.211 100.148 140.805 99.7734 140.273 99.5703C139.742 99.3672 139.094 99.2656 138.328 99.2656C137.516 99.2656 136.828 99.4219 136.266 99.7344C135.703 100.047 135.25 100.484 134.906 101.047C134.578 101.594 134.336 102.242 134.18 102.992C134.039 103.742 133.969 104.562 133.969 105.453ZM162.586 93.6406V119H154.664V93.6406H162.586ZM154.195 87.1016C154.195 85.9766 154.602 85.0547 155.414 84.3359C156.227 83.6172 157.281 83.2578 158.578 83.2578C159.875 83.2578 160.93 83.6172 161.742 84.3359C162.555 85.0547 162.961 85.9766 162.961 87.1016C162.961 88.2266 162.555 89.1484 161.742 89.8672C160.93 90.5859 159.875 90.9453 158.578 90.9453C157.281 90.9453 156.227 90.5859 155.414 89.8672C154.602 89.1484 154.195 88.2266 154.195 87.1016ZM180.82 93.6406V99.125H165.539V93.6406H180.82ZM168.75 87.3359H176.648V110.727C176.648 111.398 176.727 111.922 176.883 112.297C177.039 112.656 177.305 112.914 177.68 113.07C178.07 113.211 178.586 113.281 179.227 113.281C179.68 113.281 180.055 113.273 180.352 113.258C180.648 113.227 180.93 113.188 181.195 113.141V118.789C180.523 119.008 179.82 119.172 179.086 119.281C178.352 119.406 177.57 119.469 176.742 119.469C175.055 119.469 173.609 119.203 172.406 118.672C171.219 118.141 170.312 117.305 169.688 116.164C169.062 115.023 168.75 113.539 168.75 111.711V87.3359ZM211.406 84.875V119H203.18V84.875H211.406ZM221.672 84.875V91.2266H193.148V84.875H221.672ZM234.961 119.469C232.898 119.469 231.055 119.148 229.43 118.508C227.805 117.852 226.43 116.953 225.305 115.812C224.195 114.672 223.344 113.359 222.75 111.875C222.172 110.391 221.883 108.82 221.883 107.164V106.273C221.883 104.414 222.141 102.695 222.656 101.117C223.172 99.5234 223.938 98.1328 224.953 96.9453C225.969 95.7578 227.242 94.8359 228.773 94.1797C230.305 93.5078 232.086 93.1719 234.117 93.1719C235.914 93.1719 237.523 93.4609 238.945 94.0391C240.367 94.6172 241.57 95.4453 242.555 96.5234C243.555 97.6016 244.312 98.9062 244.828 100.438C245.359 101.969 245.625 103.688 245.625 105.594V108.805H224.906V103.859H237.914V103.25C237.93 102.406 237.781 101.688 237.469 101.094C237.172 100.5 236.734 100.047 236.156 99.7344C235.578 99.4219 234.875 99.2656 234.047 99.2656C233.188 99.2656 232.477 99.4531 231.914 99.8281C231.367 100.203 230.938 100.719 230.625 101.375C230.328 102.016 230.117 102.758 229.992 103.602C229.867 104.445 229.805 105.336 229.805 106.273V107.164C229.805 108.102 229.93 108.953 230.18 109.719C230.445 110.484 230.82 111.141 231.305 111.688C231.805 112.219 232.398 112.633 233.086 112.93C233.789 113.227 234.586 113.375 235.477 113.375C236.555 113.375 237.617 113.172 238.664 112.766C239.711 112.359 240.609 111.688 241.359 110.75L244.945 115.016C244.43 115.75 243.695 116.461 242.742 117.148C241.805 117.836 240.68 118.398 239.367 118.836C238.055 119.258 236.586 119.469 234.961 119.469ZM262.125 111.875C262.125 111.438 261.977 111.062 261.68 110.75C261.398 110.422 260.898 110.125 260.18 109.859C259.461 109.578 258.453 109.297 257.156 109.016C255.922 108.75 254.758 108.398 253.664 107.961C252.586 107.523 251.641 106.992 250.828 106.367C250.016 105.742 249.375 105 248.906 104.141C248.453 103.281 248.227 102.297 248.227 101.188C248.227 100.109 248.453 99.0938 248.906 98.1406C249.375 97.1719 250.055 96.3203 250.945 95.5859C251.852 94.8359 252.953 94.25 254.25 93.8281C255.547 93.3906 257.023 93.1719 258.68 93.1719C260.961 93.1719 262.93 93.5234 264.586 94.2266C266.242 94.9141 267.516 95.8828 268.406 97.1328C269.312 98.3672 269.766 99.7969 269.766 101.422H261.867C261.867 100.781 261.758 100.234 261.539 99.7812C261.336 99.3281 261 98.9844 260.531 98.75C260.062 98.5 259.438 98.375 258.656 98.375C258.109 98.375 257.609 98.4766 257.156 98.6797C256.719 98.8828 256.367 99.1641 256.102 99.5234C255.836 99.8828 255.703 100.305 255.703 100.789C255.703 101.133 255.781 101.445 255.938 101.727C256.109 101.992 256.367 102.242 256.711 102.477C257.055 102.695 257.492 102.898 258.023 103.086C258.555 103.258 259.195 103.414 259.945 103.555C261.648 103.867 263.242 104.312 264.727 104.891C266.211 105.469 267.414 106.289 268.336 107.352C269.273 108.414 269.742 109.844 269.742 111.641C269.742 112.766 269.484 113.805 268.969 114.758C268.453 115.695 267.711 116.523 266.742 117.242C265.773 117.945 264.609 118.492 263.25 118.883C261.891 119.273 260.359 119.469 258.656 119.469C256.234 119.469 254.188 119.039 252.516 118.18C250.844 117.305 249.578 116.211 248.719 114.898C247.875 113.57 247.453 112.227 247.453 110.867H254.812C254.844 111.648 255.031 112.289 255.375 112.789C255.734 113.289 256.211 113.656 256.805 113.891C257.398 114.125 258.086 114.242 258.867 114.242C259.586 114.242 260.18 114.141 260.648 113.938C261.133 113.734 261.5 113.461 261.75 113.117C262 112.758 262.125 112.344 262.125 111.875ZM286.805 93.6406V99.125H271.523V93.6406H286.805ZM274.734 87.3359H282.633V110.727C282.633 111.398 282.711 111.922 282.867 112.297C283.023 112.656 283.289 112.914 283.664 113.07C284.055 113.211 284.57 113.281 285.211 113.281C285.664 113.281 286.039 113.273 286.336 113.258C286.633 113.227 286.914 113.188 287.18 113.141V118.789C286.508 119.008 285.805 119.172 285.07 119.281C284.336 119.406 283.555 119.469 282.727 119.469C281.039 119.469 279.594 119.203 278.391 118.672C277.203 118.141 276.297 117.305 275.672 116.164C275.047 115.023 274.734 113.539 274.734 111.711V87.3359ZM298.289 93.6406V119H290.367V93.6406H298.289ZM289.898 87.1016C289.898 85.9766 290.305 85.0547 291.117 84.3359C291.93 83.6172 292.984 83.2578 294.281 83.2578C295.578 83.2578 296.633 83.6172 297.445 84.3359C298.258 85.0547 298.664 85.9766 298.664 87.1016C298.664 88.2266 298.258 89.1484 297.445 89.8672C296.633 90.5859 295.578 90.9453 294.281 90.9453C292.984 90.9453 291.93 90.5859 291.117 89.8672C290.305 89.1484 289.898 88.2266 289.898 87.1016ZM310.922 99.0547V119H303.023V93.6406H310.43L310.922 99.0547ZM309.984 105.453L308.133 105.5C308.133 103.562 308.367 101.836 308.836 100.32C309.305 98.7891 309.969 97.4922 310.828 96.4297C311.688 95.3672 312.711 94.5625 313.898 94.0156C315.102 93.4531 316.438 93.1719 317.906 93.1719C319.078 93.1719 320.148 93.3438 321.117 93.6875C322.102 94.0312 322.945 94.5859 323.648 95.3516C324.367 96.1172 324.914 97.1328 325.289 98.3984C325.68 99.6484 325.875 101.195 325.875 103.039V119H317.93V103.016C317.93 102 317.789 101.227 317.508 100.695C317.227 100.148 316.82 99.7734 316.289 99.5703C315.758 99.3672 315.109 99.2656 314.344 99.2656C313.531 99.2656 312.844 99.4219 312.281 99.7344C311.719 100.047 311.266 100.484 310.922 101.047C310.594 101.594 310.352 102.242 310.195 102.992C310.055 103.742 309.984 104.562 309.984 105.453ZM346.195 93.6406H353.367V118.016C353.367 120.359 352.828 122.344 351.75 123.969C350.672 125.609 349.164 126.852 347.227 127.695C345.305 128.555 343.055 128.984 340.477 128.984C339.336 128.984 338.172 128.836 336.984 128.539C335.797 128.258 334.688 127.836 333.656 127.273C332.625 126.711 331.758 126.016 331.055 125.188L334.359 120.547C335 121.266 335.805 121.875 336.773 122.375C337.742 122.891 338.883 123.148 340.195 123.148C341.336 123.148 342.289 122.945 343.055 122.539C343.836 122.133 344.43 121.539 344.836 120.758C345.242 119.992 345.445 119.062 345.445 117.969V99.6406L346.195 93.6406ZM329.344 106.625V106.133C329.344 104.211 329.578 102.461 330.047 100.883C330.531 99.2891 331.219 97.9219 332.109 96.7812C333.016 95.625 334.109 94.7344 335.391 94.1094C336.672 93.4844 338.117 93.1719 339.727 93.1719C341.461 93.1719 342.883 93.5078 343.992 94.1797C345.117 94.8359 346.016 95.7578 346.688 96.9453C347.375 98.1328 347.906 99.5234 348.281 101.117C348.672 102.695 349 104.398 349.266 106.227V106.812C349 108.531 348.633 110.156 348.164 111.688C347.711 113.203 347.117 114.547 346.383 115.719C345.648 116.891 344.727 117.812 343.617 118.484C342.523 119.141 341.211 119.469 339.68 119.469C338.086 119.469 336.648 119.148 335.367 118.508C334.102 117.867 333.016 116.969 332.109 115.812C331.219 114.656 330.531 113.297 330.047 111.734C329.578 110.172 329.344 108.469 329.344 106.625ZM337.242 106.133V106.625C337.242 107.578 337.328 108.461 337.5 109.273C337.688 110.086 337.969 110.805 338.344 111.43C338.719 112.039 339.18 112.516 339.727 112.859C340.289 113.203 340.945 113.375 341.695 113.375C342.836 113.375 343.758 113.133 344.461 112.648C345.164 112.164 345.672 111.477 345.984 110.586C346.297 109.695 346.43 108.648 346.383 107.445V105.594C346.414 104.562 346.344 103.656 346.172 102.875C346 102.078 345.727 101.414 345.352 100.883C344.992 100.352 344.508 99.9531 343.898 99.6875C343.305 99.4062 342.586 99.2656 341.742 99.2656C341.008 99.2656 340.359 99.4375 339.797 99.7812C339.234 100.125 338.766 100.609 338.391 101.234C338.016 101.844 337.727 102.57 337.523 103.414C337.336 104.242 337.242 105.148 337.242 106.133Z" fill="black"/>
<path d="M1134 0H1348C1356.28 0 1363 6.71573 1363 15V148C1363 156.284 1356.28 163 1348 163H1134V0Z" fill="#FF6F61"/>
<path d="M1210.62 43.625H1286.38V119.375H1210.62V43.625Z" fill="white" fill-opacity="0.01"/>
<path d="M1276.91 72.0312V105.172C1276.91 107.787 1274.79 109.906 1272.17 109.906H1224.83C1222.21 109.906 1220.09 107.787 1220.09 105.172V57.8281C1220.09 55.2134 1222.21 53.0938 1224.83 53.0938H1261.12" stroke="white" stroke-width="7.24" stroke-linecap="round" stroke-linejoin="round"/>
<path d="M1232.72 75.1875L1248.5 87.8125L1276.91 53.0938" stroke="white" stroke-width="7.24" stroke-linecap="round" stroke-linejoin="round"/>
</svg>
