<svg width="1363" height="163" viewBox="0 0 1363 163" fill="none" xmlns="http://www.w3.org/2000/svg">
<path d="M0 15C0 6.71573 6.71573 0 15 0H37V163H15C6.71573 163 0 156.284 0 148V15Z" fill="#424242"/>
<rect width="1097" height="163" transform="translate(37)" fill="#F0F0F0"/>
<path d="M101.203 53.5117H96.8203L96.7969 51.0977H100.477C101.125 51.0977 101.656 51.0156 102.07 50.8516C102.484 50.6797 102.793 50.4336 102.996 50.1133C103.207 49.7852 103.312 49.3867 103.312 48.918C103.312 48.3867 103.211 47.957 103.008 47.6289C102.812 47.3008 102.504 47.0625 102.082 46.9141C101.668 46.7656 101.133 46.6914 100.477 46.6914H98.0391V61H94.5234V43.9375H100.477C101.469 43.9375 102.355 44.0312 103.137 44.2188C103.926 44.4062 104.594 44.6914 105.141 45.0742C105.688 45.457 106.105 45.9414 106.395 46.5273C106.684 47.1055 106.828 47.793 106.828 48.5898C106.828 49.293 106.668 49.9414 106.348 50.5352C106.035 51.1289 105.539 51.6133 104.859 51.9883C104.188 52.3633 103.309 52.5703 102.223 52.6094L101.203 53.5117ZM101.051 61H95.8594L97.2305 58.2578H101.051C101.668 58.2578 102.172 58.1602 102.562 57.9648C102.953 57.7617 103.242 57.4883 103.43 57.1445C103.617 56.8008 103.711 56.4062 103.711 55.9609C103.711 55.4609 103.625 55.0273 103.453 54.6602C103.289 54.293 103.023 54.0117 102.656 53.8164C102.289 53.6133 101.805 53.5117 101.203 53.5117H97.8164L97.8398 51.0977H102.059L102.867 52.0469C103.906 52.0312 104.742 52.2148 105.375 52.5977C106.016 52.9727 106.48 53.4609 106.77 54.0625C107.066 54.6641 107.215 55.3086 107.215 55.9961C107.215 57.0898 106.977 58.0117 106.5 58.7617C106.023 59.5039 105.324 60.0625 104.402 60.4375C103.488 60.8125 102.371 61 101.051 61ZM116.484 58.1406V52.4922C116.484 52.0859 116.418 51.7383 116.285 51.4492C116.152 51.1523 115.945 50.9219 115.664 50.7578C115.391 50.5938 115.035 50.5117 114.598 50.5117C114.223 50.5117 113.898 50.5781 113.625 50.7109C113.352 50.8359 113.141 51.0195 112.992 51.2617C112.844 51.4961 112.77 51.7734 112.77 52.0938H109.395C109.395 51.5547 109.52 51.043 109.77 50.5586C110.02 50.0742 110.383 49.6484 110.859 49.2812C111.336 48.9062 111.902 48.6133 112.559 48.4023C113.223 48.1914 113.965 48.0859 114.785 48.0859C115.77 48.0859 116.645 48.25 117.41 48.5781C118.176 48.9062 118.777 49.3984 119.215 50.0547C119.66 50.7109 119.883 51.5312 119.883 52.5156V57.9414C119.883 58.6367 119.926 59.207 120.012 59.6523C120.098 60.0898 120.223 60.4727 120.387 60.8008V61H116.977C116.812 60.6562 116.688 60.2266 116.602 59.7109C116.523 59.1875 116.484 58.6641 116.484 58.1406ZM116.93 53.2773L116.953 55.1875H115.066C114.621 55.1875 114.234 55.2383 113.906 55.3398C113.578 55.4414 113.309 55.5859 113.098 55.7734C112.887 55.9531 112.73 56.1641 112.629 56.4062C112.535 56.6484 112.488 56.9141 112.488 57.2031C112.488 57.4922 112.555 57.7539 112.688 57.9883C112.82 58.2148 113.012 58.3945 113.262 58.5273C113.512 58.6523 113.805 58.7148 114.141 58.7148C114.648 58.7148 115.09 58.6133 115.465 58.4102C115.84 58.207 116.129 57.957 116.332 57.6602C116.543 57.3633 116.652 57.082 116.66 56.8164L117.551 58.2461C117.426 58.5664 117.254 58.8984 117.035 59.2422C116.824 59.5859 116.555 59.9102 116.227 60.2148C115.898 60.5117 115.504 60.7578 115.043 60.9531C114.582 61.1406 114.035 61.2344 113.402 61.2344C112.598 61.2344 111.867 61.0742 111.211 60.7539C110.562 60.4258 110.047 59.9766 109.664 59.4062C109.289 58.8281 109.102 58.1719 109.102 57.4375C109.102 56.7734 109.227 56.1836 109.477 55.668C109.727 55.1523 110.094 54.7188 110.578 54.3672C111.07 54.0078 111.684 53.7383 112.418 53.5586C113.152 53.3711 114.004 53.2773 114.973 53.2773H116.93ZM126.047 43V61H122.66V43H126.047ZM135.68 58.1406V52.4922C135.68 52.0859 135.613 51.7383 135.48 51.4492C135.348 51.1523 135.141 50.9219 134.859 50.7578C134.586 50.5938 134.23 50.5117 133.793 50.5117C133.418 50.5117 133.094 50.5781 132.82 50.7109C132.547 50.8359 132.336 51.0195 132.188 51.2617C132.039 51.4961 131.965 51.7734 131.965 52.0938H128.59C128.59 51.5547 128.715 51.043 128.965 50.5586C129.215 50.0742 129.578 49.6484 130.055 49.2812C130.531 48.9062 131.098 48.6133 131.754 48.4023C132.418 48.1914 133.16 48.0859 133.98 48.0859C134.965 48.0859 135.84 48.25 136.605 48.5781C137.371 48.9062 137.973 49.3984 138.41 50.0547C138.855 50.7109 139.078 51.5312 139.078 52.5156V57.9414C139.078 58.6367 139.121 59.207 139.207 59.6523C139.293 60.0898 139.418 60.4727 139.582 60.8008V61H136.172C136.008 60.6562 135.883 60.2266 135.797 59.7109C135.719 59.1875 135.68 58.6641 135.68 58.1406ZM136.125 53.2773L136.148 55.1875H134.262C133.816 55.1875 133.43 55.2383 133.102 55.3398C132.773 55.4414 132.504 55.5859 132.293 55.7734C132.082 55.9531 131.926 56.1641 131.824 56.4062C131.73 56.6484 131.684 56.9141 131.684 57.2031C131.684 57.4922 131.75 57.7539 131.883 57.9883C132.016 58.2148 132.207 58.3945 132.457 58.5273C132.707 58.6523 133 58.7148 133.336 58.7148C133.844 58.7148 134.285 58.6133 134.66 58.4102C135.035 58.207 135.324 57.957 135.527 57.6602C135.738 57.3633 135.848 57.082 135.855 56.8164L136.746 58.2461C136.621 58.5664 136.449 58.8984 136.23 59.2422C136.02 59.5859 135.75 59.9102 135.422 60.2148C135.094 60.5117 134.699 60.7578 134.238 60.9531C133.777 61.1406 133.23 61.2344 132.598 61.2344C131.793 61.2344 131.062 61.0742 130.406 60.7539C129.758 60.4258 129.242 59.9766 128.859 59.4062C128.484 58.8281 128.297 58.1719 128.297 57.4375C128.297 56.7734 128.422 56.1836 128.672 55.668C128.922 55.1523 129.289 54.7188 129.773 54.3672C130.266 54.0078 130.879 53.7383 131.613 53.5586C132.348 53.3711 133.199 53.2773 134.168 53.2773H136.125ZM144.984 51.0273V61H141.609V48.3203H144.773L144.984 51.0273ZM144.492 54.2148H143.578C143.578 53.2773 143.699 52.4336 143.941 51.6836C144.184 50.9258 144.523 50.2812 144.961 49.75C145.398 49.2109 145.918 48.8008 146.52 48.5195C147.129 48.2305 147.809 48.0859 148.559 48.0859C149.152 48.0859 149.695 48.1719 150.188 48.3438C150.68 48.5156 151.102 48.7891 151.453 49.1641C151.812 49.5391 152.086 50.0352 152.273 50.6523C152.469 51.2695 152.566 52.0234 152.566 52.9141V61H149.168V52.9023C149.168 52.3398 149.09 51.9023 148.934 51.5898C148.777 51.2773 148.547 51.0586 148.242 50.9336C147.945 50.8008 147.578 50.7344 147.141 50.7344C146.688 50.7344 146.293 50.8242 145.957 51.0039C145.629 51.1836 145.355 51.4336 145.137 51.7539C144.926 52.0664 144.766 52.4336 144.656 52.8555C144.547 53.2773 144.492 53.7305 144.492 54.2148ZM160.371 58.5977C160.785 58.5977 161.152 58.5195 161.473 58.3633C161.793 58.1992 162.043 57.9727 162.223 57.6836C162.41 57.3867 162.508 57.0391 162.516 56.6406H165.691C165.684 57.5312 165.445 58.3242 164.977 59.0195C164.508 59.707 163.879 60.25 163.09 60.6484C162.301 61.0391 161.418 61.2344 160.441 61.2344C159.457 61.2344 158.598 61.0703 157.863 60.7422C157.137 60.4141 156.531 59.9609 156.047 59.3828C155.562 58.7969 155.199 58.1172 154.957 57.3438C154.715 56.5625 154.594 55.7266 154.594 54.8359V54.4961C154.594 53.5977 154.715 52.7617 154.957 51.9883C155.199 51.207 155.562 50.5273 156.047 49.9492C156.531 49.3633 157.137 48.9062 157.863 48.5781C158.59 48.25 159.441 48.0859 160.418 48.0859C161.457 48.0859 162.367 48.2852 163.148 48.6836C163.938 49.082 164.555 49.6523 165 50.3945C165.453 51.1289 165.684 52 165.691 53.0078H162.516C162.508 52.5859 162.418 52.2031 162.246 51.8594C162.082 51.5156 161.84 51.2422 161.52 51.0391C161.207 50.8281 160.82 50.7227 160.359 50.7227C159.867 50.7227 159.465 50.8281 159.152 51.0391C158.84 51.2422 158.598 51.5234 158.426 51.8828C158.254 52.2344 158.133 52.6367 158.062 53.0898C158 53.5352 157.969 54.0039 157.969 54.4961V54.8359C157.969 55.3281 158 55.8008 158.062 56.2539C158.125 56.707 158.242 57.1094 158.414 57.4609C158.594 57.8125 158.84 58.0898 159.152 58.293C159.465 58.4961 159.871 58.5977 160.371 58.5977ZM173.484 61.2344C172.5 61.2344 171.617 61.0781 170.836 60.7656C170.055 60.4453 169.391 60.0039 168.844 59.4414C168.305 58.8789 167.891 58.2266 167.602 57.4844C167.312 56.7344 167.168 55.9375 167.168 55.0938V54.625C167.168 53.6641 167.305 52.7852 167.578 51.9883C167.852 51.1914 168.242 50.5 168.75 49.9141C169.266 49.3281 169.891 48.8789 170.625 48.5664C171.359 48.2461 172.188 48.0859 173.109 48.0859C174.008 48.0859 174.805 48.2344 175.5 48.5312C176.195 48.8281 176.777 49.25 177.246 49.7969C177.723 50.3438 178.082 51 178.324 51.7656C178.566 52.5234 178.688 53.3672 178.688 54.2969V55.7031H168.609V53.4531H175.371V53.1953C175.371 52.7266 175.285 52.3086 175.113 51.9414C174.949 51.5664 174.699 51.2695 174.363 51.0508C174.027 50.832 173.598 50.7227 173.074 50.7227C172.629 50.7227 172.246 50.8203 171.926 51.0156C171.605 51.2109 171.344 51.4844 171.141 51.8359C170.945 52.1875 170.797 52.6016 170.695 53.0781C170.602 53.5469 170.555 54.0625 170.555 54.625V55.0938C170.555 55.6016 170.625 56.0703 170.766 56.5C170.914 56.9297 171.121 57.3008 171.387 57.6133C171.66 57.9258 171.988 58.168 172.371 58.3398C172.762 58.5117 173.203 58.5977 173.695 58.5977C174.305 58.5977 174.871 58.4805 175.395 58.2461C175.926 58.0039 176.383 57.6406 176.766 57.1562L178.406 58.9375C178.141 59.3203 177.777 59.6875 177.316 60.0391C176.863 60.3906 176.316 60.6797 175.676 60.9062C175.035 61.125 174.305 61.2344 173.484 61.2344ZM187.5 53.5117H183.117L183.094 51.0977H186.773C187.422 51.0977 187.953 51.0156 188.367 50.8516C188.781 50.6797 189.09 50.4336 189.293 50.1133C189.504 49.7852 189.609 49.3867 189.609 48.918C189.609 48.3867 189.508 47.957 189.305 47.6289C189.109 47.3008 188.801 47.0625 188.379 46.9141C187.965 46.7656 187.43 46.6914 186.773 46.6914H184.336V61H180.82V43.9375H186.773C187.766 43.9375 188.652 44.0312 189.434 44.2188C190.223 44.4062 190.891 44.6914 191.438 45.0742C191.984 45.457 192.402 45.9414 192.691 46.5273C192.98 47.1055 193.125 47.793 193.125 48.5898C193.125 49.293 192.965 49.9414 192.645 50.5352C192.332 51.1289 191.836 51.6133 191.156 51.9883C190.484 52.3633 189.605 52.5703 188.52 52.6094L187.5 53.5117ZM187.348 61H182.156L183.527 58.2578H187.348C187.965 58.2578 188.469 58.1602 188.859 57.9648C189.25 57.7617 189.539 57.4883 189.727 57.1445C189.914 56.8008 190.008 56.4062 190.008 55.9609C190.008 55.4609 189.922 55.0273 189.75 54.6602C189.586 54.293 189.32 54.0117 188.953 53.8164C188.586 53.6133 188.102 53.5117 187.5 53.5117H184.113L184.137 51.0977H188.355L189.164 52.0469C190.203 52.0312 191.039 52.2148 191.672 52.5977C192.312 52.9727 192.777 53.4609 193.066 54.0625C193.363 54.6641 193.512 55.3086 193.512 55.9961C193.512 57.0898 193.273 58.0117 192.797 58.7617C192.32 59.5039 191.621 60.0625 190.699 60.4375C189.785 60.8125 188.668 61 187.348 61ZM201.773 61.2344C200.789 61.2344 199.906 61.0781 199.125 60.7656C198.344 60.4453 197.68 60.0039 197.133 59.4414C196.594 58.8789 196.18 58.2266 195.891 57.4844C195.602 56.7344 195.457 55.9375 195.457 55.0938V54.625C195.457 53.6641 195.594 52.7852 195.867 51.9883C196.141 51.1914 196.531 50.5 197.039 49.9141C197.555 49.3281 198.18 48.8789 198.914 48.5664C199.648 48.2461 200.477 48.0859 201.398 48.0859C202.297 48.0859 203.094 48.2344 203.789 48.5312C204.484 48.8281 205.066 49.25 205.535 49.7969C206.012 50.3438 206.371 51 206.613 51.7656C206.855 52.5234 206.977 53.3672 206.977 54.2969V55.7031H196.898V53.4531H203.66V53.1953C203.66 52.7266 203.574 52.3086 203.402 51.9414C203.238 51.5664 202.988 51.2695 202.652 51.0508C202.316 50.832 201.887 50.7227 201.363 50.7227C200.918 50.7227 200.535 50.8203 200.215 51.0156C199.895 51.2109 199.633 51.4844 199.43 51.8359C199.234 52.1875 199.086 52.6016 198.984 53.0781C198.891 53.5469 198.844 54.0625 198.844 54.625V55.0938C198.844 55.6016 198.914 56.0703 199.055 56.5C199.203 56.9297 199.41 57.3008 199.676 57.6133C199.949 57.9258 200.277 58.168 200.66 58.3398C201.051 58.5117 201.492 58.5977 201.984 58.5977C202.594 58.5977 203.16 58.4805 203.684 58.2461C204.215 58.0039 204.672 57.6406 205.055 57.1562L206.695 58.9375C206.43 59.3203 206.066 59.6875 205.605 60.0391C205.152 60.3906 204.605 60.6797 203.965 60.9062C203.324 61.125 202.594 61.2344 201.773 61.2344ZM215.742 58.1406V52.4922C215.742 52.0859 215.676 51.7383 215.543 51.4492C215.41 51.1523 215.203 50.9219 214.922 50.7578C214.648 50.5938 214.293 50.5117 213.855 50.5117C213.48 50.5117 213.156 50.5781 212.883 50.7109C212.609 50.8359 212.398 51.0195 212.25 51.2617C212.102 51.4961 212.027 51.7734 212.027 52.0938H208.652C208.652 51.5547 208.777 51.043 209.027 50.5586C209.277 50.0742 209.641 49.6484 210.117 49.2812C210.594 48.9062 211.16 48.6133 211.816 48.4023C212.48 48.1914 213.223 48.0859 214.043 48.0859C215.027 48.0859 215.902 48.25 216.668 48.5781C217.434 48.9062 218.035 49.3984 218.473 50.0547C218.918 50.7109 219.141 51.5312 219.141 52.5156V57.9414C219.141 58.6367 219.184 59.207 219.27 59.6523C219.355 60.0898 219.48 60.4727 219.645 60.8008V61H216.234C216.07 60.6562 215.945 60.2266 215.859 59.7109C215.781 59.1875 215.742 58.6641 215.742 58.1406ZM216.188 53.2773L216.211 55.1875H214.324C213.879 55.1875 213.492 55.2383 213.164 55.3398C212.836 55.4414 212.566 55.5859 212.355 55.7734C212.145 55.9531 211.988 56.1641 211.887 56.4062C211.793 56.6484 211.746 56.9141 211.746 57.2031C211.746 57.4922 211.812 57.7539 211.945 57.9883C212.078 58.2148 212.27 58.3945 212.52 58.5273C212.77 58.6523 213.062 58.7148 213.398 58.7148C213.906 58.7148 214.348 58.6133 214.723 58.4102C215.098 58.207 215.387 57.957 215.59 57.6602C215.801 57.3633 215.91 57.082 215.918 56.8164L216.809 58.2461C216.684 58.5664 216.512 58.8984 216.293 59.2422C216.082 59.5859 215.812 59.9102 215.484 60.2148C215.156 60.5117 214.762 60.7578 214.301 60.9531C213.84 61.1406 213.293 61.2344 212.66 61.2344C211.855 61.2344 211.125 61.0742 210.469 60.7539C209.82 60.4258 209.305 59.9766 208.922 59.4062C208.547 58.8281 208.359 58.1719 208.359 57.4375C208.359 56.7734 208.484 56.1836 208.734 55.668C208.984 55.1523 209.352 54.7188 209.836 54.3672C210.328 54.0078 210.941 53.7383 211.676 53.5586C212.41 53.3711 213.262 53.2773 214.23 53.2773H216.188ZM225.117 50.9453V61H221.73V48.3203H224.906L225.117 50.9453ZM224.648 54.2148H223.711C223.711 53.332 223.816 52.5195 224.027 51.7773C224.246 51.0273 224.562 50.3789 224.977 49.832C225.398 49.2773 225.918 48.8477 226.535 48.543C227.152 48.2383 227.867 48.0859 228.68 48.0859C229.242 48.0859 229.758 48.1719 230.227 48.3438C230.695 48.5078 231.098 48.7695 231.434 49.1289C231.777 49.4805 232.043 49.9414 232.23 50.5117C232.418 51.0742 232.512 51.75 232.512 52.5391V61H229.137V52.9141C229.137 52.3359 229.059 51.8906 228.902 51.5781C228.746 51.2656 228.523 51.0469 228.234 50.9219C227.953 50.7969 227.613 50.7344 227.215 50.7344C226.777 50.7344 226.395 50.8242 226.066 51.0039C225.746 51.1836 225.48 51.4336 225.27 51.7539C225.059 52.0664 224.902 52.4336 224.801 52.8555C224.699 53.2773 224.648 53.7305 224.648 54.2148ZM232.195 53.8281L230.988 53.9805C230.988 53.1523 231.09 52.3828 231.293 51.6719C231.504 50.9609 231.812 50.3359 232.219 49.7969C232.633 49.2578 233.145 48.8398 233.754 48.543C234.363 48.2383 235.066 48.0859 235.863 48.0859C236.473 48.0859 237.027 48.1758 237.527 48.3555C238.027 48.5273 238.453 48.8047 238.805 49.1875C239.164 49.5625 239.438 50.0547 239.625 50.6641C239.82 51.2734 239.918 52.0195 239.918 52.9023V61H236.531V52.9023C236.531 52.3164 236.453 51.8711 236.297 51.5664C236.148 51.2539 235.93 51.0391 235.641 50.9219C235.359 50.7969 235.023 50.7344 234.633 50.7344C234.227 50.7344 233.871 50.8164 233.566 50.9805C233.262 51.1367 233.008 51.3555 232.805 51.6367C232.602 51.918 232.449 52.2461 232.348 52.6211C232.246 52.9883 232.195 53.3906 232.195 53.8281Z" fill="#888888"/>
<path d="M112.125 84.875V119H103.898V84.875H112.125ZM122.391 84.875V91.2266H93.8672V84.875H122.391ZM135.68 119.469C133.617 119.469 131.773 119.148 130.148 118.508C128.523 117.852 127.148 116.953 126.023 115.812C124.914 114.672 124.062 113.359 123.469 111.875C122.891 110.391 122.602 108.82 122.602 107.164V106.273C122.602 104.414 122.859 102.695 123.375 101.117C123.891 99.5234 124.656 98.1328 125.672 96.9453C126.688 95.7578 127.961 94.8359 129.492 94.1797C131.023 93.5078 132.805 93.1719 134.836 93.1719C136.633 93.1719 138.242 93.4609 139.664 94.0391C141.086 94.6172 142.289 95.4453 143.273 96.5234C144.273 97.6016 145.031 98.9062 145.547 100.438C146.078 101.969 146.344 103.688 146.344 105.594V108.805H125.625V103.859H138.633V103.25C138.648 102.406 138.5 101.688 138.188 101.094C137.891 100.5 137.453 100.047 136.875 99.7344C136.297 99.4219 135.594 99.2656 134.766 99.2656C133.906 99.2656 133.195 99.4531 132.633 99.8281C132.086 100.203 131.656 100.719 131.344 101.375C131.047 102.016 130.836 102.758 130.711 103.602C130.586 104.445 130.523 105.336 130.523 106.273V107.164C130.523 108.102 130.648 108.953 130.898 109.719C131.164 110.484 131.539 111.141 132.023 111.688C132.523 112.219 133.117 112.633 133.805 112.93C134.508 113.227 135.305 113.375 136.195 113.375C137.273 113.375 138.336 113.172 139.383 112.766C140.43 112.359 141.328 111.688 142.078 110.75L145.664 115.016C145.148 115.75 144.414 116.461 143.461 117.148C142.523 117.836 141.398 118.398 140.086 118.836C138.773 119.258 137.305 119.469 135.68 119.469ZM160.266 113.375C161 113.375 161.625 113.242 162.141 112.977C162.672 112.695 163.07 112.305 163.336 111.805C163.617 111.289 163.75 110.672 163.734 109.953H171.164C171.18 111.859 170.711 113.531 169.758 114.969C168.82 116.391 167.539 117.5 165.914 118.297C164.305 119.078 162.484 119.469 160.453 119.469C158.469 119.469 156.734 119.148 155.25 118.508C153.766 117.852 152.523 116.945 151.523 115.789C150.539 114.617 149.797 113.25 149.297 111.688C148.812 110.125 148.57 108.43 148.57 106.602V106.062C148.57 104.234 148.812 102.539 149.297 100.977C149.797 99.3984 150.539 98.0312 151.523 96.875C152.523 95.7031 153.758 94.7969 155.227 94.1562C156.711 93.5 158.438 93.1719 160.406 93.1719C162.516 93.1719 164.375 93.5703 165.984 94.3672C167.609 95.1641 168.883 96.3203 169.805 97.8359C170.727 99.3516 171.18 101.188 171.164 103.344H163.734C163.75 102.578 163.633 101.891 163.383 101.281C163.133 100.672 162.742 100.188 162.211 99.8281C161.695 99.4531 161.031 99.2656 160.219 99.2656C159.406 99.2656 158.75 99.4453 158.25 99.8047C157.75 100.164 157.367 100.664 157.102 101.305C156.852 101.93 156.68 102.648 156.586 103.461C156.508 104.273 156.469 105.141 156.469 106.062V106.602C156.469 107.539 156.508 108.422 156.586 109.25C156.68 110.062 156.859 110.781 157.125 111.406C157.391 112.016 157.773 112.5 158.273 112.859C158.773 113.203 159.438 113.375 160.266 113.375ZM182.273 83V119H174.375V83H182.273ZM181.336 105.453L179.484 105.5C179.484 103.719 179.703 102.078 180.141 100.578C180.578 99.0781 181.203 97.7734 182.016 96.6641C182.828 95.5547 183.805 94.6953 184.945 94.0859C186.086 93.4766 187.352 93.1719 188.742 93.1719C189.992 93.1719 191.133 93.3516 192.164 93.7109C193.211 94.0703 194.109 94.6484 194.859 95.4453C195.625 96.2422 196.211 97.2812 196.617 98.5625C197.039 99.8438 197.25 101.406 197.25 103.25V119H189.305V103.203C189.305 102.172 189.156 101.375 188.859 100.812C188.578 100.234 188.172 99.8359 187.641 99.6172C187.109 99.3828 186.461 99.2656 185.695 99.2656C184.773 99.2656 184.023 99.4219 183.445 99.7344C182.867 100.047 182.422 100.484 182.109 101.047C181.812 101.594 181.609 102.242 181.5 102.992C181.391 103.742 181.336 104.562 181.336 105.453ZM231.539 109.93C231.539 109.398 231.461 108.922 231.305 108.5C231.148 108.062 230.859 107.656 230.438 107.281C230.016 106.906 229.406 106.531 228.609 106.156C227.828 105.766 226.797 105.359 225.516 104.938C224.016 104.438 222.57 103.875 221.18 103.25C219.789 102.609 218.547 101.867 217.453 101.023C216.359 100.164 215.492 99.1641 214.852 98.0234C214.211 96.8672 213.891 95.5234 213.891 93.9922C213.891 92.5234 214.219 91.2031 214.875 90.0312C215.531 88.8438 216.445 87.8359 217.617 87.0078C218.805 86.1641 220.195 85.5234 221.789 85.0859C223.383 84.6328 225.125 84.4062 227.016 84.4062C229.516 84.4062 231.719 84.8438 233.625 85.7188C235.547 86.5781 237.047 87.8047 238.125 89.3984C239.219 90.9766 239.766 92.8438 239.766 95H231.586C231.586 94.1406 231.406 93.3828 231.047 92.7266C230.703 92.0703 230.18 91.5547 229.477 91.1797C228.773 90.8047 227.891 90.6172 226.828 90.6172C225.797 90.6172 224.93 90.7734 224.227 91.0859C223.523 91.3984 222.992 91.8203 222.633 92.3516C222.273 92.8672 222.094 93.4375 222.094 94.0625C222.094 94.5781 222.234 95.0469 222.516 95.4688C222.812 95.875 223.227 96.2578 223.758 96.6172C224.305 96.9766 224.961 97.3203 225.727 97.6484C226.508 97.9766 227.383 98.2969 228.352 98.6094C230.164 99.1875 231.773 99.8359 233.18 100.555C234.602 101.258 235.797 102.062 236.766 102.969C237.75 103.859 238.492 104.875 238.992 106.016C239.508 107.156 239.766 108.445 239.766 109.883C239.766 111.414 239.469 112.773 238.875 113.961C238.281 115.148 237.43 116.156 236.32 116.984C235.211 117.797 233.883 118.414 232.336 118.836C230.789 119.258 229.062 119.469 227.156 119.469C225.406 119.469 223.68 119.25 221.977 118.812C220.289 118.359 218.758 117.672 217.383 116.75C216.008 115.812 214.906 114.617 214.078 113.164C213.266 111.695 212.859 109.953 212.859 107.938H221.109C221.109 108.938 221.242 109.781 221.508 110.469C221.773 111.156 222.164 111.711 222.68 112.133C223.195 112.539 223.828 112.836 224.578 113.023C225.328 113.195 226.188 113.281 227.156 113.281C228.203 113.281 229.047 113.133 229.688 112.836C230.328 112.523 230.797 112.117 231.094 111.617C231.391 111.102 231.539 110.539 231.539 109.93ZM256.992 93.6406V99.125H241.711V93.6406H256.992ZM244.922 87.3359H252.82V110.727C252.82 111.398 252.898 111.922 253.055 112.297C253.211 112.656 253.477 112.914 253.852 113.07C254.242 113.211 254.758 113.281 255.398 113.281C255.852 113.281 256.227 113.273 256.523 113.258C256.82 113.227 257.102 113.188 257.367 113.141V118.789C256.695 119.008 255.992 119.172 255.258 119.281C254.523 119.406 253.742 119.469 252.914 119.469C251.227 119.469 249.781 119.203 248.578 118.672C247.391 118.141 246.484 117.305 245.859 116.164C245.234 115.023 244.922 113.539 244.922 111.711V87.3359ZM273.305 112.625V102.172C273.305 101.453 273.203 100.836 273 100.32C272.797 99.8047 272.477 99.4062 272.039 99.125C271.602 98.8281 271.016 98.6797 270.281 98.6797C269.688 98.6797 269.18 98.7812 268.758 98.9844C268.336 99.1875 268.016 99.4922 267.797 99.8984C267.578 100.305 267.469 100.82 267.469 101.445H259.57C259.57 100.273 259.828 99.1875 260.344 98.1875C260.875 97.1719 261.625 96.2891 262.594 95.5391C263.578 94.7891 264.75 94.2109 266.109 93.8047C267.484 93.3828 269.016 93.1719 270.703 93.1719C272.719 93.1719 274.516 93.5078 276.094 94.1797C277.688 94.8516 278.945 95.8594 279.867 97.2031C280.789 98.5312 281.25 100.203 281.25 102.219V112.602C281.25 114.258 281.344 115.516 281.531 116.375C281.719 117.219 281.984 117.961 282.328 118.602V119H274.406C274.031 118.219 273.75 117.266 273.562 116.141C273.391 115 273.305 113.828 273.305 112.625ZM274.266 103.508L274.312 107.727H270.82C270.086 107.727 269.461 107.828 268.945 108.031C268.445 108.234 268.039 108.516 267.727 108.875C267.43 109.219 267.211 109.609 267.07 110.047C266.945 110.484 266.883 110.945 266.883 111.43C266.883 111.898 266.992 112.32 267.211 112.695C267.445 113.055 267.758 113.336 268.148 113.539C268.539 113.742 268.977 113.844 269.461 113.844C270.336 113.844 271.078 113.68 271.688 113.352C272.312 113.008 272.789 112.594 273.117 112.109C273.445 111.625 273.609 111.172 273.609 110.75L275.344 113.984C275.031 114.609 274.672 115.242 274.266 115.883C273.875 116.523 273.383 117.117 272.789 117.664C272.211 118.195 271.5 118.633 270.656 118.977C269.812 119.305 268.789 119.469 267.586 119.469C266.023 119.469 264.586 119.148 263.273 118.508C261.977 117.867 260.938 116.977 260.156 115.836C259.375 114.68 258.984 113.352 258.984 111.852C258.984 110.539 259.219 109.367 259.688 108.336C260.172 107.305 260.898 106.43 261.867 105.711C262.836 104.992 264.07 104.445 265.57 104.07C267.07 103.695 268.836 103.508 270.867 103.508H274.266ZM296.344 113.375C297.078 113.375 297.703 113.242 298.219 112.977C298.75 112.695 299.148 112.305 299.414 111.805C299.695 111.289 299.828 110.672 299.812 109.953H307.242C307.258 111.859 306.789 113.531 305.836 114.969C304.898 116.391 303.617 117.5 301.992 118.297C300.383 119.078 298.562 119.469 296.531 119.469C294.547 119.469 292.812 119.148 291.328 118.508C289.844 117.852 288.602 116.945 287.602 115.789C286.617 114.617 285.875 113.25 285.375 111.688C284.891 110.125 284.648 108.43 284.648 106.602V106.062C284.648 104.234 284.891 102.539 285.375 100.977C285.875 99.3984 286.617 98.0312 287.602 96.875C288.602 95.7031 289.836 94.7969 291.305 94.1562C292.789 93.5 294.516 93.1719 296.484 93.1719C298.594 93.1719 300.453 93.5703 302.062 94.3672C303.688 95.1641 304.961 96.3203 305.883 97.8359C306.805 99.3516 307.258 101.188 307.242 103.344H299.812C299.828 102.578 299.711 101.891 299.461 101.281C299.211 100.672 298.82 100.188 298.289 99.8281C297.773 99.4531 297.109 99.2656 296.297 99.2656C295.484 99.2656 294.828 99.4453 294.328 99.8047C293.828 100.164 293.445 100.664 293.18 101.305C292.93 101.93 292.758 102.648 292.664 103.461C292.586 104.273 292.547 105.141 292.547 106.062V106.602C292.547 107.539 292.586 108.422 292.664 109.25C292.758 110.062 292.938 110.781 293.203 111.406C293.469 112.016 293.852 112.5 294.352 112.859C294.852 113.203 295.516 113.375 296.344 113.375ZM318.586 82.9766V119H310.688V82.9766H318.586ZM334.805 93.6406L323.789 106.555L318.023 112.32L314.578 107.305L319.383 101.047L325.336 93.6406H334.805ZM326.344 119L319.57 107.445L325.406 103.297L335.391 119H326.344ZM350.156 111.875C350.156 111.438 350.008 111.062 349.711 110.75C349.43 110.422 348.93 110.125 348.211 109.859C347.492 109.578 346.484 109.297 345.188 109.016C343.953 108.75 342.789 108.398 341.695 107.961C340.617 107.523 339.672 106.992 338.859 106.367C338.047 105.742 337.406 105 336.938 104.141C336.484 103.281 336.258 102.297 336.258 101.188C336.258 100.109 336.484 99.0938 336.938 98.1406C337.406 97.1719 338.086 96.3203 338.977 95.5859C339.883 94.8359 340.984 94.25 342.281 93.8281C343.578 93.3906 345.055 93.1719 346.711 93.1719C348.992 93.1719 350.961 93.5234 352.617 94.2266C354.273 94.9141 355.547 95.8828 356.438 97.1328C357.344 98.3672 357.797 99.7969 357.797 101.422H349.898C349.898 100.781 349.789 100.234 349.57 99.7812C349.367 99.3281 349.031 98.9844 348.562 98.75C348.094 98.5 347.469 98.375 346.688 98.375C346.141 98.375 345.641 98.4766 345.188 98.6797C344.75 98.8828 344.398 99.1641 344.133 99.5234C343.867 99.8828 343.734 100.305 343.734 100.789C343.734 101.133 343.812 101.445 343.969 101.727C344.141 101.992 344.398 102.242 344.742 102.477C345.086 102.695 345.523 102.898 346.055 103.086C346.586 103.258 347.227 103.414 347.977 103.555C349.68 103.867 351.273 104.312 352.758 104.891C354.242 105.469 355.445 106.289 356.367 107.352C357.305 108.414 357.773 109.844 357.773 111.641C357.773 112.766 357.516 113.805 357 114.758C356.484 115.695 355.742 116.523 354.773 117.242C353.805 117.945 352.641 118.492 351.281 118.883C349.922 119.273 348.391 119.469 346.688 119.469C344.266 119.469 342.219 119.039 340.547 118.18C338.875 117.305 337.609 116.211 336.75 114.898C335.906 113.57 335.484 112.227 335.484 110.867H342.844C342.875 111.648 343.062 112.289 343.406 112.789C343.766 113.289 344.242 113.656 344.836 113.891C345.43 114.125 346.117 114.242 346.898 114.242C347.617 114.242 348.211 114.141 348.68 113.938C349.164 113.734 349.531 113.461 349.781 113.117C350.031 112.758 350.156 112.344 350.156 111.875Z" fill="black"/>
<path d="M1134 0H1348C1356.28 0 1363 6.71573 1363 15V148C1363 156.284 1356.28 163 1348 163H1134V0Z" fill="#FF6F61"/>
<path fill-rule="evenodd" clip-rule="evenodd" d="M1219.98 53C1219.85 53 1219.73 53.0527 1219.64 53.1464C1219.55 53.2402 1219.5 53.3674 1219.5 53.5V109.5C1219.5 109.633 1219.55 109.76 1219.64 109.854C1219.73 109.947 1219.85 110 1219.98 110H1277.02C1277.15 110 1277.27 109.947 1277.36 109.854C1277.45 109.76 1277.5 109.633 1277.5 109.5V64C1277.5 63.8674 1277.45 63.7402 1277.36 63.6464C1277.27 63.5527 1277.15 63.5 1277.02 63.5H1248.5C1247.65 63.5 1246.84 63.1045 1246.29 62.4206L1238.77 53H1219.98ZM1215.58 48.9038C1216.74 47.6848 1218.33 47 1219.98 47H1240.11C1240.97 47 1241.77 47.3955 1242.32 48.0794L1249.85 57.5H1277.02C1278.67 57.5 1280.26 58.1848 1281.42 59.4038C1282.59 60.6228 1283.25 62.2761 1283.25 64V109.5C1283.25 111.224 1282.59 112.877 1281.42 114.096C1280.26 115.315 1278.67 116 1277.02 116H1219.98C1218.33 116 1216.74 115.315 1215.58 114.096C1214.41 112.877 1213.75 111.224 1213.75 109.5V53.5C1213.75 51.7761 1214.41 50.1228 1215.58 48.9038Z" fill="white"/>
<path fill-rule="evenodd" clip-rule="evenodd" d="M1244.16 75.5251C1245.47 76.892 1245.47 79.108 1244.16 80.4749L1238.15 86.75L1244.16 93.0251C1245.47 94.392 1245.47 96.608 1244.16 97.9749C1242.85 99.3417 1240.73 99.3417 1239.42 97.9749L1231.03 89.2249C1229.72 87.858 1229.72 85.642 1231.03 84.2751L1239.42 75.5251C1240.73 74.1583 1242.85 74.1583 1244.16 75.5251Z" fill="white"/>
<path fill-rule="evenodd" clip-rule="evenodd" d="M1252.12 97.9749C1250.81 96.608 1250.81 94.392 1252.12 93.0251L1258.13 86.75L1252.12 80.4749C1250.81 79.108 1250.81 76.892 1252.12 75.5251C1253.43 74.1583 1255.55 74.1583 1256.86 75.5251L1265.25 84.2751C1266.56 85.642 1266.56 87.858 1265.25 89.2249L1256.86 97.9749C1255.55 99.3417 1253.43 99.3417 1252.12 97.9749Z" fill="white"/>
</svg>
