<svg width="1363" height="163" viewBox="0 0 1363 163" fill="none" xmlns="http://www.w3.org/2000/svg">
<path d="M0 15C0 6.71573 6.71573 0 15 0H37V163H15C6.71573 163 0 156.284 0 148V15Z" fill="#424242"/>
<rect width="1097" height="163" transform="translate(37)" fill="#F0F0F0"/>
<path d="M101.906 53.9219L94.3945 51.2383V48.0859L104.602 52.375V54.6367L101.906 53.9219ZM94.3945 56.1719L101.918 53.4297L104.602 52.7852V55.0352L94.3945 59.3242V56.1719ZM119.578 53.5117H115.195L115.172 51.0977H118.852C119.5 51.0977 120.031 51.0156 120.445 50.8516C120.859 50.6797 121.168 50.4336 121.371 50.1133C121.582 49.7852 121.688 49.3867 121.688 48.918C121.688 48.3867 121.586 47.957 121.383 47.6289C121.188 47.3008 120.879 47.0625 120.457 46.9141C120.043 46.7656 119.508 46.6914 118.852 46.6914H116.414V61H112.898V43.9375H118.852C119.844 43.9375 120.73 44.0312 121.512 44.2188C122.301 44.4062 122.969 44.6914 123.516 45.0742C124.062 45.457 124.48 45.9414 124.77 46.5273C125.059 47.1055 125.203 47.793 125.203 48.5898C125.203 49.293 125.043 49.9414 124.723 50.5352C124.41 51.1289 123.914 51.6133 123.234 51.9883C122.562 52.3633 121.684 52.5703 120.598 52.6094L119.578 53.5117ZM119.426 61H114.234L115.605 58.2578H119.426C120.043 58.2578 120.547 58.1602 120.938 57.9648C121.328 57.7617 121.617 57.4883 121.805 57.1445C121.992 56.8008 122.086 56.4062 122.086 55.9609C122.086 55.4609 122 55.0273 121.828 54.6602C121.664 54.293 121.398 54.0117 121.031 53.8164C120.664 53.6133 120.18 53.5117 119.578 53.5117H116.191L116.215 51.0977H120.434L121.242 52.0469C122.281 52.0312 123.117 52.2148 123.75 52.5977C124.391 52.9727 124.855 53.4609 125.145 54.0625C125.441 54.6641 125.59 55.3086 125.59 55.9961C125.59 57.0898 125.352 58.0117 124.875 58.7617C124.398 59.5039 123.699 60.0625 122.777 60.4375C121.863 60.8125 120.746 61 119.426 61ZM134.859 58.1406V52.4922C134.859 52.0859 134.793 51.7383 134.66 51.4492C134.527 51.1523 134.32 50.9219 134.039 50.7578C133.766 50.5938 133.41 50.5117 132.973 50.5117C132.598 50.5117 132.273 50.5781 132 50.7109C131.727 50.8359 131.516 51.0195 131.367 51.2617C131.219 51.4961 131.145 51.7734 131.145 52.0938H127.77C127.77 51.5547 127.895 51.043 128.145 50.5586C128.395 50.0742 128.758 49.6484 129.234 49.2812C129.711 48.9062 130.277 48.6133 130.934 48.4023C131.598 48.1914 132.34 48.0859 133.16 48.0859C134.145 48.0859 135.02 48.25 135.785 48.5781C136.551 48.9062 137.152 49.3984 137.59 50.0547C138.035 50.7109 138.258 51.5312 138.258 52.5156V57.9414C138.258 58.6367 138.301 59.207 138.387 59.6523C138.473 60.0898 138.598 60.4727 138.762 60.8008V61H135.352C135.188 60.6562 135.062 60.2266 134.977 59.7109C134.898 59.1875 134.859 58.6641 134.859 58.1406ZM135.305 53.2773L135.328 55.1875H133.441C132.996 55.1875 132.609 55.2383 132.281 55.3398C131.953 55.4414 131.684 55.5859 131.473 55.7734C131.262 55.9531 131.105 56.1641 131.004 56.4062C130.91 56.6484 130.863 56.9141 130.863 57.2031C130.863 57.4922 130.93 57.7539 131.062 57.9883C131.195 58.2148 131.387 58.3945 131.637 58.5273C131.887 58.6523 132.18 58.7148 132.516 58.7148C133.023 58.7148 133.465 58.6133 133.84 58.4102C134.215 58.207 134.504 57.957 134.707 57.6602C134.918 57.3633 135.027 57.082 135.035 56.8164L135.926 58.2461C135.801 58.5664 135.629 58.8984 135.41 59.2422C135.199 59.5859 134.93 59.9102 134.602 60.2148C134.273 60.5117 133.879 60.7578 133.418 60.9531C132.957 61.1406 132.41 61.2344 131.777 61.2344C130.973 61.2344 130.242 61.0742 129.586 60.7539C128.938 60.4258 128.422 59.9766 128.039 59.4062C127.664 58.8281 127.477 58.1719 127.477 57.4375C127.477 56.7734 127.602 56.1836 127.852 55.668C128.102 55.1523 128.469 54.7188 128.953 54.3672C129.445 54.0078 130.059 53.7383 130.793 53.5586C131.527 53.3711 132.379 53.2773 133.348 53.2773H135.305ZM144.422 43V61H141.035V43H144.422ZM154.055 58.1406V52.4922C154.055 52.0859 153.988 51.7383 153.855 51.4492C153.723 51.1523 153.516 50.9219 153.234 50.7578C152.961 50.5938 152.605 50.5117 152.168 50.5117C151.793 50.5117 151.469 50.5781 151.195 50.7109C150.922 50.8359 150.711 51.0195 150.562 51.2617C150.414 51.4961 150.34 51.7734 150.34 52.0938H146.965C146.965 51.5547 147.09 51.043 147.34 50.5586C147.59 50.0742 147.953 49.6484 148.43 49.2812C148.906 48.9062 149.473 48.6133 150.129 48.4023C150.793 48.1914 151.535 48.0859 152.355 48.0859C153.34 48.0859 154.215 48.25 154.98 48.5781C155.746 48.9062 156.348 49.3984 156.785 50.0547C157.23 50.7109 157.453 51.5312 157.453 52.5156V57.9414C157.453 58.6367 157.496 59.207 157.582 59.6523C157.668 60.0898 157.793 60.4727 157.957 60.8008V61H154.547C154.383 60.6562 154.258 60.2266 154.172 59.7109C154.094 59.1875 154.055 58.6641 154.055 58.1406ZM154.5 53.2773L154.523 55.1875H152.637C152.191 55.1875 151.805 55.2383 151.477 55.3398C151.148 55.4414 150.879 55.5859 150.668 55.7734C150.457 55.9531 150.301 56.1641 150.199 56.4062C150.105 56.6484 150.059 56.9141 150.059 57.2031C150.059 57.4922 150.125 57.7539 150.258 57.9883C150.391 58.2148 150.582 58.3945 150.832 58.5273C151.082 58.6523 151.375 58.7148 151.711 58.7148C152.219 58.7148 152.66 58.6133 153.035 58.4102C153.41 58.207 153.699 57.957 153.902 57.6602C154.113 57.3633 154.223 57.082 154.23 56.8164L155.121 58.2461C154.996 58.5664 154.824 58.8984 154.605 59.2422C154.395 59.5859 154.125 59.9102 153.797 60.2148C153.469 60.5117 153.074 60.7578 152.613 60.9531C152.152 61.1406 151.605 61.2344 150.973 61.2344C150.168 61.2344 149.438 61.0742 148.781 60.7539C148.133 60.4258 147.617 59.9766 147.234 59.4062C146.859 58.8281 146.672 58.1719 146.672 57.4375C146.672 56.7734 146.797 56.1836 147.047 55.668C147.297 55.1523 147.664 54.7188 148.148 54.3672C148.641 54.0078 149.254 53.7383 149.988 53.5586C150.723 53.3711 151.574 53.2773 152.543 53.2773H154.5ZM163.359 51.0273V61H159.984V48.3203H163.148L163.359 51.0273ZM162.867 54.2148H161.953C161.953 53.2773 162.074 52.4336 162.316 51.6836C162.559 50.9258 162.898 50.2812 163.336 49.75C163.773 49.2109 164.293 48.8008 164.895 48.5195C165.504 48.2305 166.184 48.0859 166.934 48.0859C167.527 48.0859 168.07 48.1719 168.562 48.3438C169.055 48.5156 169.477 48.7891 169.828 49.1641C170.188 49.5391 170.461 50.0352 170.648 50.6523C170.844 51.2695 170.941 52.0234 170.941 52.9141V61H167.543V52.9023C167.543 52.3398 167.465 51.9023 167.309 51.5898C167.152 51.2773 166.922 51.0586 166.617 50.9336C166.32 50.8008 165.953 50.7344 165.516 50.7344C165.062 50.7344 164.668 50.8242 164.332 51.0039C164.004 51.1836 163.73 51.4336 163.512 51.7539C163.301 52.0664 163.141 52.4336 163.031 52.8555C162.922 53.2773 162.867 53.7305 162.867 54.2148ZM178.746 58.5977C179.16 58.5977 179.527 58.5195 179.848 58.3633C180.168 58.1992 180.418 57.9727 180.598 57.6836C180.785 57.3867 180.883 57.0391 180.891 56.6406H184.066C184.059 57.5312 183.82 58.3242 183.352 59.0195C182.883 59.707 182.254 60.25 181.465 60.6484C180.676 61.0391 179.793 61.2344 178.816 61.2344C177.832 61.2344 176.973 61.0703 176.238 60.7422C175.512 60.4141 174.906 59.9609 174.422 59.3828C173.938 58.7969 173.574 58.1172 173.332 57.3438C173.09 56.5625 172.969 55.7266 172.969 54.8359V54.4961C172.969 53.5977 173.09 52.7617 173.332 51.9883C173.574 51.207 173.938 50.5273 174.422 49.9492C174.906 49.3633 175.512 48.9062 176.238 48.5781C176.965 48.25 177.816 48.0859 178.793 48.0859C179.832 48.0859 180.742 48.2852 181.523 48.6836C182.312 49.082 182.93 49.6523 183.375 50.3945C183.828 51.1289 184.059 52 184.066 53.0078H180.891C180.883 52.5859 180.793 52.2031 180.621 51.8594C180.457 51.5156 180.215 51.2422 179.895 51.0391C179.582 50.8281 179.195 50.7227 178.734 50.7227C178.242 50.7227 177.84 50.8281 177.527 51.0391C177.215 51.2422 176.973 51.5234 176.801 51.8828C176.629 52.2344 176.508 52.6367 176.438 53.0898C176.375 53.5352 176.344 54.0039 176.344 54.4961V54.8359C176.344 55.3281 176.375 55.8008 176.438 56.2539C176.5 56.707 176.617 57.1094 176.789 57.4609C176.969 57.8125 177.215 58.0898 177.527 58.293C177.84 58.4961 178.246 58.5977 178.746 58.5977ZM191.859 61.2344C190.875 61.2344 189.992 61.0781 189.211 60.7656C188.43 60.4453 187.766 60.0039 187.219 59.4414C186.68 58.8789 186.266 58.2266 185.977 57.4844C185.688 56.7344 185.543 55.9375 185.543 55.0938V54.625C185.543 53.6641 185.68 52.7852 185.953 51.9883C186.227 51.1914 186.617 50.5 187.125 49.9141C187.641 49.3281 188.266 48.8789 189 48.5664C189.734 48.2461 190.562 48.0859 191.484 48.0859C192.383 48.0859 193.18 48.2344 193.875 48.5312C194.57 48.8281 195.152 49.25 195.621 49.7969C196.098 50.3438 196.457 51 196.699 51.7656C196.941 52.5234 197.062 53.3672 197.062 54.2969V55.7031H186.984V53.4531H193.746V53.1953C193.746 52.7266 193.66 52.3086 193.488 51.9414C193.324 51.5664 193.074 51.2695 192.738 51.0508C192.402 50.832 191.973 50.7227 191.449 50.7227C191.004 50.7227 190.621 50.8203 190.301 51.0156C189.98 51.2109 189.719 51.4844 189.516 51.8359C189.32 52.1875 189.172 52.6016 189.07 53.0781C188.977 53.5469 188.93 54.0625 188.93 54.625V55.0938C188.93 55.6016 189 56.0703 189.141 56.5C189.289 56.9297 189.496 57.3008 189.762 57.6133C190.035 57.9258 190.363 58.168 190.746 58.3398C191.137 58.5117 191.578 58.5977 192.07 58.5977C192.68 58.5977 193.246 58.4805 193.77 58.2461C194.301 58.0039 194.758 57.6406 195.141 57.1562L196.781 58.9375C196.516 59.3203 196.152 59.6875 195.691 60.0391C195.238 60.3906 194.691 60.6797 194.051 60.9062C193.41 61.125 192.68 61.2344 191.859 61.2344ZM205.875 53.5117H201.492L201.469 51.0977H205.148C205.797 51.0977 206.328 51.0156 206.742 50.8516C207.156 50.6797 207.465 50.4336 207.668 50.1133C207.879 49.7852 207.984 49.3867 207.984 48.918C207.984 48.3867 207.883 47.957 207.68 47.6289C207.484 47.3008 207.176 47.0625 206.754 46.9141C206.34 46.7656 205.805 46.6914 205.148 46.6914H202.711V61H199.195V43.9375H205.148C206.141 43.9375 207.027 44.0312 207.809 44.2188C208.598 44.4062 209.266 44.6914 209.812 45.0742C210.359 45.457 210.777 45.9414 211.066 46.5273C211.355 47.1055 211.5 47.793 211.5 48.5898C211.5 49.293 211.34 49.9414 211.02 50.5352C210.707 51.1289 210.211 51.6133 209.531 51.9883C208.859 52.3633 207.98 52.5703 206.895 52.6094L205.875 53.5117ZM205.723 61H200.531L201.902 58.2578H205.723C206.34 58.2578 206.844 58.1602 207.234 57.9648C207.625 57.7617 207.914 57.4883 208.102 57.1445C208.289 56.8008 208.383 56.4062 208.383 55.9609C208.383 55.4609 208.297 55.0273 208.125 54.6602C207.961 54.293 207.695 54.0117 207.328 53.8164C206.961 53.6133 206.477 53.5117 205.875 53.5117H202.488L202.512 51.0977H206.73L207.539 52.0469C208.578 52.0312 209.414 52.2148 210.047 52.5977C210.688 52.9727 211.152 53.4609 211.441 54.0625C211.738 54.6641 211.887 55.3086 211.887 55.9961C211.887 57.0898 211.648 58.0117 211.172 58.7617C210.695 59.5039 209.996 60.0625 209.074 60.4375C208.16 60.8125 207.043 61 205.723 61ZM220.148 61.2344C219.164 61.2344 218.281 61.0781 217.5 60.7656C216.719 60.4453 216.055 60.0039 215.508 59.4414C214.969 58.8789 214.555 58.2266 214.266 57.4844C213.977 56.7344 213.832 55.9375 213.832 55.0938V54.625C213.832 53.6641 213.969 52.7852 214.242 51.9883C214.516 51.1914 214.906 50.5 215.414 49.9141C215.93 49.3281 216.555 48.8789 217.289 48.5664C218.023 48.2461 218.852 48.0859 219.773 48.0859C220.672 48.0859 221.469 48.2344 222.164 48.5312C222.859 48.8281 223.441 49.25 223.91 49.7969C224.387 50.3438 224.746 51 224.988 51.7656C225.23 52.5234 225.352 53.3672 225.352 54.2969V55.7031H215.273V53.4531H222.035V53.1953C222.035 52.7266 221.949 52.3086 221.777 51.9414C221.613 51.5664 221.363 51.2695 221.027 51.0508C220.691 50.832 220.262 50.7227 219.738 50.7227C219.293 50.7227 218.91 50.8203 218.59 51.0156C218.27 51.2109 218.008 51.4844 217.805 51.8359C217.609 52.1875 217.461 52.6016 217.359 53.0781C217.266 53.5469 217.219 54.0625 217.219 54.625V55.0938C217.219 55.6016 217.289 56.0703 217.43 56.5C217.578 56.9297 217.785 57.3008 218.051 57.6133C218.324 57.9258 218.652 58.168 219.035 58.3398C219.426 58.5117 219.867 58.5977 220.359 58.5977C220.969 58.5977 221.535 58.4805 222.059 58.2461C222.59 58.0039 223.047 57.6406 223.43 57.1562L225.07 58.9375C224.805 59.3203 224.441 59.6875 223.98 60.0391C223.527 60.3906 222.98 60.6797 222.34 60.9062C221.699 61.125 220.969 61.2344 220.148 61.2344ZM234.117 58.1406V52.4922C234.117 52.0859 234.051 51.7383 233.918 51.4492C233.785 51.1523 233.578 50.9219 233.297 50.7578C233.023 50.5938 232.668 50.5117 232.23 50.5117C231.855 50.5117 231.531 50.5781 231.258 50.7109C230.984 50.8359 230.773 51.0195 230.625 51.2617C230.477 51.4961 230.402 51.7734 230.402 52.0938H227.027C227.027 51.5547 227.152 51.043 227.402 50.5586C227.652 50.0742 228.016 49.6484 228.492 49.2812C228.969 48.9062 229.535 48.6133 230.191 48.4023C230.855 48.1914 231.598 48.0859 232.418 48.0859C233.402 48.0859 234.277 48.25 235.043 48.5781C235.809 48.9062 236.41 49.3984 236.848 50.0547C237.293 50.7109 237.516 51.5312 237.516 52.5156V57.9414C237.516 58.6367 237.559 59.207 237.645 59.6523C237.73 60.0898 237.855 60.4727 238.02 60.8008V61H234.609C234.445 60.6562 234.32 60.2266 234.234 59.7109C234.156 59.1875 234.117 58.6641 234.117 58.1406ZM234.562 53.2773L234.586 55.1875H232.699C232.254 55.1875 231.867 55.2383 231.539 55.3398C231.211 55.4414 230.941 55.5859 230.73 55.7734C230.52 55.9531 230.363 56.1641 230.262 56.4062C230.168 56.6484 230.121 56.9141 230.121 57.2031C230.121 57.4922 230.188 57.7539 230.32 57.9883C230.453 58.2148 230.645 58.3945 230.895 58.5273C231.145 58.6523 231.438 58.7148 231.773 58.7148C232.281 58.7148 232.723 58.6133 233.098 58.4102C233.473 58.207 233.762 57.957 233.965 57.6602C234.176 57.3633 234.285 57.082 234.293 56.8164L235.184 58.2461C235.059 58.5664 234.887 58.8984 234.668 59.2422C234.457 59.5859 234.188 59.9102 233.859 60.2148C233.531 60.5117 233.137 60.7578 232.676 60.9531C232.215 61.1406 231.668 61.2344 231.035 61.2344C230.23 61.2344 229.5 61.0742 228.844 60.7539C228.195 60.4258 227.68 59.9766 227.297 59.4062C226.922 58.8281 226.734 58.1719 226.734 57.4375C226.734 56.7734 226.859 56.1836 227.109 55.668C227.359 55.1523 227.727 54.7188 228.211 54.3672C228.703 54.0078 229.316 53.7383 230.051 53.5586C230.785 53.3711 231.637 53.2773 232.605 53.2773H234.562ZM243.492 50.9453V61H240.105V48.3203H243.281L243.492 50.9453ZM243.023 54.2148H242.086C242.086 53.332 242.191 52.5195 242.402 51.7773C242.621 51.0273 242.938 50.3789 243.352 49.832C243.773 49.2773 244.293 48.8477 244.91 48.543C245.527 48.2383 246.242 48.0859 247.055 48.0859C247.617 48.0859 248.133 48.1719 248.602 48.3438C249.07 48.5078 249.473 48.7695 249.809 49.1289C250.152 49.4805 250.418 49.9414 250.605 50.5117C250.793 51.0742 250.887 51.75 250.887 52.5391V61H247.512V52.9141C247.512 52.3359 247.434 51.8906 247.277 51.5781C247.121 51.2656 246.898 51.0469 246.609 50.9219C246.328 50.7969 245.988 50.7344 245.59 50.7344C245.152 50.7344 244.77 50.8242 244.441 51.0039C244.121 51.1836 243.855 51.4336 243.645 51.7539C243.434 52.0664 243.277 52.4336 243.176 52.8555C243.074 53.2773 243.023 53.7305 243.023 54.2148ZM250.57 53.8281L249.363 53.9805C249.363 53.1523 249.465 52.3828 249.668 51.6719C249.879 50.9609 250.188 50.3359 250.594 49.7969C251.008 49.2578 251.52 48.8398 252.129 48.543C252.738 48.2383 253.441 48.0859 254.238 48.0859C254.848 48.0859 255.402 48.1758 255.902 48.3555C256.402 48.5273 256.828 48.8047 257.18 49.1875C257.539 49.5625 257.812 50.0547 258 50.6641C258.195 51.2734 258.293 52.0195 258.293 52.9023V61H254.906V52.9023C254.906 52.3164 254.828 51.8711 254.672 51.5664C254.523 51.2539 254.305 51.0391 254.016 50.9219C253.734 50.7969 253.398 50.7344 253.008 50.7344C252.602 50.7344 252.246 50.8164 251.941 50.9805C251.637 51.1367 251.383 51.3555 251.18 51.6367C250.977 51.918 250.824 52.2461 250.723 52.6211C250.621 52.9883 250.57 53.3906 250.57 53.8281Z" fill="#888888"/>
<path d="M114.117 84.875H122.344V107.164C122.344 109.82 121.789 112.07 120.68 113.914C119.57 115.742 118.016 117.125 116.016 118.062C114.016 119 111.664 119.469 108.961 119.469C106.289 119.469 103.938 119 101.906 118.062C99.8906 117.125 98.3125 115.742 97.1719 113.914C96.0469 112.07 95.4844 109.82 95.4844 107.164V84.875H103.734V107.164C103.734 108.57 103.938 109.719 104.344 110.609C104.75 111.484 105.344 112.125 106.125 112.531C106.906 112.938 107.852 113.141 108.961 113.141C110.086 113.141 111.031 112.938 111.797 112.531C112.562 112.125 113.141 111.484 113.531 110.609C113.922 109.719 114.117 108.57 114.117 107.164V84.875ZM136.266 84.875V119H128.062V84.875H136.266ZM172.523 84.875H180.75V107.164C180.75 109.82 180.195 112.07 179.086 113.914C177.977 115.742 176.422 117.125 174.422 118.062C172.422 119 170.07 119.469 167.367 119.469C164.695 119.469 162.344 119 160.312 118.062C158.297 117.125 156.719 115.742 155.578 113.914C154.453 112.07 153.891 109.82 153.891 107.164V84.875H162.141V107.164C162.141 108.57 162.344 109.719 162.75 110.609C163.156 111.484 163.75 112.125 164.531 112.531C165.312 112.938 166.258 113.141 167.367 113.141C168.492 113.141 169.438 112.938 170.203 112.531C170.969 112.125 171.547 111.484 171.938 110.609C172.328 109.719 172.523 108.57 172.523 107.164V84.875ZM193.078 84.875L198.656 96.2188L204.234 84.875H213.609L204.094 101.797L213.867 119H204.398L198.656 107.445L192.914 119H183.422L193.219 101.797L183.68 84.875H193.078Z" fill="black"/>
<path d="M1134 0H1348C1356.28 0 1363 6.71573 1363 15V148C1363 156.284 1356.28 163 1348 163H1134V0Z" fill="#FF6F61"/>
<path d="M1248.5 111.917C1244.51 111.917 1240.55 111.13 1236.86 109.601C1233.17 108.073 1229.82 105.832 1226.99 103.008C1221.29 97.3036 1218.08 89.567 1218.08 81.5C1218.08 73.433 1221.29 65.6964 1226.99 59.9922C1232.7 54.2879 1240.43 51.0833 1248.5 51.0833C1265.23 51.0833 1278.92 63.25 1278.92 78.4583C1278.92 83.2985 1276.99 87.9405 1273.57 91.363C1270.15 94.7856 1265.51 96.7083 1260.67 96.7083H1255.19C1254.28 96.7083 1253.67 97.3167 1253.67 98.2292C1253.67 98.5333 1253.97 98.8375 1253.97 99.1417C1255.19 100.662 1255.8 102.487 1255.8 104.312C1256.1 108.571 1252.76 111.917 1248.5 111.917ZM1248.5 57.1667C1242.05 57.1667 1235.86 59.7303 1231.29 64.2937C1226.73 68.8571 1224.17 75.0464 1224.17 81.5C1224.17 87.9536 1226.73 94.1429 1231.29 98.7063C1235.86 103.27 1242.05 105.833 1248.5 105.833C1249.41 105.833 1250.02 105.225 1250.02 104.312C1250.02 103.704 1249.72 103.4 1249.72 103.096C1248.5 101.575 1247.89 100.054 1247.89 98.2292C1247.89 93.9708 1251.24 90.625 1255.5 90.625H1260.67C1263.89 90.625 1266.99 89.3432 1269.27 87.0615C1271.55 84.7798 1272.83 81.6851 1272.83 78.4583C1272.83 66.5958 1261.88 57.1667 1248.5 57.1667ZM1231.77 75.4167C1234.2 75.4167 1236.33 77.5458 1236.33 79.9792C1236.33 82.4125 1234.2 84.5417 1231.77 84.5417C1229.34 84.5417 1227.21 82.4125 1227.21 79.9792C1227.21 77.5458 1229.34 75.4167 1231.77 75.4167ZM1240.9 63.25C1243.33 63.25 1245.46 65.3792 1245.46 67.8125C1245.46 70.2458 1243.33 72.375 1240.9 72.375C1238.46 72.375 1236.33 70.2458 1236.33 67.8125C1236.33 65.3792 1238.46 63.25 1240.9 63.25ZM1256.1 63.25C1258.54 63.25 1260.67 65.3792 1260.67 67.8125C1260.67 70.2458 1258.54 72.375 1256.1 72.375C1253.67 72.375 1251.54 70.2458 1251.54 67.8125C1251.54 65.3792 1253.67 63.25 1256.1 63.25ZM1265.23 75.4167C1267.66 75.4167 1269.79 77.5458 1269.79 79.9792C1269.79 82.4125 1267.66 84.5417 1265.23 84.5417C1262.8 84.5417 1260.67 82.4125 1260.67 79.9792C1260.67 77.5458 1262.8 75.4167 1265.23 75.4167Z" fill="white"/>
</svg>
