<svg width="1363" height="163" viewBox="0 0 1363 163" fill="none" xmlns="http://www.w3.org/2000/svg">
<path d="M0 15C0 6.71573 6.71573 0 15 0H37V163H15C6.71573 163 0 156.284 0 148V15Z" fill="#424242"/>
<rect width="1097" height="163" transform="translate(37)" fill="#F0F0F0"/>
<path d="M101.906 53.9219L94.3945 51.2383V48.0859L104.602 52.375V54.6367L101.906 53.9219ZM94.3945 56.1719L101.918 53.4297L104.602 52.7852V55.0352L94.3945 59.3242V56.1719ZM119.578 53.5117H115.195L115.172 51.0977H118.852C119.5 51.0977 120.031 51.0156 120.445 50.8516C120.859 50.6797 121.168 50.4336 121.371 50.1133C121.582 49.7852 121.688 49.3867 121.688 48.918C121.688 48.3867 121.586 47.957 121.383 47.6289C121.188 47.3008 120.879 47.0625 120.457 46.9141C120.043 46.7656 119.508 46.6914 118.852 46.6914H116.414V61H112.898V43.9375H118.852C119.844 43.9375 120.73 44.0312 121.512 44.2188C122.301 44.4062 122.969 44.6914 123.516 45.0742C124.062 45.457 124.48 45.9414 124.77 46.5273C125.059 47.1055 125.203 47.793 125.203 48.5898C125.203 49.293 125.043 49.9414 124.723 50.5352C124.41 51.1289 123.914 51.6133 123.234 51.9883C122.562 52.3633 121.684 52.5703 120.598 52.6094L119.578 53.5117ZM119.426 61H114.234L115.605 58.2578H119.426C120.043 58.2578 120.547 58.1602 120.938 57.9648C121.328 57.7617 121.617 57.4883 121.805 57.1445C121.992 56.8008 122.086 56.4062 122.086 55.9609C122.086 55.4609 122 55.0273 121.828 54.6602C121.664 54.293 121.398 54.0117 121.031 53.8164C120.664 53.6133 120.18 53.5117 119.578 53.5117H116.191L116.215 51.0977H120.434L121.242 52.0469C122.281 52.0312 123.117 52.2148 123.75 52.5977C124.391 52.9727 124.855 53.4609 125.145 54.0625C125.441 54.6641 125.59 55.3086 125.59 55.9961C125.59 57.0898 125.352 58.0117 124.875 58.7617C124.398 59.5039 123.699 60.0625 122.777 60.4375C121.863 60.8125 120.746 61 119.426 61ZM134.859 58.1406V52.4922C134.859 52.0859 134.793 51.7383 134.66 51.4492C134.527 51.1523 134.32 50.9219 134.039 50.7578C133.766 50.5938 133.41 50.5117 132.973 50.5117C132.598 50.5117 132.273 50.5781 132 50.7109C131.727 50.8359 131.516 51.0195 131.367 51.2617C131.219 51.4961 131.145 51.7734 131.145 52.0938H127.77C127.77 51.5547 127.895 51.043 128.145 50.5586C128.395 50.0742 128.758 49.6484 129.234 49.2812C129.711 48.9062 130.277 48.6133 130.934 48.4023C131.598 48.1914 132.34 48.0859 133.16 48.0859C134.145 48.0859 135.02 48.25 135.785 48.5781C136.551 48.9062 137.152 49.3984 137.59 50.0547C138.035 50.7109 138.258 51.5312 138.258 52.5156V57.9414C138.258 58.6367 138.301 59.207 138.387 59.6523C138.473 60.0898 138.598 60.4727 138.762 60.8008V61H135.352C135.188 60.6562 135.062 60.2266 134.977 59.7109C134.898 59.1875 134.859 58.6641 134.859 58.1406ZM135.305 53.2773L135.328 55.1875H133.441C132.996 55.1875 132.609 55.2383 132.281 55.3398C131.953 55.4414 131.684 55.5859 131.473 55.7734C131.262 55.9531 131.105 56.1641 131.004 56.4062C130.91 56.6484 130.863 56.9141 130.863 57.2031C130.863 57.4922 130.93 57.7539 131.062 57.9883C131.195 58.2148 131.387 58.3945 131.637 58.5273C131.887 58.6523 132.18 58.7148 132.516 58.7148C133.023 58.7148 133.465 58.6133 133.84 58.4102C134.215 58.207 134.504 57.957 134.707 57.6602C134.918 57.3633 135.027 57.082 135.035 56.8164L135.926 58.2461C135.801 58.5664 135.629 58.8984 135.41 59.2422C135.199 59.5859 134.93 59.9102 134.602 60.2148C134.273 60.5117 133.879 60.7578 133.418 60.9531C132.957 61.1406 132.41 61.2344 131.777 61.2344C130.973 61.2344 130.242 61.0742 129.586 60.7539C128.938 60.4258 128.422 59.9766 128.039 59.4062C127.664 58.8281 127.477 58.1719 127.477 57.4375C127.477 56.7734 127.602 56.1836 127.852 55.668C128.102 55.1523 128.469 54.7188 128.953 54.3672C129.445 54.0078 130.059 53.7383 130.793 53.5586C131.527 53.3711 132.379 53.2773 133.348 53.2773H135.305ZM144.422 43V61H141.035V43H144.422ZM154.055 58.1406V52.4922C154.055 52.0859 153.988 51.7383 153.855 51.4492C153.723 51.1523 153.516 50.9219 153.234 50.7578C152.961 50.5938 152.605 50.5117 152.168 50.5117C151.793 50.5117 151.469 50.5781 151.195 50.7109C150.922 50.8359 150.711 51.0195 150.562 51.2617C150.414 51.4961 150.34 51.7734 150.34 52.0938H146.965C146.965 51.5547 147.09 51.043 147.34 50.5586C147.59 50.0742 147.953 49.6484 148.43 49.2812C148.906 48.9062 149.473 48.6133 150.129 48.4023C150.793 48.1914 151.535 48.0859 152.355 48.0859C153.34 48.0859 154.215 48.25 154.98 48.5781C155.746 48.9062 156.348 49.3984 156.785 50.0547C157.23 50.7109 157.453 51.5312 157.453 52.5156V57.9414C157.453 58.6367 157.496 59.207 157.582 59.6523C157.668 60.0898 157.793 60.4727 157.957 60.8008V61H154.547C154.383 60.6562 154.258 60.2266 154.172 59.7109C154.094 59.1875 154.055 58.6641 154.055 58.1406ZM154.5 53.2773L154.523 55.1875H152.637C152.191 55.1875 151.805 55.2383 151.477 55.3398C151.148 55.4414 150.879 55.5859 150.668 55.7734C150.457 55.9531 150.301 56.1641 150.199 56.4062C150.105 56.6484 150.059 56.9141 150.059 57.2031C150.059 57.4922 150.125 57.7539 150.258 57.9883C150.391 58.2148 150.582 58.3945 150.832 58.5273C151.082 58.6523 151.375 58.7148 151.711 58.7148C152.219 58.7148 152.66 58.6133 153.035 58.4102C153.41 58.207 153.699 57.957 153.902 57.6602C154.113 57.3633 154.223 57.082 154.23 56.8164L155.121 58.2461C154.996 58.5664 154.824 58.8984 154.605 59.2422C154.395 59.5859 154.125 59.9102 153.797 60.2148C153.469 60.5117 153.074 60.7578 152.613 60.9531C152.152 61.1406 151.605 61.2344 150.973 61.2344C150.168 61.2344 149.438 61.0742 148.781 60.7539C148.133 60.4258 147.617 59.9766 147.234 59.4062C146.859 58.8281 146.672 58.1719 146.672 57.4375C146.672 56.7734 146.797 56.1836 147.047 55.668C147.297 55.1523 147.664 54.7188 148.148 54.3672C148.641 54.0078 149.254 53.7383 149.988 53.5586C150.723 53.3711 151.574 53.2773 152.543 53.2773H154.5ZM163.359 51.0273V61H159.984V48.3203H163.148L163.359 51.0273ZM162.867 54.2148H161.953C161.953 53.2773 162.074 52.4336 162.316 51.6836C162.559 50.9258 162.898 50.2812 163.336 49.75C163.773 49.2109 164.293 48.8008 164.895 48.5195C165.504 48.2305 166.184 48.0859 166.934 48.0859C167.527 48.0859 168.07 48.1719 168.562 48.3438C169.055 48.5156 169.477 48.7891 169.828 49.1641C170.188 49.5391 170.461 50.0352 170.648 50.6523C170.844 51.2695 170.941 52.0234 170.941 52.9141V61H167.543V52.9023C167.543 52.3398 167.465 51.9023 167.309 51.5898C167.152 51.2773 166.922 51.0586 166.617 50.9336C166.32 50.8008 165.953 50.7344 165.516 50.7344C165.062 50.7344 164.668 50.8242 164.332 51.0039C164.004 51.1836 163.73 51.4336 163.512 51.7539C163.301 52.0664 163.141 52.4336 163.031 52.8555C162.922 53.2773 162.867 53.7305 162.867 54.2148ZM178.746 58.5977C179.16 58.5977 179.527 58.5195 179.848 58.3633C180.168 58.1992 180.418 57.9727 180.598 57.6836C180.785 57.3867 180.883 57.0391 180.891 56.6406H184.066C184.059 57.5312 183.82 58.3242 183.352 59.0195C182.883 59.707 182.254 60.25 181.465 60.6484C180.676 61.0391 179.793 61.2344 178.816 61.2344C177.832 61.2344 176.973 61.0703 176.238 60.7422C175.512 60.4141 174.906 59.9609 174.422 59.3828C173.938 58.7969 173.574 58.1172 173.332 57.3438C173.09 56.5625 172.969 55.7266 172.969 54.8359V54.4961C172.969 53.5977 173.09 52.7617 173.332 51.9883C173.574 51.207 173.938 50.5273 174.422 49.9492C174.906 49.3633 175.512 48.9062 176.238 48.5781C176.965 48.25 177.816 48.0859 178.793 48.0859C179.832 48.0859 180.742 48.2852 181.523 48.6836C182.312 49.082 182.93 49.6523 183.375 50.3945C183.828 51.1289 184.059 52 184.066 53.0078H180.891C180.883 52.5859 180.793 52.2031 180.621 51.8594C180.457 51.5156 180.215 51.2422 179.895 51.0391C179.582 50.8281 179.195 50.7227 178.734 50.7227C178.242 50.7227 177.84 50.8281 177.527 51.0391C177.215 51.2422 176.973 51.5234 176.801 51.8828C176.629 52.2344 176.508 52.6367 176.438 53.0898C176.375 53.5352 176.344 54.0039 176.344 54.4961V54.8359C176.344 55.3281 176.375 55.8008 176.438 56.2539C176.5 56.707 176.617 57.1094 176.789 57.4609C176.969 57.8125 177.215 58.0898 177.527 58.293C177.84 58.4961 178.246 58.5977 178.746 58.5977ZM191.859 61.2344C190.875 61.2344 189.992 61.0781 189.211 60.7656C188.43 60.4453 187.766 60.0039 187.219 59.4414C186.68 58.8789 186.266 58.2266 185.977 57.4844C185.688 56.7344 185.543 55.9375 185.543 55.0938V54.625C185.543 53.6641 185.68 52.7852 185.953 51.9883C186.227 51.1914 186.617 50.5 187.125 49.9141C187.641 49.3281 188.266 48.8789 189 48.5664C189.734 48.2461 190.562 48.0859 191.484 48.0859C192.383 48.0859 193.18 48.2344 193.875 48.5312C194.57 48.8281 195.152 49.25 195.621 49.7969C196.098 50.3438 196.457 51 196.699 51.7656C196.941 52.5234 197.062 53.3672 197.062 54.2969V55.7031H186.984V53.4531H193.746V53.1953C193.746 52.7266 193.66 52.3086 193.488 51.9414C193.324 51.5664 193.074 51.2695 192.738 51.0508C192.402 50.832 191.973 50.7227 191.449 50.7227C191.004 50.7227 190.621 50.8203 190.301 51.0156C189.98 51.2109 189.719 51.4844 189.516 51.8359C189.32 52.1875 189.172 52.6016 189.07 53.0781C188.977 53.5469 188.93 54.0625 188.93 54.625V55.0938C188.93 55.6016 189 56.0703 189.141 56.5C189.289 56.9297 189.496 57.3008 189.762 57.6133C190.035 57.9258 190.363 58.168 190.746 58.3398C191.137 58.5117 191.578 58.5977 192.07 58.5977C192.68 58.5977 193.246 58.4805 193.77 58.2461C194.301 58.0039 194.758 57.6406 195.141 57.1562L196.781 58.9375C196.516 59.3203 196.152 59.6875 195.691 60.0391C195.238 60.3906 194.691 60.6797 194.051 60.9062C193.41 61.125 192.68 61.2344 191.859 61.2344ZM205.875 53.5117H201.492L201.469 51.0977H205.148C205.797 51.0977 206.328 51.0156 206.742 50.8516C207.156 50.6797 207.465 50.4336 207.668 50.1133C207.879 49.7852 207.984 49.3867 207.984 48.918C207.984 48.3867 207.883 47.957 207.68 47.6289C207.484 47.3008 207.176 47.0625 206.754 46.9141C206.34 46.7656 205.805 46.6914 205.148 46.6914H202.711V61H199.195V43.9375H205.148C206.141 43.9375 207.027 44.0312 207.809 44.2188C208.598 44.4062 209.266 44.6914 209.812 45.0742C210.359 45.457 210.777 45.9414 211.066 46.5273C211.355 47.1055 211.5 47.793 211.5 48.5898C211.5 49.293 211.34 49.9414 211.02 50.5352C210.707 51.1289 210.211 51.6133 209.531 51.9883C208.859 52.3633 207.98 52.5703 206.895 52.6094L205.875 53.5117ZM205.723 61H200.531L201.902 58.2578H205.723C206.34 58.2578 206.844 58.1602 207.234 57.9648C207.625 57.7617 207.914 57.4883 208.102 57.1445C208.289 56.8008 208.383 56.4062 208.383 55.9609C208.383 55.4609 208.297 55.0273 208.125 54.6602C207.961 54.293 207.695 54.0117 207.328 53.8164C206.961 53.6133 206.477 53.5117 205.875 53.5117H202.488L202.512 51.0977H206.73L207.539 52.0469C208.578 52.0312 209.414 52.2148 210.047 52.5977C210.688 52.9727 211.152 53.4609 211.441 54.0625C211.738 54.6641 211.887 55.3086 211.887 55.9961C211.887 57.0898 211.648 58.0117 211.172 58.7617C210.695 59.5039 209.996 60.0625 209.074 60.4375C208.16 60.8125 207.043 61 205.723 61ZM220.148 61.2344C219.164 61.2344 218.281 61.0781 217.5 60.7656C216.719 60.4453 216.055 60.0039 215.508 59.4414C214.969 58.8789 214.555 58.2266 214.266 57.4844C213.977 56.7344 213.832 55.9375 213.832 55.0938V54.625C213.832 53.6641 213.969 52.7852 214.242 51.9883C214.516 51.1914 214.906 50.5 215.414 49.9141C215.93 49.3281 216.555 48.8789 217.289 48.5664C218.023 48.2461 218.852 48.0859 219.773 48.0859C220.672 48.0859 221.469 48.2344 222.164 48.5312C222.859 48.8281 223.441 49.25 223.91 49.7969C224.387 50.3438 224.746 51 224.988 51.7656C225.23 52.5234 225.352 53.3672 225.352 54.2969V55.7031H215.273V53.4531H222.035V53.1953C222.035 52.7266 221.949 52.3086 221.777 51.9414C221.613 51.5664 221.363 51.2695 221.027 51.0508C220.691 50.832 220.262 50.7227 219.738 50.7227C219.293 50.7227 218.91 50.8203 218.59 51.0156C218.27 51.2109 218.008 51.4844 217.805 51.8359C217.609 52.1875 217.461 52.6016 217.359 53.0781C217.266 53.5469 217.219 54.0625 217.219 54.625V55.0938C217.219 55.6016 217.289 56.0703 217.43 56.5C217.578 56.9297 217.785 57.3008 218.051 57.6133C218.324 57.9258 218.652 58.168 219.035 58.3398C219.426 58.5117 219.867 58.5977 220.359 58.5977C220.969 58.5977 221.535 58.4805 222.059 58.2461C222.59 58.0039 223.047 57.6406 223.43 57.1562L225.07 58.9375C224.805 59.3203 224.441 59.6875 223.98 60.0391C223.527 60.3906 222.98 60.6797 222.34 60.9062C221.699 61.125 220.969 61.2344 220.148 61.2344ZM234.117 58.1406V52.4922C234.117 52.0859 234.051 51.7383 233.918 51.4492C233.785 51.1523 233.578 50.9219 233.297 50.7578C233.023 50.5938 232.668 50.5117 232.23 50.5117C231.855 50.5117 231.531 50.5781 231.258 50.7109C230.984 50.8359 230.773 51.0195 230.625 51.2617C230.477 51.4961 230.402 51.7734 230.402 52.0938H227.027C227.027 51.5547 227.152 51.043 227.402 50.5586C227.652 50.0742 228.016 49.6484 228.492 49.2812C228.969 48.9062 229.535 48.6133 230.191 48.4023C230.855 48.1914 231.598 48.0859 232.418 48.0859C233.402 48.0859 234.277 48.25 235.043 48.5781C235.809 48.9062 236.41 49.3984 236.848 50.0547C237.293 50.7109 237.516 51.5312 237.516 52.5156V57.9414C237.516 58.6367 237.559 59.207 237.645 59.6523C237.73 60.0898 237.855 60.4727 238.02 60.8008V61H234.609C234.445 60.6562 234.32 60.2266 234.234 59.7109C234.156 59.1875 234.117 58.6641 234.117 58.1406ZM234.562 53.2773L234.586 55.1875H232.699C232.254 55.1875 231.867 55.2383 231.539 55.3398C231.211 55.4414 230.941 55.5859 230.73 55.7734C230.52 55.9531 230.363 56.1641 230.262 56.4062C230.168 56.6484 230.121 56.9141 230.121 57.2031C230.121 57.4922 230.188 57.7539 230.32 57.9883C230.453 58.2148 230.645 58.3945 230.895 58.5273C231.145 58.6523 231.438 58.7148 231.773 58.7148C232.281 58.7148 232.723 58.6133 233.098 58.4102C233.473 58.207 233.762 57.957 233.965 57.6602C234.176 57.3633 234.285 57.082 234.293 56.8164L235.184 58.2461C235.059 58.5664 234.887 58.8984 234.668 59.2422C234.457 59.5859 234.188 59.9102 233.859 60.2148C233.531 60.5117 233.137 60.7578 232.676 60.9531C232.215 61.1406 231.668 61.2344 231.035 61.2344C230.23 61.2344 229.5 61.0742 228.844 60.7539C228.195 60.4258 227.68 59.9766 227.297 59.4062C226.922 58.8281 226.734 58.1719 226.734 57.4375C226.734 56.7734 226.859 56.1836 227.109 55.668C227.359 55.1523 227.727 54.7188 228.211 54.3672C228.703 54.0078 229.316 53.7383 230.051 53.5586C230.785 53.3711 231.637 53.2773 232.605 53.2773H234.562ZM243.492 50.9453V61H240.105V48.3203H243.281L243.492 50.9453ZM243.023 54.2148H242.086C242.086 53.332 242.191 52.5195 242.402 51.7773C242.621 51.0273 242.938 50.3789 243.352 49.832C243.773 49.2773 244.293 48.8477 244.91 48.543C245.527 48.2383 246.242 48.0859 247.055 48.0859C247.617 48.0859 248.133 48.1719 248.602 48.3438C249.07 48.5078 249.473 48.7695 249.809 49.1289C250.152 49.4805 250.418 49.9414 250.605 50.5117C250.793 51.0742 250.887 51.75 250.887 52.5391V61H247.512V52.9141C247.512 52.3359 247.434 51.8906 247.277 51.5781C247.121 51.2656 246.898 51.0469 246.609 50.9219C246.328 50.7969 245.988 50.7344 245.59 50.7344C245.152 50.7344 244.77 50.8242 244.441 51.0039C244.121 51.1836 243.855 51.4336 243.645 51.7539C243.434 52.0664 243.277 52.4336 243.176 52.8555C243.074 53.2773 243.023 53.7305 243.023 54.2148ZM250.57 53.8281L249.363 53.9805C249.363 53.1523 249.465 52.3828 249.668 51.6719C249.879 50.9609 250.188 50.3359 250.594 49.7969C251.008 49.2578 251.52 48.8398 252.129 48.543C252.738 48.2383 253.441 48.0859 254.238 48.0859C254.848 48.0859 255.402 48.1758 255.902 48.3555C256.402 48.5273 256.828 48.8047 257.18 49.1875C257.539 49.5625 257.812 50.0547 258 50.6641C258.195 51.2734 258.293 52.0195 258.293 52.9023V61H254.906V52.9023C254.906 52.3164 254.828 51.8711 254.672 51.5664C254.523 51.2539 254.305 51.0391 254.016 50.9219C253.734 50.7969 253.398 50.7344 253.008 50.7344C252.602 50.7344 252.246 50.8164 251.941 50.9805C251.637 51.1367 251.383 51.3555 251.18 51.6367C250.977 51.918 250.824 52.2461 250.723 52.6211C250.621 52.9883 250.57 53.3906 250.57 53.8281Z" fill="#888888"/>
<path d="M112.125 84.875V119H103.898V84.875H112.125ZM122.391 84.875V91.2266H93.8672V84.875H122.391ZM135.68 119.469C133.617 119.469 131.773 119.148 130.148 118.508C128.523 117.852 127.148 116.953 126.023 115.812C124.914 114.672 124.062 113.359 123.469 111.875C122.891 110.391 122.602 108.82 122.602 107.164V106.273C122.602 104.414 122.859 102.695 123.375 101.117C123.891 99.5234 124.656 98.1328 125.672 96.9453C126.688 95.7578 127.961 94.8359 129.492 94.1797C131.023 93.5078 132.805 93.1719 134.836 93.1719C136.633 93.1719 138.242 93.4609 139.664 94.0391C141.086 94.6172 142.289 95.4453 143.273 96.5234C144.273 97.6016 145.031 98.9062 145.547 100.438C146.078 101.969 146.344 103.688 146.344 105.594V108.805H125.625V103.859H138.633V103.25C138.648 102.406 138.5 101.688 138.188 101.094C137.891 100.5 137.453 100.047 136.875 99.7344C136.297 99.4219 135.594 99.2656 134.766 99.2656C133.906 99.2656 133.195 99.4531 132.633 99.8281C132.086 100.203 131.656 100.719 131.344 101.375C131.047 102.016 130.836 102.758 130.711 103.602C130.586 104.445 130.523 105.336 130.523 106.273V107.164C130.523 108.102 130.648 108.953 130.898 109.719C131.164 110.484 131.539 111.141 132.023 111.688C132.523 112.219 133.117 112.633 133.805 112.93C134.508 113.227 135.305 113.375 136.195 113.375C137.273 113.375 138.336 113.172 139.383 112.766C140.43 112.359 141.328 111.688 142.078 110.75L145.664 115.016C145.148 115.75 144.414 116.461 143.461 117.148C142.523 117.836 141.398 118.398 140.086 118.836C138.773 119.258 137.305 119.469 135.68 119.469ZM160.266 113.375C161 113.375 161.625 113.242 162.141 112.977C162.672 112.695 163.07 112.305 163.336 111.805C163.617 111.289 163.75 110.672 163.734 109.953H171.164C171.18 111.859 170.711 113.531 169.758 114.969C168.82 116.391 167.539 117.5 165.914 118.297C164.305 119.078 162.484 119.469 160.453 119.469C158.469 119.469 156.734 119.148 155.25 118.508C153.766 117.852 152.523 116.945 151.523 115.789C150.539 114.617 149.797 113.25 149.297 111.688C148.812 110.125 148.57 108.43 148.57 106.602V106.062C148.57 104.234 148.812 102.539 149.297 100.977C149.797 99.3984 150.539 98.0312 151.523 96.875C152.523 95.7031 153.758 94.7969 155.227 94.1562C156.711 93.5 158.438 93.1719 160.406 93.1719C162.516 93.1719 164.375 93.5703 165.984 94.3672C167.609 95.1641 168.883 96.3203 169.805 97.8359C170.727 99.3516 171.18 101.188 171.164 103.344H163.734C163.75 102.578 163.633 101.891 163.383 101.281C163.133 100.672 162.742 100.188 162.211 99.8281C161.695 99.4531 161.031 99.2656 160.219 99.2656C159.406 99.2656 158.75 99.4453 158.25 99.8047C157.75 100.164 157.367 100.664 157.102 101.305C156.852 101.93 156.68 102.648 156.586 103.461C156.508 104.273 156.469 105.141 156.469 106.062V106.602C156.469 107.539 156.508 108.422 156.586 109.25C156.68 110.062 156.859 110.781 157.125 111.406C157.391 112.016 157.773 112.5 158.273 112.859C158.773 113.203 159.438 113.375 160.266 113.375ZM182.273 83V119H174.375V83H182.273ZM181.336 105.453L179.484 105.5C179.484 103.719 179.703 102.078 180.141 100.578C180.578 99.0781 181.203 97.7734 182.016 96.6641C182.828 95.5547 183.805 94.6953 184.945 94.0859C186.086 93.4766 187.352 93.1719 188.742 93.1719C189.992 93.1719 191.133 93.3516 192.164 93.7109C193.211 94.0703 194.109 94.6484 194.859 95.4453C195.625 96.2422 196.211 97.2812 196.617 98.5625C197.039 99.8438 197.25 101.406 197.25 103.25V119H189.305V103.203C189.305 102.172 189.156 101.375 188.859 100.812C188.578 100.234 188.172 99.8359 187.641 99.6172C187.109 99.3828 186.461 99.2656 185.695 99.2656C184.773 99.2656 184.023 99.4219 183.445 99.7344C182.867 100.047 182.422 100.484 182.109 101.047C181.812 101.594 181.609 102.242 181.5 102.992C181.391 103.742 181.336 104.562 181.336 105.453ZM231.539 109.93C231.539 109.398 231.461 108.922 231.305 108.5C231.148 108.062 230.859 107.656 230.438 107.281C230.016 106.906 229.406 106.531 228.609 106.156C227.828 105.766 226.797 105.359 225.516 104.938C224.016 104.438 222.57 103.875 221.18 103.25C219.789 102.609 218.547 101.867 217.453 101.023C216.359 100.164 215.492 99.1641 214.852 98.0234C214.211 96.8672 213.891 95.5234 213.891 93.9922C213.891 92.5234 214.219 91.2031 214.875 90.0312C215.531 88.8438 216.445 87.8359 217.617 87.0078C218.805 86.1641 220.195 85.5234 221.789 85.0859C223.383 84.6328 225.125 84.4062 227.016 84.4062C229.516 84.4062 231.719 84.8438 233.625 85.7188C235.547 86.5781 237.047 87.8047 238.125 89.3984C239.219 90.9766 239.766 92.8438 239.766 95H231.586C231.586 94.1406 231.406 93.3828 231.047 92.7266C230.703 92.0703 230.18 91.5547 229.477 91.1797C228.773 90.8047 227.891 90.6172 226.828 90.6172C225.797 90.6172 224.93 90.7734 224.227 91.0859C223.523 91.3984 222.992 91.8203 222.633 92.3516C222.273 92.8672 222.094 93.4375 222.094 94.0625C222.094 94.5781 222.234 95.0469 222.516 95.4688C222.812 95.875 223.227 96.2578 223.758 96.6172C224.305 96.9766 224.961 97.3203 225.727 97.6484C226.508 97.9766 227.383 98.2969 228.352 98.6094C230.164 99.1875 231.773 99.8359 233.18 100.555C234.602 101.258 235.797 102.062 236.766 102.969C237.75 103.859 238.492 104.875 238.992 106.016C239.508 107.156 239.766 108.445 239.766 109.883C239.766 111.414 239.469 112.773 238.875 113.961C238.281 115.148 237.43 116.156 236.32 116.984C235.211 117.797 233.883 118.414 232.336 118.836C230.789 119.258 229.062 119.469 227.156 119.469C225.406 119.469 223.68 119.25 221.977 118.812C220.289 118.359 218.758 117.672 217.383 116.75C216.008 115.812 214.906 114.617 214.078 113.164C213.266 111.695 212.859 109.953 212.859 107.938H221.109C221.109 108.938 221.242 109.781 221.508 110.469C221.773 111.156 222.164 111.711 222.68 112.133C223.195 112.539 223.828 112.836 224.578 113.023C225.328 113.195 226.188 113.281 227.156 113.281C228.203 113.281 229.047 113.133 229.688 112.836C230.328 112.523 230.797 112.117 231.094 111.617C231.391 111.102 231.539 110.539 231.539 109.93ZM256.992 93.6406V99.125H241.711V93.6406H256.992ZM244.922 87.3359H252.82V110.727C252.82 111.398 252.898 111.922 253.055 112.297C253.211 112.656 253.477 112.914 253.852 113.07C254.242 113.211 254.758 113.281 255.398 113.281C255.852 113.281 256.227 113.273 256.523 113.258C256.82 113.227 257.102 113.188 257.367 113.141V118.789C256.695 119.008 255.992 119.172 255.258 119.281C254.523 119.406 253.742 119.469 252.914 119.469C251.227 119.469 249.781 119.203 248.578 118.672C247.391 118.141 246.484 117.305 245.859 116.164C245.234 115.023 244.922 113.539 244.922 111.711V87.3359ZM273.305 112.625V102.172C273.305 101.453 273.203 100.836 273 100.32C272.797 99.8047 272.477 99.4062 272.039 99.125C271.602 98.8281 271.016 98.6797 270.281 98.6797C269.688 98.6797 269.18 98.7812 268.758 98.9844C268.336 99.1875 268.016 99.4922 267.797 99.8984C267.578 100.305 267.469 100.82 267.469 101.445H259.57C259.57 100.273 259.828 99.1875 260.344 98.1875C260.875 97.1719 261.625 96.2891 262.594 95.5391C263.578 94.7891 264.75 94.2109 266.109 93.8047C267.484 93.3828 269.016 93.1719 270.703 93.1719C272.719 93.1719 274.516 93.5078 276.094 94.1797C277.688 94.8516 278.945 95.8594 279.867 97.2031C280.789 98.5312 281.25 100.203 281.25 102.219V112.602C281.25 114.258 281.344 115.516 281.531 116.375C281.719 117.219 281.984 117.961 282.328 118.602V119H274.406C274.031 118.219 273.75 117.266 273.562 116.141C273.391 115 273.305 113.828 273.305 112.625ZM274.266 103.508L274.312 107.727H270.82C270.086 107.727 269.461 107.828 268.945 108.031C268.445 108.234 268.039 108.516 267.727 108.875C267.43 109.219 267.211 109.609 267.07 110.047C266.945 110.484 266.883 110.945 266.883 111.43C266.883 111.898 266.992 112.32 267.211 112.695C267.445 113.055 267.758 113.336 268.148 113.539C268.539 113.742 268.977 113.844 269.461 113.844C270.336 113.844 271.078 113.68 271.688 113.352C272.312 113.008 272.789 112.594 273.117 112.109C273.445 111.625 273.609 111.172 273.609 110.75L275.344 113.984C275.031 114.609 274.672 115.242 274.266 115.883C273.875 116.523 273.383 117.117 272.789 117.664C272.211 118.195 271.5 118.633 270.656 118.977C269.812 119.305 268.789 119.469 267.586 119.469C266.023 119.469 264.586 119.148 263.273 118.508C261.977 117.867 260.938 116.977 260.156 115.836C259.375 114.68 258.984 113.352 258.984 111.852C258.984 110.539 259.219 109.367 259.688 108.336C260.172 107.305 260.898 106.43 261.867 105.711C262.836 104.992 264.07 104.445 265.57 104.07C267.07 103.695 268.836 103.508 270.867 103.508H274.266ZM296.344 113.375C297.078 113.375 297.703 113.242 298.219 112.977C298.75 112.695 299.148 112.305 299.414 111.805C299.695 111.289 299.828 110.672 299.812 109.953H307.242C307.258 111.859 306.789 113.531 305.836 114.969C304.898 116.391 303.617 117.5 301.992 118.297C300.383 119.078 298.562 119.469 296.531 119.469C294.547 119.469 292.812 119.148 291.328 118.508C289.844 117.852 288.602 116.945 287.602 115.789C286.617 114.617 285.875 113.25 285.375 111.688C284.891 110.125 284.648 108.43 284.648 106.602V106.062C284.648 104.234 284.891 102.539 285.375 100.977C285.875 99.3984 286.617 98.0312 287.602 96.875C288.602 95.7031 289.836 94.7969 291.305 94.1562C292.789 93.5 294.516 93.1719 296.484 93.1719C298.594 93.1719 300.453 93.5703 302.062 94.3672C303.688 95.1641 304.961 96.3203 305.883 97.8359C306.805 99.3516 307.258 101.188 307.242 103.344H299.812C299.828 102.578 299.711 101.891 299.461 101.281C299.211 100.672 298.82 100.188 298.289 99.8281C297.773 99.4531 297.109 99.2656 296.297 99.2656C295.484 99.2656 294.828 99.4453 294.328 99.8047C293.828 100.164 293.445 100.664 293.18 101.305C292.93 101.93 292.758 102.648 292.664 103.461C292.586 104.273 292.547 105.141 292.547 106.062V106.602C292.547 107.539 292.586 108.422 292.664 109.25C292.758 110.062 292.938 110.781 293.203 111.406C293.469 112.016 293.852 112.5 294.352 112.859C294.852 113.203 295.516 113.375 296.344 113.375ZM318.586 82.9766V119H310.688V82.9766H318.586ZM334.805 93.6406L323.789 106.555L318.023 112.32L314.578 107.305L319.383 101.047L325.336 93.6406H334.805ZM326.344 119L319.57 107.445L325.406 103.297L335.391 119H326.344ZM350.156 111.875C350.156 111.438 350.008 111.062 349.711 110.75C349.43 110.422 348.93 110.125 348.211 109.859C347.492 109.578 346.484 109.297 345.188 109.016C343.953 108.75 342.789 108.398 341.695 107.961C340.617 107.523 339.672 106.992 338.859 106.367C338.047 105.742 337.406 105 336.938 104.141C336.484 103.281 336.258 102.297 336.258 101.188C336.258 100.109 336.484 99.0938 336.938 98.1406C337.406 97.1719 338.086 96.3203 338.977 95.5859C339.883 94.8359 340.984 94.25 342.281 93.8281C343.578 93.3906 345.055 93.1719 346.711 93.1719C348.992 93.1719 350.961 93.5234 352.617 94.2266C354.273 94.9141 355.547 95.8828 356.438 97.1328C357.344 98.3672 357.797 99.7969 357.797 101.422H349.898C349.898 100.781 349.789 100.234 349.57 99.7812C349.367 99.3281 349.031 98.9844 348.562 98.75C348.094 98.5 347.469 98.375 346.688 98.375C346.141 98.375 345.641 98.4766 345.188 98.6797C344.75 98.8828 344.398 99.1641 344.133 99.5234C343.867 99.8828 343.734 100.305 343.734 100.789C343.734 101.133 343.812 101.445 343.969 101.727C344.141 101.992 344.398 102.242 344.742 102.477C345.086 102.695 345.523 102.898 346.055 103.086C346.586 103.258 347.227 103.414 347.977 103.555C349.68 103.867 351.273 104.312 352.758 104.891C354.242 105.469 355.445 106.289 356.367 107.352C357.305 108.414 357.773 109.844 357.773 111.641C357.773 112.766 357.516 113.805 357 114.758C356.484 115.695 355.742 116.523 354.773 117.242C353.805 117.945 352.641 118.492 351.281 118.883C349.922 119.273 348.391 119.469 346.688 119.469C344.266 119.469 342.219 119.039 340.547 118.18C338.875 117.305 337.609 116.211 336.75 114.898C335.906 113.57 335.484 112.227 335.484 110.867H342.844C342.875 111.648 343.062 112.289 343.406 112.789C343.766 113.289 344.242 113.656 344.836 113.891C345.43 114.125 346.117 114.242 346.898 114.242C347.617 114.242 348.211 114.141 348.68 113.938C349.164 113.734 349.531 113.461 349.781 113.117C350.031 112.758 350.156 112.344 350.156 111.875Z" fill="black"/>
<path d="M1134 0H1348C1356.28 0 1363 6.71573 1363 15V148C1363 156.284 1356.28 163 1348 163H1134V0Z" fill="#FF6F61"/>
<path fill-rule="evenodd" clip-rule="evenodd" d="M1219.98 53C1219.85 53 1219.73 53.0527 1219.64 53.1464C1219.55 53.2402 1219.5 53.3674 1219.5 53.5V109.5C1219.5 109.633 1219.55 109.76 1219.64 109.854C1219.73 109.947 1219.85 110 1219.98 110H1277.02C1277.15 110 1277.27 109.947 1277.36 109.854C1277.45 109.76 1277.5 109.633 1277.5 109.5V64C1277.5 63.8674 1277.45 63.7402 1277.36 63.6464C1277.27 63.5527 1277.15 63.5 1277.02 63.5H1248.5C1247.65 63.5 1246.84 63.1045 1246.29 62.4206L1238.77 53H1219.98ZM1215.58 48.9038C1216.74 47.6848 1218.33 47 1219.98 47H1240.11C1240.97 47 1241.77 47.3955 1242.32 48.0794L1249.85 57.5H1277.02C1278.67 57.5 1280.26 58.1848 1281.42 59.4038C1282.59 60.6228 1283.25 62.2761 1283.25 64V109.5C1283.25 111.224 1282.59 112.877 1281.42 114.096C1280.26 115.315 1278.67 116 1277.02 116H1219.98C1218.33 116 1216.74 115.315 1215.58 114.096C1214.41 112.877 1213.75 111.224 1213.75 109.5V53.5C1213.75 51.7761 1214.41 50.1228 1215.58 48.9038Z" fill="white"/>
<path fill-rule="evenodd" clip-rule="evenodd" d="M1244.16 75.5251C1245.47 76.892 1245.47 79.108 1244.16 80.4749L1238.15 86.75L1244.16 93.0251C1245.47 94.392 1245.47 96.608 1244.16 97.9749C1242.85 99.3417 1240.73 99.3417 1239.42 97.9749L1231.03 89.2249C1229.72 87.858 1229.72 85.642 1231.03 84.2751L1239.42 75.5251C1240.73 74.1583 1242.85 74.1583 1244.16 75.5251Z" fill="white"/>
<path fill-rule="evenodd" clip-rule="evenodd" d="M1252.12 97.9749C1250.81 96.608 1250.81 94.392 1252.12 93.0251L1258.13 86.75L1252.12 80.4749C1250.81 79.108 1250.81 76.892 1252.12 75.5251C1253.43 74.1583 1255.55 74.1583 1256.86 75.5251L1265.25 84.2751C1266.56 85.642 1266.56 87.858 1265.25 89.2249L1256.86 97.9749C1255.55 99.3417 1253.43 99.3417 1252.12 97.9749Z" fill="white"/>
</svg>
