<svg width="1363" height="163" viewBox="0 0 1363 163" fill="none" xmlns="http://www.w3.org/2000/svg">
<path d="M0 15C0 6.71573 6.71573 0 15 0H37V163H15C6.71573 163 0 156.284 0 148V15Z" fill="#424242"/>
<rect width="1097" height="163" transform="translate(37)" fill="#F0F0F0"/>
<path d="M101.203 53.5117H96.8203L96.7969 51.0977H100.477C101.125 51.0977 101.656 51.0156 102.07 50.8516C102.484 50.6797 102.793 50.4336 102.996 50.1133C103.207 49.7852 103.312 49.3867 103.312 48.918C103.312 48.3867 103.211 47.957 103.008 47.6289C102.812 47.3008 102.504 47.0625 102.082 46.9141C101.668 46.7656 101.133 46.6914 100.477 46.6914H98.0391V61H94.5234V43.9375H100.477C101.469 43.9375 102.355 44.0312 103.137 44.2188C103.926 44.4062 104.594 44.6914 105.141 45.0742C105.688 45.457 106.105 45.9414 106.395 46.5273C106.684 47.1055 106.828 47.793 106.828 48.5898C106.828 49.293 106.668 49.9414 106.348 50.5352C106.035 51.1289 105.539 51.6133 104.859 51.9883C104.188 52.3633 103.309 52.5703 102.223 52.6094L101.203 53.5117ZM101.051 61H95.8594L97.2305 58.2578H101.051C101.668 58.2578 102.172 58.1602 102.562 57.9648C102.953 57.7617 103.242 57.4883 103.43 57.1445C103.617 56.8008 103.711 56.4062 103.711 55.9609C103.711 55.4609 103.625 55.0273 103.453 54.6602C103.289 54.293 103.023 54.0117 102.656 53.8164C102.289 53.6133 101.805 53.5117 101.203 53.5117H97.8164L97.8398 51.0977H102.059L102.867 52.0469C103.906 52.0312 104.742 52.2148 105.375 52.5977C106.016 52.9727 106.48 53.4609 106.77 54.0625C107.066 54.6641 107.215 55.3086 107.215 55.9961C107.215 57.0898 106.977 58.0117 106.5 58.7617C106.023 59.5039 105.324 60.0625 104.402 60.4375C103.488 60.8125 102.371 61 101.051 61ZM116.484 58.1406V52.4922C116.484 52.0859 116.418 51.7383 116.285 51.4492C116.152 51.1523 115.945 50.9219 115.664 50.7578C115.391 50.5938 115.035 50.5117 114.598 50.5117C114.223 50.5117 113.898 50.5781 113.625 50.7109C113.352 50.8359 113.141 51.0195 112.992 51.2617C112.844 51.4961 112.77 51.7734 112.77 52.0938H109.395C109.395 51.5547 109.52 51.043 109.77 50.5586C110.02 50.0742 110.383 49.6484 110.859 49.2812C111.336 48.9062 111.902 48.6133 112.559 48.4023C113.223 48.1914 113.965 48.0859 114.785 48.0859C115.77 48.0859 116.645 48.25 117.41 48.5781C118.176 48.9062 118.777 49.3984 119.215 50.0547C119.66 50.7109 119.883 51.5312 119.883 52.5156V57.9414C119.883 58.6367 119.926 59.207 120.012 59.6523C120.098 60.0898 120.223 60.4727 120.387 60.8008V61H116.977C116.812 60.6562 116.688 60.2266 116.602 59.7109C116.523 59.1875 116.484 58.6641 116.484 58.1406ZM116.93 53.2773L116.953 55.1875H115.066C114.621 55.1875 114.234 55.2383 113.906 55.3398C113.578 55.4414 113.309 55.5859 113.098 55.7734C112.887 55.9531 112.73 56.1641 112.629 56.4062C112.535 56.6484 112.488 56.9141 112.488 57.2031C112.488 57.4922 112.555 57.7539 112.688 57.9883C112.82 58.2148 113.012 58.3945 113.262 58.5273C113.512 58.6523 113.805 58.7148 114.141 58.7148C114.648 58.7148 115.09 58.6133 115.465 58.4102C115.84 58.207 116.129 57.957 116.332 57.6602C116.543 57.3633 116.652 57.082 116.66 56.8164L117.551 58.2461C117.426 58.5664 117.254 58.8984 117.035 59.2422C116.824 59.5859 116.555 59.9102 116.227 60.2148C115.898 60.5117 115.504 60.7578 115.043 60.9531C114.582 61.1406 114.035 61.2344 113.402 61.2344C112.598 61.2344 111.867 61.0742 111.211 60.7539C110.562 60.4258 110.047 59.9766 109.664 59.4062C109.289 58.8281 109.102 58.1719 109.102 57.4375C109.102 56.7734 109.227 56.1836 109.477 55.668C109.727 55.1523 110.094 54.7188 110.578 54.3672C111.07 54.0078 111.684 53.7383 112.418 53.5586C113.152 53.3711 114.004 53.2773 114.973 53.2773H116.93ZM126.047 43V61H122.66V43H126.047ZM135.68 58.1406V52.4922C135.68 52.0859 135.613 51.7383 135.48 51.4492C135.348 51.1523 135.141 50.9219 134.859 50.7578C134.586 50.5938 134.23 50.5117 133.793 50.5117C133.418 50.5117 133.094 50.5781 132.82 50.7109C132.547 50.8359 132.336 51.0195 132.188 51.2617C132.039 51.4961 131.965 51.7734 131.965 52.0938H128.59C128.59 51.5547 128.715 51.043 128.965 50.5586C129.215 50.0742 129.578 49.6484 130.055 49.2812C130.531 48.9062 131.098 48.6133 131.754 48.4023C132.418 48.1914 133.16 48.0859 133.98 48.0859C134.965 48.0859 135.84 48.25 136.605 48.5781C137.371 48.9062 137.973 49.3984 138.41 50.0547C138.855 50.7109 139.078 51.5312 139.078 52.5156V57.9414C139.078 58.6367 139.121 59.207 139.207 59.6523C139.293 60.0898 139.418 60.4727 139.582 60.8008V61H136.172C136.008 60.6562 135.883 60.2266 135.797 59.7109C135.719 59.1875 135.68 58.6641 135.68 58.1406ZM136.125 53.2773L136.148 55.1875H134.262C133.816 55.1875 133.43 55.2383 133.102 55.3398C132.773 55.4414 132.504 55.5859 132.293 55.7734C132.082 55.9531 131.926 56.1641 131.824 56.4062C131.73 56.6484 131.684 56.9141 131.684 57.2031C131.684 57.4922 131.75 57.7539 131.883 57.9883C132.016 58.2148 132.207 58.3945 132.457 58.5273C132.707 58.6523 133 58.7148 133.336 58.7148C133.844 58.7148 134.285 58.6133 134.66 58.4102C135.035 58.207 135.324 57.957 135.527 57.6602C135.738 57.3633 135.848 57.082 135.855 56.8164L136.746 58.2461C136.621 58.5664 136.449 58.8984 136.23 59.2422C136.02 59.5859 135.75 59.9102 135.422 60.2148C135.094 60.5117 134.699 60.7578 134.238 60.9531C133.777 61.1406 133.23 61.2344 132.598 61.2344C131.793 61.2344 131.062 61.0742 130.406 60.7539C129.758 60.4258 129.242 59.9766 128.859 59.4062C128.484 58.8281 128.297 58.1719 128.297 57.4375C128.297 56.7734 128.422 56.1836 128.672 55.668C128.922 55.1523 129.289 54.7188 129.773 54.3672C130.266 54.0078 130.879 53.7383 131.613 53.5586C132.348 53.3711 133.199 53.2773 134.168 53.2773H136.125ZM144.984 51.0273V61H141.609V48.3203H144.773L144.984 51.0273ZM144.492 54.2148H143.578C143.578 53.2773 143.699 52.4336 143.941 51.6836C144.184 50.9258 144.523 50.2812 144.961 49.75C145.398 49.2109 145.918 48.8008 146.52 48.5195C147.129 48.2305 147.809 48.0859 148.559 48.0859C149.152 48.0859 149.695 48.1719 150.188 48.3438C150.68 48.5156 151.102 48.7891 151.453 49.1641C151.812 49.5391 152.086 50.0352 152.273 50.6523C152.469 51.2695 152.566 52.0234 152.566 52.9141V61H149.168V52.9023C149.168 52.3398 149.09 51.9023 148.934 51.5898C148.777 51.2773 148.547 51.0586 148.242 50.9336C147.945 50.8008 147.578 50.7344 147.141 50.7344C146.688 50.7344 146.293 50.8242 145.957 51.0039C145.629 51.1836 145.355 51.4336 145.137 51.7539C144.926 52.0664 144.766 52.4336 144.656 52.8555C144.547 53.2773 144.492 53.7305 144.492 54.2148ZM160.371 58.5977C160.785 58.5977 161.152 58.5195 161.473 58.3633C161.793 58.1992 162.043 57.9727 162.223 57.6836C162.41 57.3867 162.508 57.0391 162.516 56.6406H165.691C165.684 57.5312 165.445 58.3242 164.977 59.0195C164.508 59.707 163.879 60.25 163.09 60.6484C162.301 61.0391 161.418 61.2344 160.441 61.2344C159.457 61.2344 158.598 61.0703 157.863 60.7422C157.137 60.4141 156.531 59.9609 156.047 59.3828C155.562 58.7969 155.199 58.1172 154.957 57.3438C154.715 56.5625 154.594 55.7266 154.594 54.8359V54.4961C154.594 53.5977 154.715 52.7617 154.957 51.9883C155.199 51.207 155.562 50.5273 156.047 49.9492C156.531 49.3633 157.137 48.9062 157.863 48.5781C158.59 48.25 159.441 48.0859 160.418 48.0859C161.457 48.0859 162.367 48.2852 163.148 48.6836C163.938 49.082 164.555 49.6523 165 50.3945C165.453 51.1289 165.684 52 165.691 53.0078H162.516C162.508 52.5859 162.418 52.2031 162.246 51.8594C162.082 51.5156 161.84 51.2422 161.52 51.0391C161.207 50.8281 160.82 50.7227 160.359 50.7227C159.867 50.7227 159.465 50.8281 159.152 51.0391C158.84 51.2422 158.598 51.5234 158.426 51.8828C158.254 52.2344 158.133 52.6367 158.062 53.0898C158 53.5352 157.969 54.0039 157.969 54.4961V54.8359C157.969 55.3281 158 55.8008 158.062 56.2539C158.125 56.707 158.242 57.1094 158.414 57.4609C158.594 57.8125 158.84 58.0898 159.152 58.293C159.465 58.4961 159.871 58.5977 160.371 58.5977ZM173.484 61.2344C172.5 61.2344 171.617 61.0781 170.836 60.7656C170.055 60.4453 169.391 60.0039 168.844 59.4414C168.305 58.8789 167.891 58.2266 167.602 57.4844C167.312 56.7344 167.168 55.9375 167.168 55.0938V54.625C167.168 53.6641 167.305 52.7852 167.578 51.9883C167.852 51.1914 168.242 50.5 168.75 49.9141C169.266 49.3281 169.891 48.8789 170.625 48.5664C171.359 48.2461 172.188 48.0859 173.109 48.0859C174.008 48.0859 174.805 48.2344 175.5 48.5312C176.195 48.8281 176.777 49.25 177.246 49.7969C177.723 50.3438 178.082 51 178.324 51.7656C178.566 52.5234 178.688 53.3672 178.688 54.2969V55.7031H168.609V53.4531H175.371V53.1953C175.371 52.7266 175.285 52.3086 175.113 51.9414C174.949 51.5664 174.699 51.2695 174.363 51.0508C174.027 50.832 173.598 50.7227 173.074 50.7227C172.629 50.7227 172.246 50.8203 171.926 51.0156C171.605 51.2109 171.344 51.4844 171.141 51.8359C170.945 52.1875 170.797 52.6016 170.695 53.0781C170.602 53.5469 170.555 54.0625 170.555 54.625V55.0938C170.555 55.6016 170.625 56.0703 170.766 56.5C170.914 56.9297 171.121 57.3008 171.387 57.6133C171.66 57.9258 171.988 58.168 172.371 58.3398C172.762 58.5117 173.203 58.5977 173.695 58.5977C174.305 58.5977 174.871 58.4805 175.395 58.2461C175.926 58.0039 176.383 57.6406 176.766 57.1562L178.406 58.9375C178.141 59.3203 177.777 59.6875 177.316 60.0391C176.863 60.3906 176.316 60.6797 175.676 60.9062C175.035 61.125 174.305 61.2344 173.484 61.2344ZM187.5 53.5117H183.117L183.094 51.0977H186.773C187.422 51.0977 187.953 51.0156 188.367 50.8516C188.781 50.6797 189.09 50.4336 189.293 50.1133C189.504 49.7852 189.609 49.3867 189.609 48.918C189.609 48.3867 189.508 47.957 189.305 47.6289C189.109 47.3008 188.801 47.0625 188.379 46.9141C187.965 46.7656 187.43 46.6914 186.773 46.6914H184.336V61H180.82V43.9375H186.773C187.766 43.9375 188.652 44.0312 189.434 44.2188C190.223 44.4062 190.891 44.6914 191.438 45.0742C191.984 45.457 192.402 45.9414 192.691 46.5273C192.98 47.1055 193.125 47.793 193.125 48.5898C193.125 49.293 192.965 49.9414 192.645 50.5352C192.332 51.1289 191.836 51.6133 191.156 51.9883C190.484 52.3633 189.605 52.5703 188.52 52.6094L187.5 53.5117ZM187.348 61H182.156L183.527 58.2578H187.348C187.965 58.2578 188.469 58.1602 188.859 57.9648C189.25 57.7617 189.539 57.4883 189.727 57.1445C189.914 56.8008 190.008 56.4062 190.008 55.9609C190.008 55.4609 189.922 55.0273 189.75 54.6602C189.586 54.293 189.32 54.0117 188.953 53.8164C188.586 53.6133 188.102 53.5117 187.5 53.5117H184.113L184.137 51.0977H188.355L189.164 52.0469C190.203 52.0312 191.039 52.2148 191.672 52.5977C192.312 52.9727 192.777 53.4609 193.066 54.0625C193.363 54.6641 193.512 55.3086 193.512 55.9961C193.512 57.0898 193.273 58.0117 192.797 58.7617C192.32 59.5039 191.621 60.0625 190.699 60.4375C189.785 60.8125 188.668 61 187.348 61ZM201.773 61.2344C200.789 61.2344 199.906 61.0781 199.125 60.7656C198.344 60.4453 197.68 60.0039 197.133 59.4414C196.594 58.8789 196.18 58.2266 195.891 57.4844C195.602 56.7344 195.457 55.9375 195.457 55.0938V54.625C195.457 53.6641 195.594 52.7852 195.867 51.9883C196.141 51.1914 196.531 50.5 197.039 49.9141C197.555 49.3281 198.18 48.8789 198.914 48.5664C199.648 48.2461 200.477 48.0859 201.398 48.0859C202.297 48.0859 203.094 48.2344 203.789 48.5312C204.484 48.8281 205.066 49.25 205.535 49.7969C206.012 50.3438 206.371 51 206.613 51.7656C206.855 52.5234 206.977 53.3672 206.977 54.2969V55.7031H196.898V53.4531H203.66V53.1953C203.66 52.7266 203.574 52.3086 203.402 51.9414C203.238 51.5664 202.988 51.2695 202.652 51.0508C202.316 50.832 201.887 50.7227 201.363 50.7227C200.918 50.7227 200.535 50.8203 200.215 51.0156C199.895 51.2109 199.633 51.4844 199.43 51.8359C199.234 52.1875 199.086 52.6016 198.984 53.0781C198.891 53.5469 198.844 54.0625 198.844 54.625V55.0938C198.844 55.6016 198.914 56.0703 199.055 56.5C199.203 56.9297 199.41 57.3008 199.676 57.6133C199.949 57.9258 200.277 58.168 200.66 58.3398C201.051 58.5117 201.492 58.5977 201.984 58.5977C202.594 58.5977 203.16 58.4805 203.684 58.2461C204.215 58.0039 204.672 57.6406 205.055 57.1562L206.695 58.9375C206.43 59.3203 206.066 59.6875 205.605 60.0391C205.152 60.3906 204.605 60.6797 203.965 60.9062C203.324 61.125 202.594 61.2344 201.773 61.2344ZM215.742 58.1406V52.4922C215.742 52.0859 215.676 51.7383 215.543 51.4492C215.41 51.1523 215.203 50.9219 214.922 50.7578C214.648 50.5938 214.293 50.5117 213.855 50.5117C213.48 50.5117 213.156 50.5781 212.883 50.7109C212.609 50.8359 212.398 51.0195 212.25 51.2617C212.102 51.4961 212.027 51.7734 212.027 52.0938H208.652C208.652 51.5547 208.777 51.043 209.027 50.5586C209.277 50.0742 209.641 49.6484 210.117 49.2812C210.594 48.9062 211.16 48.6133 211.816 48.4023C212.48 48.1914 213.223 48.0859 214.043 48.0859C215.027 48.0859 215.902 48.25 216.668 48.5781C217.434 48.9062 218.035 49.3984 218.473 50.0547C218.918 50.7109 219.141 51.5312 219.141 52.5156V57.9414C219.141 58.6367 219.184 59.207 219.27 59.6523C219.355 60.0898 219.48 60.4727 219.645 60.8008V61H216.234C216.07 60.6562 215.945 60.2266 215.859 59.7109C215.781 59.1875 215.742 58.6641 215.742 58.1406ZM216.188 53.2773L216.211 55.1875H214.324C213.879 55.1875 213.492 55.2383 213.164 55.3398C212.836 55.4414 212.566 55.5859 212.355 55.7734C212.145 55.9531 211.988 56.1641 211.887 56.4062C211.793 56.6484 211.746 56.9141 211.746 57.2031C211.746 57.4922 211.812 57.7539 211.945 57.9883C212.078 58.2148 212.27 58.3945 212.52 58.5273C212.77 58.6523 213.062 58.7148 213.398 58.7148C213.906 58.7148 214.348 58.6133 214.723 58.4102C215.098 58.207 215.387 57.957 215.59 57.6602C215.801 57.3633 215.91 57.082 215.918 56.8164L216.809 58.2461C216.684 58.5664 216.512 58.8984 216.293 59.2422C216.082 59.5859 215.812 59.9102 215.484 60.2148C215.156 60.5117 214.762 60.7578 214.301 60.9531C213.84 61.1406 213.293 61.2344 212.66 61.2344C211.855 61.2344 211.125 61.0742 210.469 60.7539C209.82 60.4258 209.305 59.9766 208.922 59.4062C208.547 58.8281 208.359 58.1719 208.359 57.4375C208.359 56.7734 208.484 56.1836 208.734 55.668C208.984 55.1523 209.352 54.7188 209.836 54.3672C210.328 54.0078 210.941 53.7383 211.676 53.5586C212.41 53.3711 213.262 53.2773 214.23 53.2773H216.188ZM225.117 50.9453V61H221.73V48.3203H224.906L225.117 50.9453ZM224.648 54.2148H223.711C223.711 53.332 223.816 52.5195 224.027 51.7773C224.246 51.0273 224.562 50.3789 224.977 49.832C225.398 49.2773 225.918 48.8477 226.535 48.543C227.152 48.2383 227.867 48.0859 228.68 48.0859C229.242 48.0859 229.758 48.1719 230.227 48.3438C230.695 48.5078 231.098 48.7695 231.434 49.1289C231.777 49.4805 232.043 49.9414 232.23 50.5117C232.418 51.0742 232.512 51.75 232.512 52.5391V61H229.137V52.9141C229.137 52.3359 229.059 51.8906 228.902 51.5781C228.746 51.2656 228.523 51.0469 228.234 50.9219C227.953 50.7969 227.613 50.7344 227.215 50.7344C226.777 50.7344 226.395 50.8242 226.066 51.0039C225.746 51.1836 225.48 51.4336 225.27 51.7539C225.059 52.0664 224.902 52.4336 224.801 52.8555C224.699 53.2773 224.648 53.7305 224.648 54.2148ZM232.195 53.8281L230.988 53.9805C230.988 53.1523 231.09 52.3828 231.293 51.6719C231.504 50.9609 231.812 50.3359 232.219 49.7969C232.633 49.2578 233.145 48.8398 233.754 48.543C234.363 48.2383 235.066 48.0859 235.863 48.0859C236.473 48.0859 237.027 48.1758 237.527 48.3555C238.027 48.5273 238.453 48.8047 238.805 49.1875C239.164 49.5625 239.438 50.0547 239.625 50.6641C239.82 51.2734 239.918 52.0195 239.918 52.9023V61H236.531V52.9023C236.531 52.3164 236.453 51.8711 236.297 51.5664C236.148 51.2539 235.93 51.0391 235.641 50.9219C235.359 50.7969 235.023 50.7344 234.633 50.7344C234.227 50.7344 233.871 50.8164 233.566 50.9805C233.262 51.1367 233.008 51.3555 232.805 51.6367C232.602 51.918 232.449 52.2461 232.348 52.6211C232.246 52.9883 232.195 53.3906 232.195 53.8281Z" fill="#888888"/>
<path d="M109.219 107.422H100.734V101.07H109.219C110.375 101.07 111.312 100.875 112.031 100.484C112.75 100.094 113.273 99.5547 113.602 98.8672C113.945 98.1641 114.117 97.375 114.117 96.5C114.117 95.5625 113.945 94.6953 113.602 93.8984C113.273 93.1016 112.75 92.4609 112.031 91.9766C111.312 91.4766 110.375 91.2266 109.219 91.2266H103.828V119H95.6016V84.875H109.219C111.953 84.875 114.305 85.375 116.273 86.375C118.258 87.375 119.781 88.75 120.844 90.5C121.906 92.2344 122.438 94.2188 122.438 96.4531C122.438 98.6562 121.906 100.578 120.844 102.219C119.781 103.859 118.258 105.141 116.273 106.062C114.305 106.969 111.953 107.422 109.219 107.422ZM134.461 99.9219V119H126.562V93.6406H133.945L134.461 99.9219ZM141.961 93.4531L141.82 100.789C141.508 100.758 141.086 100.719 140.555 100.672C140.023 100.625 139.578 100.602 139.219 100.602C138.297 100.602 137.5 100.711 136.828 100.93C136.172 101.133 135.625 101.445 135.188 101.867C134.766 102.273 134.453 102.789 134.25 103.414C134.062 104.039 133.977 104.766 133.992 105.594L132.562 104.656C132.562 102.953 132.727 101.406 133.055 100.016C133.398 98.6094 133.883 97.3984 134.508 96.3828C135.133 95.3516 135.891 94.5625 136.781 94.0156C137.672 93.4531 138.672 93.1719 139.781 93.1719C140.172 93.1719 140.555 93.1953 140.93 93.2422C141.32 93.2891 141.664 93.3594 141.961 93.4531ZM142.852 106.578V106.086C142.852 104.227 143.117 102.516 143.648 100.953C144.18 99.375 144.961 98.0078 145.992 96.8516C147.023 95.6953 148.297 94.7969 149.812 94.1562C151.328 93.5 153.078 93.1719 155.062 93.1719C157.062 93.1719 158.82 93.5 160.336 94.1562C161.867 94.7969 163.148 95.6953 164.18 96.8516C165.211 98.0078 165.992 99.375 166.523 100.953C167.055 102.516 167.32 104.227 167.32 106.086V106.578C167.32 108.422 167.055 110.133 166.523 111.711C165.992 113.273 165.211 114.641 164.18 115.812C163.148 116.969 161.875 117.867 160.359 118.508C158.844 119.148 157.094 119.469 155.109 119.469C153.125 119.469 151.367 119.148 149.836 118.508C148.305 117.867 147.023 116.969 145.992 115.812C144.961 114.641 144.18 113.273 143.648 111.711C143.117 110.133 142.852 108.422 142.852 106.578ZM150.75 106.086V106.578C150.75 107.531 150.82 108.422 150.961 109.25C151.102 110.078 151.336 110.805 151.664 111.43C151.992 112.039 152.438 112.516 153 112.859C153.562 113.203 154.266 113.375 155.109 113.375C155.938 113.375 156.625 113.203 157.172 112.859C157.734 112.516 158.18 112.039 158.508 111.43C158.836 110.805 159.07 110.078 159.211 109.25C159.352 108.422 159.422 107.531 159.422 106.578V106.086C159.422 105.164 159.352 104.297 159.211 103.484C159.07 102.656 158.836 101.93 158.508 101.305C158.18 100.664 157.734 100.164 157.172 99.8047C156.609 99.4453 155.906 99.2656 155.062 99.2656C154.234 99.2656 153.539 99.4453 152.977 99.8047C152.43 100.164 151.992 100.664 151.664 101.305C151.336 101.93 151.102 102.656 150.961 103.484C150.82 104.297 150.75 105.164 150.75 106.086ZM171.422 93.6406H179.344V119.82C179.344 121.852 178.953 123.562 178.172 124.953C177.391 126.359 176.273 127.422 174.82 128.141C173.367 128.875 171.633 129.242 169.617 129.242C168.945 129.242 168.328 129.211 167.766 129.148C167.188 129.102 166.555 129 165.867 128.844V122.867C166.273 122.93 166.648 122.977 166.992 123.008C167.336 123.055 167.711 123.078 168.117 123.078C168.836 123.078 169.438 122.961 169.922 122.727C170.406 122.492 170.773 122.133 171.023 121.648C171.289 121.164 171.422 120.555 171.422 119.82V93.6406ZM170.836 87.1016C170.836 85.9766 171.242 85.0547 172.055 84.3359C172.867 83.6172 173.922 83.2578 175.219 83.2578C176.516 83.2578 177.57 83.6172 178.383 84.3359C179.195 85.0547 179.602 85.9766 179.602 87.1016C179.602 88.2266 179.195 89.1484 178.383 89.8672C177.57 90.5859 176.516 90.9453 175.219 90.9453C173.922 90.9453 172.867 90.5859 172.055 89.8672C171.242 89.1484 170.836 88.2266 170.836 87.1016ZM196.102 119.469C194.039 119.469 192.195 119.148 190.57 118.508C188.945 117.852 187.57 116.953 186.445 115.812C185.336 114.672 184.484 113.359 183.891 111.875C183.312 110.391 183.023 108.82 183.023 107.164V106.273C183.023 104.414 183.281 102.695 183.797 101.117C184.312 99.5234 185.078 98.1328 186.094 96.9453C187.109 95.7578 188.383 94.8359 189.914 94.1797C191.445 93.5078 193.227 93.1719 195.258 93.1719C197.055 93.1719 198.664 93.4609 200.086 94.0391C201.508 94.6172 202.711 95.4453 203.695 96.5234C204.695 97.6016 205.453 98.9062 205.969 100.438C206.5 101.969 206.766 103.688 206.766 105.594V108.805H186.047V103.859H199.055V103.25C199.07 102.406 198.922 101.688 198.609 101.094C198.312 100.5 197.875 100.047 197.297 99.7344C196.719 99.4219 196.016 99.2656 195.188 99.2656C194.328 99.2656 193.617 99.4531 193.055 99.8281C192.508 100.203 192.078 100.719 191.766 101.375C191.469 102.016 191.258 102.758 191.133 103.602C191.008 104.445 190.945 105.336 190.945 106.273V107.164C190.945 108.102 191.07 108.953 191.32 109.719C191.586 110.484 191.961 111.141 192.445 111.688C192.945 112.219 193.539 112.633 194.227 112.93C194.93 113.227 195.727 113.375 196.617 113.375C197.695 113.375 198.758 113.172 199.805 112.766C200.852 112.359 201.75 111.688 202.5 110.75L206.086 115.016C205.57 115.75 204.836 116.461 203.883 117.148C202.945 117.836 201.82 118.398 200.508 118.836C199.195 119.258 197.727 119.469 196.102 119.469ZM220.688 113.375C221.422 113.375 222.047 113.242 222.562 112.977C223.094 112.695 223.492 112.305 223.758 111.805C224.039 111.289 224.172 110.672 224.156 109.953H231.586C231.602 111.859 231.133 113.531 230.18 114.969C229.242 116.391 227.961 117.5 226.336 118.297C224.727 119.078 222.906 119.469 220.875 119.469C218.891 119.469 217.156 119.148 215.672 118.508C214.188 117.852 212.945 116.945 211.945 115.789C210.961 114.617 210.219 113.25 209.719 111.688C209.234 110.125 208.992 108.43 208.992 106.602V106.062C208.992 104.234 209.234 102.539 209.719 100.977C210.219 99.3984 210.961 98.0312 211.945 96.875C212.945 95.7031 214.18 94.7969 215.648 94.1562C217.133 93.5 218.859 93.1719 220.828 93.1719C222.938 93.1719 224.797 93.5703 226.406 94.3672C228.031 95.1641 229.305 96.3203 230.227 97.8359C231.148 99.3516 231.602 101.188 231.586 103.344H224.156C224.172 102.578 224.055 101.891 223.805 101.281C223.555 100.672 223.164 100.188 222.633 99.8281C222.117 99.4531 221.453 99.2656 220.641 99.2656C219.828 99.2656 219.172 99.4453 218.672 99.8047C218.172 100.164 217.789 100.664 217.523 101.305C217.273 101.93 217.102 102.648 217.008 103.461C216.93 104.273 216.891 105.141 216.891 106.062V106.602C216.891 107.539 216.93 108.422 217.008 109.25C217.102 110.062 217.281 110.781 217.547 111.406C217.812 112.016 218.195 112.5 218.695 112.859C219.195 113.203 219.859 113.375 220.688 113.375ZM248.32 93.6406V99.125H233.039V93.6406H248.32ZM236.25 87.3359H244.148V110.727C244.148 111.398 244.227 111.922 244.383 112.297C244.539 112.656 244.805 112.914 245.18 113.07C245.57 113.211 246.086 113.281 246.727 113.281C247.18 113.281 247.555 113.273 247.852 113.258C248.148 113.227 248.43 113.188 248.695 113.141V118.789C248.023 119.008 247.32 119.172 246.586 119.281C245.852 119.406 245.07 119.469 244.242 119.469C242.555 119.469 241.109 119.203 239.906 118.672C238.719 118.141 237.812 117.305 237.188 116.164C236.562 115.023 236.25 113.539 236.25 111.711V87.3359ZM277.406 107.422H268.922V101.07H277.406C278.562 101.07 279.5 100.875 280.219 100.484C280.938 100.094 281.461 99.5547 281.789 98.8672C282.133 98.1641 282.305 97.375 282.305 96.5C282.305 95.5625 282.133 94.6953 281.789 93.8984C281.461 93.1016 280.938 92.4609 280.219 91.9766C279.5 91.4766 278.562 91.2266 277.406 91.2266H272.016V119H263.789V84.875H277.406C280.141 84.875 282.492 85.375 284.461 86.375C286.445 87.375 287.969 88.75 289.031 90.5C290.094 92.2344 290.625 94.2188 290.625 96.4531C290.625 98.6562 290.094 100.578 289.031 102.219C287.969 103.859 286.445 105.141 284.461 106.062C282.492 106.969 280.141 107.422 277.406 107.422ZM302.414 83V119H294.516V83H302.414ZM301.477 105.453L299.625 105.5C299.625 103.719 299.844 102.078 300.281 100.578C300.719 99.0781 301.344 97.7734 302.156 96.6641C302.969 95.5547 303.945 94.6953 305.086 94.0859C306.227 93.4766 307.492 93.1719 308.883 93.1719C310.133 93.1719 311.273 93.3516 312.305 93.7109C313.352 94.0703 314.25 94.6484 315 95.4453C315.766 96.2422 316.352 97.2812 316.758 98.5625C317.18 99.8438 317.391 101.406 317.391 103.25V119H309.445V103.203C309.445 102.172 309.297 101.375 309 100.812C308.719 100.234 308.312 99.8359 307.781 99.6172C307.25 99.3828 306.602 99.2656 305.836 99.2656C304.914 99.2656 304.164 99.4219 303.586 99.7344C303.008 100.047 302.562 100.484 302.25 101.047C301.953 101.594 301.75 102.242 301.641 102.992C301.531 103.742 301.477 104.562 301.477 105.453ZM330.117 93.6406V119H322.195V93.6406H330.117ZM321.727 87.1016C321.727 85.9766 322.133 85.0547 322.945 84.3359C323.758 83.6172 324.812 83.2578 326.109 83.2578C327.406 83.2578 328.461 83.6172 329.273 84.3359C330.086 85.0547 330.492 85.9766 330.492 87.1016C330.492 88.2266 330.086 89.1484 329.273 89.8672C328.461 90.5859 327.406 90.9453 326.109 90.9453C324.812 90.9453 323.758 90.5859 322.945 89.8672C322.133 89.1484 321.727 88.2266 321.727 87.1016ZM343.336 83V119H335.414V83H343.336ZM347.227 106.578V106.086C347.227 104.227 347.492 102.516 348.023 100.953C348.555 99.375 349.336 98.0078 350.367 96.8516C351.398 95.6953 352.672 94.7969 354.188 94.1562C355.703 93.5 357.453 93.1719 359.438 93.1719C361.438 93.1719 363.195 93.5 364.711 94.1562C366.242 94.7969 367.523 95.6953 368.555 96.8516C369.586 98.0078 370.367 99.375 370.898 100.953C371.43 102.516 371.695 104.227 371.695 106.086V106.578C371.695 108.422 371.43 110.133 370.898 111.711C370.367 113.273 369.586 114.641 368.555 115.812C367.523 116.969 366.25 117.867 364.734 118.508C363.219 119.148 361.469 119.469 359.484 119.469C357.5 119.469 355.742 119.148 354.211 118.508C352.68 117.867 351.398 116.969 350.367 115.812C349.336 114.641 348.555 113.273 348.023 111.711C347.492 110.133 347.227 108.422 347.227 106.578ZM355.125 106.086V106.578C355.125 107.531 355.195 108.422 355.336 109.25C355.477 110.078 355.711 110.805 356.039 111.43C356.367 112.039 356.812 112.516 357.375 112.859C357.938 113.203 358.641 113.375 359.484 113.375C360.312 113.375 361 113.203 361.547 112.859C362.109 112.516 362.555 112.039 362.883 111.43C363.211 110.805 363.445 110.078 363.586 109.25C363.727 108.422 363.797 107.531 363.797 106.578V106.086C363.797 105.164 363.727 104.297 363.586 103.484C363.445 102.656 363.211 101.93 362.883 101.305C362.555 100.664 362.109 100.164 361.547 99.8047C360.984 99.4453 360.281 99.2656 359.438 99.2656C358.609 99.2656 357.914 99.4453 357.352 99.8047C356.805 100.164 356.367 100.664 356.039 101.305C355.711 101.93 355.477 102.656 355.336 103.484C355.195 104.297 355.125 105.164 355.125 106.086ZM388.5 111.875C388.5 111.438 388.352 111.062 388.055 110.75C387.773 110.422 387.273 110.125 386.555 109.859C385.836 109.578 384.828 109.297 383.531 109.016C382.297 108.75 381.133 108.398 380.039 107.961C378.961 107.523 378.016 106.992 377.203 106.367C376.391 105.742 375.75 105 375.281 104.141C374.828 103.281 374.602 102.297 374.602 101.188C374.602 100.109 374.828 99.0938 375.281 98.1406C375.75 97.1719 376.43 96.3203 377.32 95.5859C378.227 94.8359 379.328 94.25 380.625 93.8281C381.922 93.3906 383.398 93.1719 385.055 93.1719C387.336 93.1719 389.305 93.5234 390.961 94.2266C392.617 94.9141 393.891 95.8828 394.781 97.1328C395.688 98.3672 396.141 99.7969 396.141 101.422H388.242C388.242 100.781 388.133 100.234 387.914 99.7812C387.711 99.3281 387.375 98.9844 386.906 98.75C386.438 98.5 385.812 98.375 385.031 98.375C384.484 98.375 383.984 98.4766 383.531 98.6797C383.094 98.8828 382.742 99.1641 382.477 99.5234C382.211 99.8828 382.078 100.305 382.078 100.789C382.078 101.133 382.156 101.445 382.312 101.727C382.484 101.992 382.742 102.242 383.086 102.477C383.43 102.695 383.867 102.898 384.398 103.086C384.93 103.258 385.57 103.414 386.32 103.555C388.023 103.867 389.617 104.312 391.102 104.891C392.586 105.469 393.789 106.289 394.711 107.352C395.648 108.414 396.117 109.844 396.117 111.641C396.117 112.766 395.859 113.805 395.344 114.758C394.828 115.695 394.086 116.523 393.117 117.242C392.148 117.945 390.984 118.492 389.625 118.883C388.266 119.273 386.734 119.469 385.031 119.469C382.609 119.469 380.562 119.039 378.891 118.18C377.219 117.305 375.953 116.211 375.094 114.898C374.25 113.57 373.828 112.227 373.828 110.867H381.188C381.219 111.648 381.406 112.289 381.75 112.789C382.109 113.289 382.586 113.656 383.18 113.891C383.773 114.125 384.461 114.242 385.242 114.242C385.961 114.242 386.555 114.141 387.023 113.938C387.508 113.734 387.875 113.461 388.125 113.117C388.375 112.758 388.5 112.344 388.5 111.875ZM398.836 106.578V106.086C398.836 104.227 399.102 102.516 399.633 100.953C400.164 99.375 400.945 98.0078 401.977 96.8516C403.008 95.6953 404.281 94.7969 405.797 94.1562C407.312 93.5 409.062 93.1719 411.047 93.1719C413.047 93.1719 414.805 93.5 416.32 94.1562C417.852 94.7969 419.133 95.6953 420.164 96.8516C421.195 98.0078 421.977 99.375 422.508 100.953C423.039 102.516 423.305 104.227 423.305 106.086V106.578C423.305 108.422 423.039 110.133 422.508 111.711C421.977 113.273 421.195 114.641 420.164 115.812C419.133 116.969 417.859 117.867 416.344 118.508C414.828 119.148 413.078 119.469 411.094 119.469C409.109 119.469 407.352 119.148 405.82 118.508C404.289 117.867 403.008 116.969 401.977 115.812C400.945 114.641 400.164 113.273 399.633 111.711C399.102 110.133 398.836 108.422 398.836 106.578ZM406.734 106.086V106.578C406.734 107.531 406.805 108.422 406.945 109.25C407.086 110.078 407.32 110.805 407.648 111.43C407.977 112.039 408.422 112.516 408.984 112.859C409.547 113.203 410.25 113.375 411.094 113.375C411.922 113.375 412.609 113.203 413.156 112.859C413.719 112.516 414.164 112.039 414.492 111.43C414.82 110.805 415.055 110.078 415.195 109.25C415.336 108.422 415.406 107.531 415.406 106.578V106.086C415.406 105.164 415.336 104.297 415.195 103.484C415.055 102.656 414.82 101.93 414.492 101.305C414.164 100.664 413.719 100.164 413.156 99.8047C412.594 99.4453 411.891 99.2656 411.047 99.2656C410.219 99.2656 409.523 99.4453 408.961 99.8047C408.414 100.164 407.977 100.664 407.648 101.305C407.32 101.93 407.086 102.656 406.945 103.484C406.805 104.297 406.734 105.164 406.734 106.086ZM434.789 98.5156V128.75H426.891V93.6406H434.25L434.789 98.5156ZM450.352 106.016V106.508C450.352 108.352 450.141 110.062 449.719 111.641C449.297 113.219 448.672 114.594 447.844 115.766C447.016 116.938 445.984 117.852 444.75 118.508C443.531 119.148 442.117 119.469 440.508 119.469C438.992 119.469 437.688 119.133 436.594 118.461C435.5 117.789 434.586 116.859 433.852 115.672C433.117 114.484 432.523 113.125 432.07 111.594C431.617 110.062 431.258 108.445 430.992 106.742V106.109C431.258 104.281 431.617 102.586 432.07 101.023C432.523 99.4453 433.117 98.0703 433.852 96.8984C434.586 95.7266 435.492 94.8125 436.57 94.1562C437.664 93.5 438.969 93.1719 440.484 93.1719C442.094 93.1719 443.508 93.4766 444.727 94.0859C445.961 94.6953 446.992 95.5703 447.82 96.7109C448.664 97.8359 449.297 99.1875 449.719 100.766C450.141 102.344 450.352 104.094 450.352 106.016ZM442.453 106.508V106.016C442.453 105.031 442.383 104.133 442.242 103.32C442.102 102.492 441.875 101.773 441.562 101.164C441.266 100.555 440.867 100.086 440.367 99.7578C439.867 99.4297 439.25 99.2656 438.516 99.2656C437.672 99.2656 436.961 99.3984 436.383 99.6641C435.82 99.9141 435.367 100.305 435.023 100.836C434.695 101.352 434.461 102 434.32 102.781C434.195 103.547 434.141 104.445 434.156 105.477V107.398C434.125 108.586 434.242 109.633 434.508 110.539C434.773 111.43 435.234 112.125 435.891 112.625C436.547 113.125 437.438 113.375 438.562 113.375C439.312 113.375 439.938 113.203 440.438 112.859C440.938 112.5 441.336 112.008 441.633 111.383C441.93 110.742 442.141 110.008 442.266 109.18C442.391 108.352 442.453 107.461 442.453 106.508ZM461.602 83V119H453.703V83H461.602ZM460.664 105.453L458.812 105.5C458.812 103.719 459.031 102.078 459.469 100.578C459.906 99.0781 460.531 97.7734 461.344 96.6641C462.156 95.5547 463.133 94.6953 464.273 94.0859C465.414 93.4766 466.68 93.1719 468.07 93.1719C469.32 93.1719 470.461 93.3516 471.492 93.7109C472.539 94.0703 473.438 94.6484 474.188 95.4453C474.953 96.2422 475.539 97.2812 475.945 98.5625C476.367 99.8438 476.578 101.406 476.578 103.25V119H468.633V103.203C468.633 102.172 468.484 101.375 468.188 100.812C467.906 100.234 467.5 99.8359 466.969 99.6172C466.438 99.3828 465.789 99.2656 465.023 99.2656C464.102 99.2656 463.352 99.4219 462.773 99.7344C462.195 100.047 461.75 100.484 461.438 101.047C461.141 101.594 460.938 102.242 460.828 102.992C460.719 103.742 460.664 104.562 460.664 105.453ZM488.742 116.023L495.305 93.6406H503.789L493.594 122.773C493.375 123.414 493.086 124.102 492.727 124.836C492.367 125.586 491.875 126.297 491.25 126.969C490.625 127.641 489.82 128.188 488.836 128.609C487.867 129.031 486.664 129.242 485.227 129.242C484.461 129.242 483.898 129.203 483.539 129.125C483.195 129.062 482.664 128.945 481.945 128.773V123.125C482.148 123.125 482.32 123.125 482.461 123.125C482.617 123.125 482.789 123.125 482.977 123.125C483.82 123.125 484.492 123.039 484.992 122.867C485.508 122.695 485.898 122.445 486.164 122.117C486.445 121.789 486.664 121.391 486.82 120.922L488.742 116.023ZM487.078 93.6406L492.07 111.383L492.938 119.75H487.641L478.617 93.6406H487.078Z" fill="black"/>
<path d="M1134 0H1348C1356.28 0 1363 6.71573 1363 15V148C1363 156.284 1356.28 163 1348 163H1134V0Z" fill="#FF6F61"/>
<path d="M1234.26 103.786H1262.74V109.357H1234.26V103.786ZM1239.96 114.929H1257.04V120.5H1239.96V114.929ZM1248.5 42.5C1240.95 42.5 1233.71 45.4349 1228.37 50.6592C1223.03 55.8834 1220.03 62.969 1220.03 70.3571C1219.84 74.4057 1220.63 78.4412 1222.34 82.1315C1224.05 85.8219 1226.64 89.0616 1229.88 91.5843C1232.73 94.175 1234.26 95.6514 1234.26 98.2143H1239.96C1239.96 93.0886 1236.8 90.2193 1233.72 87.4614C1231.06 85.4676 1228.94 82.8658 1227.55 79.8838C1226.15 76.9019 1225.53 73.6308 1225.72 70.3571C1225.72 64.4466 1228.12 58.7781 1232.39 54.5988C1236.67 50.4194 1242.46 48.0714 1248.5 48.0714C1254.54 48.0714 1260.33 50.4194 1264.61 54.5988C1268.88 58.7781 1271.28 64.4466 1271.28 70.3571C1271.47 73.6333 1270.84 76.9059 1269.44 79.888C1268.04 82.8701 1265.92 85.4706 1263.25 87.4614C1260.2 90.2471 1257.04 93.0329 1257.04 98.2143H1262.74C1262.74 95.6514 1264.25 94.175 1267.12 91.5564C1270.36 89.0381 1272.94 85.8031 1274.66 82.1176C1276.37 78.4321 1277.16 74.4014 1276.97 70.3571C1276.97 66.6989 1276.24 63.0765 1274.81 59.6967C1273.37 56.3169 1271.28 53.2459 1268.63 50.6592C1265.99 48.0724 1262.85 46.0205 1259.4 44.6205C1255.94 43.2205 1252.24 42.5 1248.5 42.5Z" fill="white"/>
</svg>
